<?xml version="1.0" standalone="no"?>
<!DOCTYPE svg PUBLIC "-//W3C//DTD SVG 1.1//EN" "http://www.w3.org/Graphics/SVG/1.1/DTD/svg11.dtd" >
<svg xmlns="http://www.w3.org/2000/svg">
<metadata></metadata>
<defs>
<font id="kanitblack_italic" horiz-adv-x="0" >
<font-face units-per-em="2048" ascent="1536" descent="-512" />
<missing-glyph horiz-adv-x="614" />
<glyph unicode="fi" horiz-adv-x="1269" d="M-10 0l129 614h-115l76 357h115l4 20q86 422 573 422q190 0 303 -47l-65 -315q-51 20 -119 20q-182 0 -197 -88l-4 -12h598l-205 -971h-495l129 614h-103l-129 -614h-495z" />
<glyph unicode="fl" horiz-adv-x="1269" d="M-10 0l129 614h-115l76 357h115l4 20q39 201 181 311.5t392 110.5q156 0 285 -45h315l-289 -1368h-485l129 614h-123l-129 -614h-485zM676 971h135l20 98q-76 0 -108.5 -19.5t-42.5 -66.5z" />
<glyph unicode="&#xe24;&#xe45;" horiz-adv-x="1986" d="M-25 158q0 25 7 55l26 133q16 68 69.5 131.5t123.5 87.5l-154 60l68 317q137 80 301 132t340 52q248 0 385 -82q74 35 179 58.5t206 23.5q430 0 430 -331q0 -57 -17 -140l-210 -983h-453l192 906q8 41 9 55q0 49 -31 70.5t-103 21.5q-31 0 -45 -2q-4 -41 -8 -57 l-213 -994h-516l205 963q8 49 8 61q0 45 -27.5 65.5t-91.5 20.5q-84 0 -163 -32v-5l186 -73l-41 -195q-100 -31 -121 -121l-2 -18q-2 -6 -2 -16q0 -35 41 -35h47l-59 -287h-385q-86 0 -133.5 42t-47.5 116z" />
<glyph unicode="&#xe26;&#xe45;" horiz-adv-x="2033" d="M-84 0l64 307h40q27 0 43.5 14.5t20.5 36.5l4 23q14 68 52 114t108 70l-154 60l68 317q137 80 301 132t340 52q248 0 385 -82q74 35 179.5 58.5t205.5 23.5q217 0 323.5 -86t106.5 -247q0 -59 -16 -138l-211 -983h-453l193 906q6 31 6 53q0 49 -32 71.5t-99 22.5 q-31 0 -45 -2q-4 -41 -9 -57l-213 -994h-516l205 963q8 49 8 61q0 45 -27.5 65.5t-91.5 20.5q-84 0 -163 -32v-5l186 -73l-41 -195q-43 -12 -62.5 -38.5t-31.5 -76.5l-31 -149q-20 -96 -91 -154.5t-173 -58.5h-379z" />
<glyph unicode=" "  horiz-adv-x="614" />
<glyph unicode="&#x09;" horiz-adv-x="614" />
<glyph unicode="&#xa0;" horiz-adv-x="614" />
<glyph unicode="!" horiz-adv-x="573" d="M-84 0l72 342h512l-72 -342h-512zM25 408l100 542l78 369h495l-77 -369l-129 -542h-467z" />
<glyph unicode="&#x22;" horiz-adv-x="919" d="M86 809l109 510h397l-143 -510h-363zM547 809l108 510h398l-142 -510h-364z" />
<glyph unicode="#" horiz-adv-x="1478" d="M-70 0l146 279h-103l68 313h201l71 139h-166l68 316h264l144 272h421l-143 -272h148l143 272h420l-144 -272h86l-67 -316h-184l-72 -139h151l-67 -313h-250l-145 -279h-420l145 279h-149l-146 -279h-420zM662 592h149l72 139h-148z" />
<glyph unicode="$" horiz-adv-x="1146" d="M-57 72l77 370q88 -47 202 -77.5t208 -30.5q68 0 105.5 17.5t37.5 49.5q0 20 -26.5 35t-89.5 37l-97 37q-141 57 -202.5 123.5t-61.5 169.5q0 49 17 125q68 319 430 391l39 176h430l-37 -172q145 -20 225 -47l-80 -373q-176 80 -332 80q-170 0 -170 -57q0 -18 26 -30.5 t97 -33.5l56 -16q170 -51 237.5 -124t67.5 -183q0 -61 -17 -144q-31 -139 -129 -236.5t-260 -142.5l-41 -192h-430l35 164q-203 18 -317 84z" />
<glyph unicode="%" horiz-adv-x="1654" d="M119 918q0 41 8 79q35 164 134 253t267 89q125 0 195 -65.5t70 -181.5q0 -39 -11 -95q-31 -143 -131 -228t-264 -85q-131 0 -199.5 62.5t-68.5 171.5zM137 0l963 1319h467l-963 -1319h-467zM377 981q0 -55 63 -55q79 0 95 82q4 14 4 36q0 53 -64 54q-41 0 -63.5 -21.5 t-32.5 -68.5q-2 -10 -2 -27zM907 213q0 41 8 80q35 164 134.5 253t267.5 89q125 0 194.5 -65.5t69.5 -182.5q0 -39 -10 -94q-31 -143 -131.5 -228t-263.5 -85q-132 0 -200.5 62t-68.5 171zM1165 276q0 -55 64 -55q78 0 94 82q4 14 4 37q0 53 -63 53q-41 0 -63.5 -21.5 t-33.5 -68.5q-2 -10 -2 -27z" />
<glyph unicode="&#x26;" horiz-adv-x="1447" d="M-14 295q0 41 8 76q53 248 319 379q-59 76 -59 159q0 41 8 76q35 164 173 259t351 95q178 0 285 -77.5t107 -206.5q0 -37 -9 -70q-20 -90 -68 -158.5t-132 -130.5l98 -131q20 20 27 58l6 28h360l-10 -47q-16 -80 -62.5 -163t-103.5 -138l55 -76l-362 -276l-90 119 q-76 -43 -185.5 -66.5t-224.5 -23.5q-231 0 -361 83.5t-130 231.5zM469 369q0 -27 20.5 -42.5t59.5 -15.5q53 1 94 21l-94 123q-80 -23 -80 -86zM647 963q-4 -27 7.5 -46.5t37.5 -37.5q37 20 56.5 38.5t23.5 45.5q2 6 2 16q0 43 -49 43q-31 0 -51.5 -16.5t-26.5 -42.5z" />
<glyph unicode="'" horiz-adv-x="458" d="M86 809l109 510h397l-143 -510h-363z" />
<glyph unicode="(" horiz-adv-x="831" d="M10 307q0 145 37 314q53 246 158.5 439t255.5 329h561q-369 -289 -469 -768q-31 -154 -31 -269q0 -295 172 -499h-561q-123 184 -123 454z" />
<glyph unicode=")" horiz-adv-x="831" d="M-156 -147q367 291 467 768q31 154 31 268q0 295 -172 500h561q121 -180 121 -457q0 -152 -35 -311q-53 -244 -159.5 -438.5t-254.5 -329.5h-559z" />
<glyph unicode="*" horiz-adv-x="937" d="M119 760l174 135l-174 80l205 276l112 -80l17 148h360l-45 -148l145 80l82 -290l-207 -80l117 -136l-305 -200l-82 168l-151 -168z" />
<glyph unicode="+" horiz-adv-x="929" d="M4 420l80 377h246l47 215h377l-47 -215h245l-80 -377h-245l-45 -215h-377l45 215h-246z" />
<glyph unicode="," horiz-adv-x="544" d="M-135 -246l182 510h408l-242 -510h-348z" />
<glyph unicode="-" horiz-adv-x="888" d="M4 420l80 377h827l-80 -377h-827z" />
<glyph unicode="." horiz-adv-x="442" d="M-84 0l72 346h381l-72 -346h-381z" />
<glyph unicode="/" horiz-adv-x="1048" d="M-84 0l766 1356h508l-766 -1356h-508z" />
<glyph unicode="0" horiz-adv-x="1392" d="M31 442q0 100 24 217q49 229 140.5 378t254 225.5t416.5 76.5q272 0 408.5 -118.5t136.5 -350.5q0 -96 -25 -211q-49 -229 -143 -377.5t-257 -225t-411 -76.5q-274 0 -409 117.5t-135 344.5zM545 535q0 -68 28.5 -101t92.5 -33q86 0 136 62.5t79 195.5q16 78 16 125 q0 68 -28.5 101t-92.5 33q-86 0 -136 -62.5t-79 -196.5q-16 -78 -16 -124z" />
<glyph unicode="1" horiz-adv-x="821" d="M90 825l88 412l742 102l-285 -1339h-496l183 858z" />
<glyph unicode="2" horiz-adv-x="1095" d="M-84 0l45 219q80 94 168 174t207 166q156 115 209 163t63 99q2 8 2 23q0 74 -123 74q-164 0 -354 -74l88 411q100 39 228.5 61.5t259.5 22.5q205 0 319.5 -91t114.5 -244q0 -39 -10 -95q-27 -123 -85.5 -202.5t-187.5 -176.5q-12 -10 -86 -63t-108 -90h364l-80 -377 h-1034z" />
<glyph unicode="3" horiz-adv-x="1126" d="M-72 59l80 375q76 -41 178.5 -61.5t192.5 -20.5t134 17.5t54 66.5q6 33 -18.5 51.5t-85.5 18.5h-242l98 313h199q59 0 87 17.5t36 58.5q8 33 -27.5 52.5t-119.5 19.5q-94 0 -195.5 -22.5t-177.5 -59.5l80 372q96 37 223 59.5t248 22.5q248 0 371.5 -85t123.5 -228 q0 -35 -10 -82q-35 -172 -164 -282q82 -57 82 -175q0 -33 -10 -88q-90 -420 -684 -419q-94 0 -235.5 23.5t-217.5 55.5z" />
<glyph unicode="4" horiz-adv-x="1144" d="M-80 221l68 314l796 784h424l-147 -701h110l-86 -397h-110l-45 -221h-496l45 221h-559zM479 598h174l39 190z" />
<glyph unicode="5" horiz-adv-x="1095" d="M-68 57l82 377q59 -33 170 -55.5t178 -22.5q94 0 136.5 30t42.5 89q0 31 -24.5 45.5t-80.5 14.5h-407l41 194l159 590h924l-111 -377h-467l-22 -84h100q186 0 293 -83t107 -236q0 -47 -13 -107q-45 -217 -199.5 -334.5t-475.5 -117.5q-101 0 -228 19t-205 58z" />
<glyph unicode="6" horiz-adv-x="1236" d="M14 395q0 70 15 135l47 226q57 268 247.5 425.5t540.5 157.5q119 0 204 -14t161 -47l-76 -358q-68 33 -142.5 48t-166.5 15q-117 0 -196 -38t-89 -83l-2 -12q43 23 114.5 37t133.5 14q195 0 296 -81t101 -236q0 -61 -14 -125q-47 -223 -209 -351t-477 -128 q-236 0 -362 111.5t-126 303.5zM467 410q0 -47 27.5 -69t85.5 -22q69 0 109 30t54 91q4 29 5 41q0 41 -27 61.5t-86 20.5q-63 0 -148 -37l-14 -65q-6 -27 -6 -51z" />
<glyph unicode="7" horiz-adv-x="1032" d="M-53 0l598 942h-451l80 377h1012l-58 -272l-665 -1047h-516z" />
<glyph unicode="8" horiz-adv-x="1286" d="M-12 301q0 49 12 100q18 82 71.5 161t121.5 122q-57 70 -58 172q0 31 6 64q45 207 198 313t472 106q254 0 379 -84t125 -237q0 -55 -10 -98q-14 -66 -55.5 -132.5t-96.5 -109.5q80 -76 80 -199q0 -43 -8 -78q-31 -145 -107 -237t-220 -138t-378 -46q-532 -1 -532 321z M471 399q0 -80 123 -80q84 0 125 32t41 85t-74 70l-113 24q-82 -23 -98 -102q-4 -20 -4 -29zM606 883q0 -23 12.5 -39.5t34.5 -20.5l90 -18q41 16 61.5 40.5t29.5 63.5q2 8 2 21q0 70 -99 69q-111 0 -129 -90q-2 -8 -2 -26z" />
<glyph unicode="9" horiz-adv-x="1236" d="M59 35l76 358q68 -33 139.5 -45t167.5 -12q125 0 200 38t85 83l2 12q-43 -23 -114.5 -37t-133.5 -14q-186 0 -290.5 84t-104.5 241q0 55 12 117q47 225 208 352t478 127q254 0 374 -94t120 -280q0 -86 -21 -177l-47 -225q-59 -279 -253.5 -431t-534.5 -152 q-125 0 -207 11t-156 44zM537 836q0 -80 114 -80q60 0 148 37l14 65q6 31 6 53q0 47 -26.5 67.5t-85.5 20.5q-139 0 -164 -120q-6 -25 -6 -43z" />
<glyph unicode=":" horiz-adv-x="440" d="M-80 29l76 350h379l-76 -350h-379zM51 637l74 350h379l-74 -350h-379z" />
<glyph unicode=";" horiz-adv-x="544" d="M-135 -246l182 510h408l-242 -510h-348zM145 637l74 350h379l-74 -350h-379z" />
<glyph unicode="&#x3c;" horiz-adv-x="1103" d="M10 453l88 405l1139 453l-98 -471l-557 -199l473 -199l-97 -442z" />
<glyph unicode="=" horiz-adv-x="888" d="M-39 221l72 336h827l-72 -336h-827zM53 647l72 336h827l-71 -336h-828z" />
<glyph unicode="&#x3e;" horiz-adv-x="1103" d="M-84 0l96 471l559 199l-475 198l99 443l946 -453l-88 -405z" />
<glyph unicode="?" horiz-adv-x="1044" d="M80 0l72 342h512l-72 -342h-512zM106 903l74 342q94 45 218 69.5t249 24.5q209 0 334 -90t125 -239q0 -20 -8 -70q-23 -111 -74 -184.5t-162 -151.5q-49 -33 -74 -47q-70 -47 -100.5 -72.5t-38.5 -60.5l-2 -16h-450l6 30q18 92 58 142.5t147 128.5l47 34q66 45 91 72 t34 66q2 8 2 22q0 82 -156 82q-82 0 -169 -24.5t-151 -57.5z" />
<glyph unicode="@" horiz-adv-x="1544" d="M-23 225q0 74 19 160q76 352 308.5 521t617.5 169q176 0 311 -52t211 -152.5t76 -237.5q0 -53 -13 -115q-41 -199 -183 -306.5t-370 -107.5h-123q-119 -49 -264 -49q-88 0 -142 43t-54 125q0 29 6 60q47 225 334 225h141l2 6q4 18 -24.5 28.5t-86.5 10.5q-111 0 -233 -35 l39 182q57 23 140 36.5t163 13.5q131 0 200.5 -54.5t69.5 -154.5q0 -37 -8 -70l-29 -139q55 0 91 162q10 43 10 98q0 111 -76 164t-246 53q-219 0 -357 -106.5t-183 -321.5q-14 -66 -15 -127q0 -131 87 -194.5t280 -63.5q225 0 362 39l-57 -268q-162 -37 -358 -37 q-299 0 -472.5 127t-173.5 368zM680 270q0 -33 39 -32q47 -1 84 32l14 68h-61q-63 0 -74 -53q-2 -6 -2 -15z" />
<glyph unicode="A" horiz-adv-x="1591" d="M-84 0l786 1319h515l229 -1319h-492l-43 246h-319l-146 -246h-530zM717 584h201l-48 252z" />
<glyph unicode="B" horiz-adv-x="1355" d="M-43 0l279 1319h782q158 0 257 -82t99 -215q0 -41 -8 -76q-41 -188 -182 -278q59 -31 90 -74t31 -111q0 -33 -11 -84q-86 -399 -546 -399h-791zM492 336h184q98 0 117 88q2 8 2 22q0 59 -82 60h-185zM594 813h184q98 0 117 88q2 8 2 21q0 61 -82 61h-184z" />
<glyph unicode="C" horiz-adv-x="1265" d="M37 489q0 78 18 170q70 332 313.5 506t616.5 174q121 0 214 -17t185 -54l-92 -432q-88 45 -176 65.5t-188 20.5q-162 0 -249 -58.5t-118 -204.5q-10 -41 -10 -90q0 -94 64.5 -133t205.5 -39q100 0 196.5 20.5t205.5 65.5l-93 -432q-109 -37 -210 -54t-222 -17 q-309 0 -485 131t-176 378z" />
<glyph unicode="D" horiz-adv-x="1413" d="M-43 0l279 1319h626q164 0 292 -59.5t199.5 -173t71.5 -269.5q0 -68 -20 -166q-51 -231 -150.5 -373.5t-261.5 -210t-409 -67.5h-627zM532 377h74q86 0 141.5 21.5t92.5 81t61 171.5q16 72 17 131q0 80 -44.5 105.5t-154.5 25.5h-74z" />
<glyph unicode="E" horiz-adv-x="1140" d="M-43 0l279 1319h1054l-76 -356h-559l-24 -119h481l-78 -369h-481l-27 -119h559l-73 -356h-1055z" />
<glyph unicode="F" horiz-adv-x="1116" d="M-43 0l279 1319h1054l-76 -356h-559l-24 -119h481l-78 -369h-481l-100 -475h-496z" />
<glyph unicode="G" horiz-adv-x="1357" d="M35 481q0 88 20 178q72 340 306.5 510t642.5 170q227 0 407 -67l-86 -414q-152 63 -379 64q-156 0 -255 -60.5t-130 -202.5q-14 -59 -14 -112q0 -82 50 -116t167 -34q66 0 125 15l18 80h-219l64 299h628l-145 -682q-104 -57 -245.5 -93t-311.5 -36q-305 0 -474 128 t-169 373z" />
<glyph unicode="H" horiz-adv-x="1464" d="M-43 0l279 1319h495l-90 -430h330l90 430h495l-278 -1319h-496l90 430h-329l-90 -430h-496z" />
<glyph unicode="I" horiz-adv-x="638" d="M-43 0l279 1319h495l-278 -1319h-496z" />
<glyph unicode="J" horiz-adv-x="946" d="M-119 27l86 411q90 -39 221 -39q102 0 143.5 35t61.5 129l160 756h496l-187 -877q-49 -233 -203.5 -347.5t-457.5 -114.5q-187 0 -320 47z" />
<glyph unicode="K" horiz-adv-x="1486" d="M-43 0l279 1319h495l-78 -369l367 369h559l-565 -547l327 -772h-524l-174 459l-119 -115l-71 -344h-496z" />
<glyph unicode="L" horiz-adv-x="1095" d="M-43 0l279 1319h495l-199 -942h539l-80 -377h-1034z" />
<glyph unicode="M" horiz-adv-x="1619" d="M-43 0l279 1319h458l154 -545l381 545h483l-278 -1319h-496l98 463l-168 -238h-252l-65 238l-98 -463h-496z" />
<glyph unicode="N" horiz-adv-x="1423" d="M-43 0l279 1319h415l260 -516l109 516h496l-279 -1319h-418l-258 516l-108 -516h-496z" />
<glyph unicode="O" horiz-adv-x="1474" d="M31 451q0 92 24 208q78 365 286 522.5t566 157.5q283 0 434.5 -110.5t151.5 -354.5q0 -94 -25 -215q-78 -365 -283.5 -522t-568.5 -157q-278 0 -431.5 112.5t-153.5 358.5zM545 530q0 -72 36.5 -101.5t125.5 -29.5q108 0 166.5 58.5t89.5 201.5q18 92 18 129 q0 72 -38 102t-126 30q-109 0 -167 -58.5t-89 -202.5q-16 -82 -16 -129z" />
<glyph unicode="P" horiz-adv-x="1302" d="M-43 0l279 1319h741q197 0 301 -106.5t104 -278.5q0 -66 -14 -129q-49 -229 -204.5 -369.5t-411.5 -140.5h-238l-61 -295h-496zM596 682h121q59 0 97 33t50 90q6 25 6 43q0 84 -92 84h-129z" />
<glyph unicode="Q" horiz-adv-x="1474" d="M31 449q0 94 24 210q78 365 286 522.5t566 157.5q283 0 434.5 -110.5t151.5 -354.5q0 -94 -25 -215q-68 -319 -233.5 -479t-443.5 -190q0 -35 26.5 -47.5t87.5 -12.5q78 0 154 25l-60 -274q-47 -14 -123.5 -23.5t-154.5 -9.5q-156 0 -238 74.5t-82 203.5q0 35 7 72 q-377 76 -377 451zM545 530q0 -72 36.5 -101.5t125.5 -29.5q108 0 166.5 58.5t89.5 201.5q18 92 18 129q0 72 -38 102t-126 30q-109 0 -167 -58.5t-89 -202.5q-16 -82 -16 -129z" />
<glyph unicode="R" horiz-adv-x="1343" d="M-43 0l279 1319h741q188 0 297.5 -105.5t109.5 -273.5q0 -55 -12 -115q-53 -256 -317 -399q18 -16 27.5 -30.5t13.5 -37.5l80 -358h-517l-67 293q-4 23 -15.5 33t-33.5 10h-21l-69 -336h-496zM606 723h121q121 0 141 102q4 25 4 35q0 37 -22.5 54.5t-71.5 17.5h-129z" />
<glyph unicode="S" horiz-adv-x="1146" d="M-57 72l77 370q88 -47 202 -77.5t208 -30.5q66 0 104.5 17.5t38.5 49.5q0 20 -23.5 34t-84.5 36q-57 18 -105 39q-137 57 -199.5 127t-62.5 176q0 55 15 115q45 213 201.5 312t465.5 99q96 0 218 -19.5t202 -43.5l-80 -373q-176 80 -332 80q-170 0 -170 -57 q0 -18 26 -30.5t97 -33.5l56 -16q166 -51 235.5 -127t69.5 -191q0 -55 -17 -133q-45 -201 -204.5 -308t-472.5 -107q-142 0 -265 23.5t-200 68.5z" />
<glyph unicode="T" horiz-adv-x="1146" d="M78 963l76 356h1167l-76 -356h-336l-202 -963h-496l203 963h-336z" />
<glyph unicode="U" horiz-adv-x="1441" d="M45 410q0 57 12 118l168 791h496l-156 -735q-12 -51 -12 -88q0 -55 31.5 -76t105.5 -21q92 0 137 43t66 142l156 735h495l-170 -799q-55 -266 -249.5 -403t-524.5 -137q-256 0 -405.5 115.5t-149.5 314.5z" />
<glyph unicode="V" horiz-adv-x="1591" d="M195 1319h501l92 -733l406 733h530l-786 -1319h-514z" />
<glyph unicode="W" horiz-adv-x="1865" d="M195 1319h483l-6 -504l135 281l47 223h403l41 -506l220 506h481l-584 -1319h-418l-49 520l-278 -520h-447z" />
<glyph unicode="X" horiz-adv-x="1656" d="M-84 0l641 674l-338 645h592l129 -244l234 244h591l-612 -645l358 -674h-600l-141 268l-254 -268h-600z" />
<glyph unicode="Y" horiz-adv-x="1511" d="M195 1319h501l121 -420l297 420h531l-656 -840l-100 -479h-496l101 479z" />
<glyph unicode="Z" horiz-adv-x="1200" d="M-84 0l51 244l625 669h-455l86 406h1108l-59 -281l-617 -661h490l-80 -377h-1149z" />
<glyph unicode="[" horiz-adv-x="811" d="M-127 -203l350 1649h756l-70 -377h-272l-188 -895h274l-94 -377h-756z" />
<glyph unicode="\" horiz-adv-x="1093" d="M203 1356h516l205 -1467h-514z" />
<glyph unicode="]" horiz-adv-x="811" d="M-135 -203l67 377h275l188 895h-272l94 377h756l-352 -1649h-756z" />
<glyph unicode="^" horiz-adv-x="1159" d="M74 743l485 535h330l282 -535h-438l-59 179l-131 -179h-469z" />
<glyph unicode="_" horiz-adv-x="1040" d="M-150 -315l66 315h979l-68 -315h-977z" />
<glyph unicode="`" horiz-adv-x="679" d="M260 1532h381l98 -463h-362z" />
<glyph unicode="a" horiz-adv-x="1286" d="M-8 299q0 57 16 143q55 262 204.5 405.5t379.5 143.5q72 0 127 -19.5t88 -51.5l10 51h488l-205 -971h-430l-11 63q-63 -39 -145 -61t-170 -22q-168 0 -260 79.5t-92 239.5zM512 403q0 -41 19.5 -55t56.5 -14q51 0 92 31l51 241q-16 16 -33.5 23.5t-44.5 7.5 q-98 0 -135 -178q-6 -33 -6 -56z" />
<glyph unicode="b" horiz-adv-x="1286" d="M-43 0l293 1380h495l-90 -426q43 16 103.5 26.5t113.5 10.5q391 0 392 -338q0 -70 -19 -159q-55 -260 -196.5 -387t-372.5 -127h-3q-146 0 -251 83l-35 -63h-430zM528 365q18 -16 36 -23.5t44 -7.5q47 0 79 33.5t50 117.5q8 39 8 72q0 43 -18 61.5t-53 18.5 q-27 0 -48.5 -7t-45.5 -24z" />
<glyph unicode="c" horiz-adv-x="1064" d="M4 365q0 45 14 120q55 256 235.5 381t475.5 125q119 0 211 -16.5t170 -54.5l-74 -345q-111 61 -270 62q-109 0 -167 -35t-75 -117q-6 -31 -6 -53q0 -53 42 -75.5t145 -22.5q139 0 301 78l-76 -361q-94 -39 -192.5 -55t-219.5 -16q-231 0 -372.5 98t-141.5 287z" />
<glyph unicode="d" horiz-adv-x="1286" d="M0 332q0 70 18 155q57 268 198.5 386t385.5 118q53 0 110.5 -10t94.5 -27l90 426h496l-293 -1380h-430l-11 63q-133 -83 -286 -83h-4q-170 0 -269.5 89t-99.5 263zM514 410q0 -43 18.5 -59.5t55.5 -16.5q47 0 92 31l51 241q-16 16 -33.5 23.5t-44.5 7.5q-98 0 -131 -158 q-8 -35 -8 -69z" />
<glyph unicode="e" horiz-adv-x="1161" d="M4 377q0 49 12 104q53 248 207 379t453 131q137 0 241.5 -48t161 -134t56.5 -197q0 -39 -11 -94l-34 -166h-648q25 -41 85.5 -61.5t183.5 -20.5q86 0 175 14.5t148 34.5l-57 -266q-166 -73 -455 -73h-8q-141 0 -258 46t-184.5 136t-67.5 215zM496 600h223l4 18q2 6 2 19 q0 61 -94 61q-111 0 -135 -98z" />
<glyph unicode="f" horiz-adv-x="768" d="M-10 0l129 614h-115l76 357h115l6 30q41 203 159.5 307.5t341.5 104.5q172 0 289 -55l-63 -307q-55 20 -119 20q-49 0 -78 -21.5t-37 -60.5l-4 -18h211l-96 -357h-191l-129 -614h-495z" />
<glyph unicode="g" horiz-adv-x="1286" d="M-6 -340l69 322q37 -10 103.5 -18.5t112.5 -8.5q162 0 242.5 17.5t88.5 58.5l4 18q-45 -16 -105 -26.5t-114 -10.5q-193 0 -295 78t-102 236q0 72 16 139q57 256 209 391t367 135q84 0 142.5 -21.5t107.5 -62.5l34 64h431l-175 -824q-35 -168 -127 -279.5t-266 -169.5 t-450 -58q-56 0 -156 6t-137 14zM512 403q0 -41 19.5 -55t56.5 -14q28 0 48.5 7t43.5 24l51 241q-16 16 -30.5 23.5t-41.5 7.5q-47 0 -82.5 -40t-54.5 -124q-10 -47 -10 -70z" />
<glyph unicode="h" horiz-adv-x="1282" d="M-43 0l293 1380h495l-96 -446q51 25 123 41t143 16q162 0 246 -71.5t84 -206.5q0 -53 -12 -115l-127 -598h-496l117 557q2 10 2 25q0 45 -53 45q-23 0 -52.5 -12.5t-48.5 -28.5l-122 -586h-496z" />
<glyph unicode="i" horiz-adv-x="774" d="M86 614l117 357h590l-205 -971h-496l129 614h-135zM281 1051l71 342h531l-72 -342h-530z" />
<glyph unicode="j" horiz-adv-x="772" d="M-217 -424l63 307q55 -20 119 -20q92 0 113 82l141 669h-135l117 357h590l-226 -1059q-39 -184 -154.5 -287.5t-340.5 -103.5q-170 0 -287 55zM279 1051l71 342h531l-72 -342h-530z" />
<glyph unicode="k" horiz-adv-x="1353" d="M-43 0l293 1380h495l-129 -604l220 195h557l-471 -420l286 -551h-524l-125 293l-55 -51l-51 -242h-496z" />
<glyph unicode="l" horiz-adv-x="751" d="M14 223q0 51 13 109l223 1048h495l-208 -983q-4 -25 -5 -30q0 -23 13.5 -34t46.5 -11q57 0 106 18l-65 -307q-76 -29 -136.5 -41t-156.5 -12q-164 0 -245 60t-81 183z" />
<glyph unicode="m" horiz-adv-x="1779" d="M-43 0l205 971h459l-3 -60q160 80 316 80q152 0 201 -90q80 45 163.5 67.5t184.5 22.5q129 0 196.5 -64.5t67.5 -185.5q0 -51 -12 -116l-131 -625h-486l119 565l4 27q0 18 -10 26.5t-37 8.5q-35 0 -64 -27l-126 -600h-457l121 578q2 8 2 20q0 29 -35 29q-41 0 -78 -37 l-125 -590h-475z" />
<glyph unicode="n" horiz-adv-x="1282" d="M-43 0l205 971h465v-56q63 31 159.5 53.5t196.5 22.5q131 0 199.5 -61.5t68.5 -184.5q0 -57 -14 -120l-131 -625h-496l119 561q2 8 2 21q0 45 -55 45q-23 0 -52.5 -12.5t-48.5 -28.5l-122 -586h-496z" />
<glyph unicode="o" horiz-adv-x="1284" d="M4 356q0 63 14 129q55 254 229.5 380t487.5 126q252 0 386 -95t134 -282q0 -63 -14 -129q-55 -256 -228 -380.5t-493 -124.5q-248 0 -382 95t-134 281zM516 414q0 -43 19.5 -61.5t60.5 -18.5q55 0 88 33.5t51 117.5q8 39 8 70q0 45 -20.5 63.5t-60.5 18.5q-53 0 -86 -34 t-52 -118q-8 -39 -8 -71z" />
<glyph unicode="p" horiz-adv-x="1286" d="M-129 -410l291 1381h430l10 -64q66 41 135.5 62.5t153.5 21.5q178 0 272 -92t94 -268q0 -74 -14 -148q-45 -258 -192.5 -380.5t-393.5 -122.5q-53 0 -109 10t-93 26l-90 -426h-494zM528 365q16 -16 35 -23.5t45 -7.5q47 0 80 37t51 121q8 35 9 69q0 43 -18.5 59.5 t-55.5 16.5q-27 0 -47.5 -7t-46.5 -24z" />
<glyph unicode="q" horiz-adv-x="1449" d="M2 334q0 61 16 149q49 254 201 381t371 127q84 0 142.5 -21.5t107.5 -62.5l34 64h431l-224 -1049q-4 -25 -4 -31q0 -23 12.5 -34t38.5 -11q55 0 105 19l-64 -307q-76 -29 -136 -41.5t-156 -12.5q-152 0 -233 71t-81 194q0 37 10 88l33 159q-43 -16 -104.5 -26t-114.5 -10 q-184 0 -284.5 88t-100.5 266zM516 416q0 -82 72 -82q28 0 48.5 7t43.5 24l51 241q-16 16 -30.5 23.5t-41.5 7.5q-49 0 -82.5 -32t-50.5 -113q-10 -51 -10 -76z" />
<glyph unicode="r" horiz-adv-x="878" d="M-43 0l205 971h485v-56q63 31 154.5 53.5t181.5 22.5l-76 -364q-82 0 -178 -11.5t-154 -29.5l-122 -586h-496z" />
<glyph unicode="s" horiz-adv-x="1038" d="M-66 49l66 313q61 -37 162.5 -59t173.5 -22q61 0 85.5 3t29.5 19q2 12 -20.5 22.5t-72.5 22.5q-86 25 -110 35q-104 41 -151.5 90t-47.5 127q0 39 8 74q35 160 175.5 238.5t416.5 78.5q98 0 215 -14t174 -35l-65 -311q-59 27 -132 43t-130 16q-70 0 -108 -4t-42 -22 q-2 -10 19.5 -19.5t72.5 -21.5q55 -12 97 -25q115 -37 166 -87t51 -128q0 -33 -11 -80q-70 -323 -584 -323h-3q-136 0 -255.5 19t-179.5 50z" />
<glyph unicode="t" horiz-adv-x="811" d="M4 614l76 357h117l41 190l516 101l-62 -291h199l-86 -357h-189l-43 -206q-2 -8 -2 -25q0 -61 80 -61q66 0 127 20l-65 -307q-141 -55 -314 -55q-163 0 -251.5 77.5t-88.5 216.5q0 51 13 107l49 233h-117z" />
<glyph unicode="u" horiz-adv-x="1282" d="M8 252q0 49 12 104l132 615h495l-119 -561q-2 -8 -2 -23q0 -43 56 -43q23 0 52.5 12.5t45.5 28.5l125 586h495l-204 -971h-465v55q-63 -35 -151.5 -55t-182.5 -20q-133 0 -211 70.5t-78 201.5z" />
<glyph unicode="v" horiz-adv-x="1345" d="M121 971h502l30 -447l221 447h531l-590 -971h-514z" />
<glyph unicode="w" horiz-adv-x="1667" d="M121 971h471l12 -332l101 180l30 152h357l16 -332l147 332h471l-462 -971h-422l-41 313l-172 -313h-455z" />
<glyph unicode="x" horiz-adv-x="1355" d="M-84 0l481 494l-260 477h535l69 -127l123 127h535l-463 -477l274 -494h-540l-78 139l-135 -139h-541z" />
<glyph unicode="y" horiz-adv-x="1282" d="M-10 -340l69 322q39 -10 102.5 -18.5t112.5 -8.5q164 0 256.5 28.5t100.5 71.5l8 33q-66 -35 -153 -55.5t-181 -20.5q-133 0 -210 74t-77 203q0 57 11 100l123 582h495l-112 -529q-2 -6 -3 -18q0 -47 58 -47q23 0 52.5 12t45.5 29l117 553h495l-172 -811 q-53 -256 -247.5 -388t-597.5 -132q-56 0 -156 6t-137 14z" />
<glyph unicode="z" horiz-adv-x="1036" d="M-84 0l53 260l398 332h-316l80 379h948l-61 -287l-379 -328h326l-74 -356h-975z" />
<glyph unicode="{" horiz-adv-x="714" d="M-27 471l60 279q57 8 92 42.5t49 106.5l43 207q37 168 121 249t256 81h301l-82 -377h-68q-61 0 -77 -68l-39 -184q-14 -66 -46 -113t-81 -84q51 -61 51 -133q0 -18 -8 -63l-37 -183q-2 -8 -2 -20q0 -47 51 -47h68l-82 -377h-301q-111 0 -177.5 63.5t-66.5 176.5 q0 35 10 90l43 207q6 31 6 55q0 43 -20.5 64.5t-63.5 27.5z" />
<glyph unicode="|" horiz-adv-x="557" d="M-135 -246l371 1751h495l-373 -1751h-493z" />
<glyph unicode="}" horiz-adv-x="714" d="M-150 -213l80 377h68q63 0 78 67l37 183q14 66 47 112.5t82 83.5q-51 61 -52 135q0 29 7 62l39 184q2 8 2 21q0 47 -52 47h-67l82 377h301q248 0 248 -217q0 -41 -15 -113l-43 -207q-6 -33 -6 -57q0 -43 19.5 -64.5t62.5 -27.5l-59 -279q-57 -8 -91 -42t-49 -105 l-43 -207q-37 -168 -118.5 -249t-257.5 -81h-300z" />
<glyph unicode="~" horiz-adv-x="1058" d="M-6 369l88 415q43 47 115.5 73t152.5 26q63 0 121.5 -17.5t128.5 -50.5q76 -31 124 -46t103 -15q80 0 144.5 26.5t126.5 87.5l-90 -415q-43 -47 -115 -73t-152 -26q-59 0 -110 16.5t-129 49.5t-128 48t-108 15q-82 0 -147.5 -26.5t-124.5 -87.5z" />
<glyph unicode="&#xa1;" horiz-adv-x="573" d="M-84 -195l78 369l129 543h467l-101 -543l-77 -369h-496zM115 782l71 342h512l-71 -342h-512z" />
<glyph unicode="&#xa2;" horiz-adv-x="1064" d="M6 381q0 49 12 104q39 186 155 304t292 167l41 191h430l-37 -166q115 -14 211 -61l-74 -345q-111 61 -270 62q-109 0 -167 -35t-75 -117q-6 -27 -6 -51q0 -53 43 -76.5t144 -23.5q139 0 301 78l-76 -361q-111 -45 -242 -61l-35 -166h-430l41 196q-113 45 -185.5 137.5 t-72.5 223.5z" />
<glyph unicode="&#xa3;" horiz-adv-x="985" d="M-84 0l74 356h47q68 0 82 66l14 67h-115l76 357h115l18 82q47 203 166 307t336 104q172 0 289 -55l-66 -307q-55 20 -118 20q-96 0 -113 -82l-16 -69h210l-96 -357h-190l-6 -34q-8 -35 -21.5 -56.5t-38.5 -42.5h350l-73 -356h-924z" />
<glyph unicode="&#xa4;" horiz-adv-x="1175" d="M-20 305l176 111q-4 33 -4 49q0 39 10 86q12 68 51 135l-127 113l266 256l135 -129q86 37 187 37q104 0 176 -39l192 127l156 -254l-178 -111q4 -33 4 -53q0 -29 -8 -82q-14 -61 -53 -133l127 -117l-261 -252l-139 127q-94 -39 -188 -39q-92 0 -172 37l-193 -127z M489 526q0 -31 19.5 -49t58.5 -18q41 0 75 27.5t42 66.5q2 8 2 25q0 33 -19.5 52t-58.5 19t-72.5 -27.5t-41.5 -68.5q-4 -20 -5 -27z" />
<glyph unicode="&#xa5;" horiz-adv-x="1511" d="M164 113l49 231h252l20 94h-252l50 232h143l-231 649h501l121 -420l297 420h531l-508 -649h141l-49 -232h-248l-20 -94h247l-49 -231h-248l-22 -113h-496l23 113h-252z" />
<glyph unicode="&#xa6;" horiz-adv-x="557" d="M-135 -246l160 762h495l-162 -762h-493zM74 743l162 762h495l-162 -762h-495z" />
<glyph unicode="&#xa7;" horiz-adv-x="1146" d="M-57 72l77 370q88 -47 202 -77.5t208 -30.5q68 0 105.5 17.5t37.5 49.5q0 23 -27.5 37.5t-96.5 38.5l-89 33q-135 53 -199.5 121.5t-64.5 173.5q0 51 10 92q6 39 30 79t50 71q-20 41 -20 98q0 29 6 55q78 367 655 367q96 0 219 -19.5t203 -44.5l-80 -373q-178 80 -333 80 q-168 0 -168 -57q0 -18 25.5 -30.5t97.5 -32.5l55 -17q166 -51 238.5 -119.5t72.5 -173.5q0 -35 -10 -90q-10 -49 -35 -96t-51 -72q25 -37 24 -98q0 -18 -4 -47q-41 -190 -213 -293.5t-460 -103.5q-142 0 -265 23.5t-200 68.5zM492 838q0 -25 34.5 -42.5t114.5 -43.5 q70 -23 103.5 -36.5t46.5 -29.5q8 11 10 23q6 29 -32 51t-126 51q-12 4 -49 15.5t-60.5 22.5t-31.5 21q-10 -20 -10 -32z" />
<glyph unicode="&#xa8;" horiz-adv-x="903" d="M150 1106l71 330h361l-72 -330h-360zM631 1106l71 330h361l-72 -330h-360z" />
<glyph unicode="&#xa9;" horiz-adv-x="1421" d="M39 516q0 66 16 143q43 197 161 351.5t291 241.5t374 87q160 0 284.5 -70.5t194.5 -193.5t70 -274q0 -72 -15 -142q-41 -195 -158.5 -349t-289.5 -242t-377 -88q-160 0 -286 69.5t-195.5 192.5t-69.5 274zM293 528q0 -145 86 -226t262 -81q195 0 338 121t184 317 q14 66 15 129q0 147 -87 228.5t-264 81.5q-127 0 -235.5 -55.5t-183 -155t-101.5 -228.5q-14 -66 -14 -131zM367 575q0 35 10 87q37 174 155.5 274t288.5 100q78 0 133.5 -22.5t106.5 -65.5l-43 -205q-41 29 -80 42.5t-86 13.5q-57 0 -102 -31t-60 -106q-6 -31 -6 -56 q0 -45 24.5 -62.5t84.5 -17.5q102 0 196 66l-47 -217q-135 -86 -278 -86q-127 0 -212 77.5t-85 208.5z" />
<glyph unicode="&#xaa;" horiz-adv-x="677" d="M113 909q0 23 6 49q37 182 272 183h121l2 6q2 14 -20.5 23.5t-69.5 9.5q-94 0 -197 -29l31 147q49 18 120 29.5t136 11.5q129 0 194.5 -46t65.5 -130q0 -23 -6 -51l-68 -321h-241l-6 36q-70 -49 -183 -49q-71 0 -114 33t-43 98zM373 954q0 -27 33 -26q36 -1 65 24l12 52 h-49q-27 0 -41 -8.5t-18 -28.5q-2 -4 -2 -13z" />
<glyph unicode="&#xab;" horiz-adv-x="1470" d="M20 496l35 168l660 419l127 -282l-369 -236l268 -235l-241 -254zM676 496l35 168l659 419l127 -282l-369 -236l269 -235l-242 -254z" />
<glyph unicode="&#xac;" horiz-adv-x="1011" d="M4 420l80 377h950l-125 -588h-377l46 211h-574z" />
<glyph unicode="&#xad;" horiz-adv-x="888" d="M4 420l80 377h827l-80 -377h-827z" />
<glyph unicode="&#xae;" horiz-adv-x="1421" d="M39 516q0 66 16 143q43 197 161 351.5t291 241.5t374 87q160 0 284.5 -70.5t194.5 -193.5t70 -274q0 -72 -15 -142q-41 -195 -158.5 -349t-289.5 -242t-377 -88q-160 0 -286 69.5t-195.5 192.5t-69.5 274zM293 528q0 -145 86 -226t262 -81q195 0 338 121t184 317 q14 66 15 129q0 147 -87 228.5t-264 81.5q-127 0 -235.5 -55.5t-183 -155t-101.5 -228.5q-14 -66 -14 -131zM389 346l137 643h381q100 0 150.5 -47t50.5 -127q0 -35 -8 -65q-27 -139 -170 -203q14 -14 16 -35l17 -166h-244l-10 143q0 23 -19 23h-8l-37 -166h-256zM721 700 h53q61 0 70 50q2 6 2 14q0 16 -12.5 25.5t-32.5 9.5h-60z" />
<glyph unicode="&#xaf;" horiz-adv-x="608" d="M74 1135l61 286h715l-62 -286h-714z" />
<glyph unicode="&#xb0;" horiz-adv-x="583" d="M176 1194q0 29 6 59q25 119 110 185.5t204 66.5q96 0 155.5 -51t59.5 -141q0 -29 -6 -60q-27 -117 -112 -183t-204 -66q-92 0 -152.5 51t-60.5 139zM375 1235q0 -20 13 -33.5t40 -13.5t50.5 18.5t29.5 46.5l2 17q0 49 -55 49q-29 0 -51.5 -19.5t-26.5 -46.5q-2 -6 -2 -18 z" />
<glyph unicode="&#xb1;" horiz-adv-x="929" d="M-84 0l80 377h868l-80 -377h-868zM57 668l80 376h244l47 216h377l-47 -216h248l-80 -376h-248l-45 -215h-377l45 215h-244z" />
<glyph unicode="&#xb2;" horiz-adv-x="643" d="M76 758l26 125q37 33 67 53t81 51q61 35 77.5 50.5t20.5 35.5t-11 27.5t-48 7.5q-27 0 -66 -11.5t-76 -27.5l50 223q53 18 136 32.5t161 14.5q115 0 182 -41t67 -110q0 -10 -4 -31q-10 -47 -32.5 -77.5t-61.5 -59.5l-63 -45h123l-48 -217h-581z" />
<glyph unicode="&#xb3;" horiz-adv-x="653" d="M80 776l37 174q35 -18 79 -27.5t83 -9.5q76 0 81 31v6q0 10 -10 14.5t-37 4.5h-84l41 145h70q31 0 41 5t10 22q0 12 -15.5 17t-49.5 5q-41 0 -85 -9t-77 -26l37 175q41 14 124 25t144 11q135 0 205.5 -42t70.5 -109q0 -18 -2 -27q-8 -37 -24.5 -63.5t-46.5 -57.5 q37 -27 37 -73q0 -10 -4 -39q-39 -186 -365 -187q-47 0 -137 10.5t-123 24.5z" />
<glyph unicode="&#xb4;" horiz-adv-x="679" d="M162 1069l295 463h381l-314 -463h-362z" />
<glyph unicode="&#xb6;" horiz-adv-x="1388" d="M106 834q0 57 17 143q49 238 214 357.5t390 119.5h823l-342 -1612h-413l266 1256h-107l-266 -1256h-405l143 676q-150 0 -235 80t-85 236z" />
<glyph unicode="&#xb7;" horiz-adv-x="442" d="M4 416l74 346h381l-74 -346h-381z" />
<glyph unicode="&#xb8;" horiz-adv-x="466" d="M-227 -475l34 158q53 -16 113 -17q68 0 107 18.5t45 53.5q14 57 -64 57h-149l100 205h248l-43 -76q86 0 134 -42t48 -109q0 -31 -4 -45q-23 -102 -124 -161t-271 -59q-39 0 -96.5 5.5t-77.5 11.5z" />
<glyph unicode="&#xb9;" horiz-adv-x="475" d="M125 989l55 262l475 88l-125 -581h-358l53 252z" />
<glyph unicode="&#xba;" horiz-adv-x="739" d="M131 991q0 18 8 68q31 141 127 210.5t273 69.5q141 0 213.5 -52t72.5 -152q0 -41 -8 -76q-29 -141 -125 -211t-274 -70q-133 0 -210 54.5t-77 158.5zM416 1022q0 -25 11 -36t34 -11q31 0 49 19.5t27 64.5q6 23 6 39q0 45 -47 45q-31 0 -48.5 -18.5t-27.5 -65.5 q-4 -29 -4 -37z" />
<glyph unicode="&#xbb;" horiz-adv-x="1470" d="M-12 358l370 236l-270 235l242 254l479 -419l-35 -168l-659 -420zM643 358l371 236l-271 235l242 254l479 -419l-34 -168l-660 -420z" />
<glyph unicode="&#xbc;" horiz-adv-x="1460" d="M31 0l962 1319h467l-962 -1319h-467zM125 989l55 262l475 88l-125 -581h-358l53 252zM698 70l41 198l318 314h321l-63 -297h59l-45 -215h-59l-15 -70h-331l14 70h-240zM1001 266h80l21 99z" />
<glyph unicode="&#xbd;" horiz-adv-x="1527" d="M31 0l962 1319h467l-962 -1319h-467zM125 989l55 262l475 88l-125 -581h-358l53 252zM801 0l24 125q37 33 67 53.5t81 50.5q61 35 77.5 50.5t20.5 35.5t-10 27.5t-47 7.5q-27 0 -68 -11t-74 -28l48 224q53 18 136 32.5t161 14.5q119 0 184 -40t65 -112q0 -10 -4 -31 q-10 -47 -31.5 -77.5t-60.5 -59.5l-65 -45h122l-45 -217h-581z" />
<glyph unicode="&#xbe;" horiz-adv-x="1513" d="M80 776l37 174q35 -18 79 -27.5t83 -9.5q76 0 81 31v6q0 10 -10 14.5t-37 4.5h-104l41 145h90q31 0 41 5t10 22q0 12 -15.5 17t-49.5 5q-41 0 -85 -9t-77 -26l37 175q41 14 124 25t144 11q141 0 210 -39.5t69 -107.5q0 -10 -5 -31q-14 -74 -71 -121q37 -27 37 -73 q0 -10 -4 -39q-39 -186 -365 -187q-47 0 -137 10.5t-123 24.5zM84 0l963 1319h466l-962 -1319h-467zM752 70l41 198l317 314h322l-64 -297h59l-45 -215h-59l-14 -70h-332l14 70h-239zM1055 266h80l20 99z" />
<glyph unicode="&#xbf;" horiz-adv-x="1044" d="M131 115q0 20 8 69q23 111 74 184.5t162 151.5q49 33 74 47q70 47 100.5 73t38.5 60l2 17h450l-6 -31q-18 -92 -58 -142t-147 -128l-47 -35q-66 -45 -91 -71.5t-34 -65.5q-2 -8 -2 -23q0 -82 156 -82q82 0 169 24.5t150 57.5l-73 -342q-94 -45 -218 -69.5t-249 -24.5 q-209 0 -334 90t-125 240zM573 782l72 342h512l-72 -342h-512z" />
<glyph unicode="&#xc0;" horiz-adv-x="1591" d="M-84 0l786 1319h515l229 -1319h-492l-43 246h-319l-146 -246h-530zM676 1872h381l98 -463h-362zM717 584h201l-48 252z" />
<glyph unicode="&#xc1;" horiz-adv-x="1591" d="M-84 0l786 1319h515l229 -1319h-492l-43 246h-319l-146 -246h-530zM717 584h201l-48 252zM791 1409l294 463h381l-313 -463h-362z" />
<glyph unicode="&#xc2;" horiz-adv-x="1591" d="M-84 0l786 1319h515l229 -1319h-492l-43 246h-319l-146 -246h-530zM477 1409l451 442h289l264 -442h-330l-111 219l-194 -219h-369zM717 584h201l-48 252z" />
<glyph unicode="&#xc3;" horiz-adv-x="1591" d="M-84 0l786 1319h515l229 -1319h-492l-43 246h-319l-146 -246h-530zM573 1425l62 289q39 29 101.5 50.5t123.5 21.5q51 0 96 -11.5t105 -33.5q63 -23 103 -34t87 -11q68 0 126.5 23.5t92.5 60.5l-61 -289q-27 -29 -87 -50.5t-122 -21.5q-49 0 -95 11.5t-118 35.5 q-57 20 -98 31.5t-82 11.5q-131 0 -234 -84zM717 584h201l-48 252z" />
<glyph unicode="&#xc4;" horiz-adv-x="1591" d="M-84 0l786 1319h515l229 -1319h-492l-43 246h-319l-146 -246h-530zM592 1468l61 289h318l-62 -289h-317zM717 584h201l-48 252zM1071 1468l62 289h319l-61 -289h-320z" />
<glyph unicode="&#xc5;" horiz-adv-x="1591" d="M-84 0l786 1319q-27 53 -26 111q0 18 8 67q27 129 126 212t249 83q123 0 191.5 -63.5t68.5 -163.5q0 -23 -8 -68q-20 -104 -94 -180l229 -1317h-492l-43 246h-319l-146 -246h-530zM717 584h201l-48 252zM883 1470q0 -35 22.5 -56t67.5 -21q63 0 99 38.5t36 92.5 q0 35 -22.5 56.5t-67.5 21.5q-63 0 -99 -39t-36 -93z" />
<glyph unicode="&#xc6;" horiz-adv-x="1789" d="M-84 0l786 1319h1221l-76 -356h-456l-25 -119h379l-78 -369h-379l-26 -119h456l-73 -356h-932l51 246h-186l-146 -246h-516zM702 584h134l79 379h-12z" />
<glyph unicode="&#xc7;" horiz-adv-x="1265" d="M35 489q0 68 20 170q70 332 313.5 506t616.5 174q121 0 214 -17t185 -54l-92 -432q-88 45 -176 65.5t-188 20.5q-162 0 -249 -58.5t-118 -204.5q-10 -41 -10 -90q0 -94 64.5 -133t205.5 -39q100 0 196.5 20.5t205.5 65.5l-93 -432q-170 -57 -339 -67l-33 -60 q86 0 134 -42t48 -109q0 -31 -4 -45q-23 -102 -123 -161t-270 -59q-39 0 -97.5 5.5t-78.5 11.5l34 158q53 -16 115 -17q68 0 107 18.5t45 53.5q14 57 -64 57h-151l94 195q-242 31 -377 156.5t-135 342.5z" />
<glyph unicode="&#xc8;" horiz-adv-x="1140" d="M-43 0l279 1319h1054l-76 -356h-559l-24 -119h481l-78 -369h-481l-27 -119h559l-73 -356h-1055zM522 1872h381l98 -463h-362z" />
<glyph unicode="&#xc9;" horiz-adv-x="1140" d="M-43 0l279 1319h1054l-76 -356h-559l-24 -119h481l-78 -369h-481l-27 -119h559l-73 -356h-1055zM549 1409l295 463h381l-314 -463h-362z" />
<glyph unicode="&#xca;" horiz-adv-x="1140" d="M-43 0l279 1319h1054l-76 -356h-559l-24 -119h481l-78 -369h-481l-27 -119h559l-73 -356h-1055zM283 1409l450 442h289l264 -442h-330l-110 219l-195 -219h-368z" />
<glyph unicode="&#xcb;" horiz-adv-x="1140" d="M-43 0l279 1319h1054l-76 -356h-559l-24 -119h481l-78 -369h-481l-27 -119h559l-73 -356h-1055zM403 1470l62 289h317l-61 -289h-318zM883 1470l61 289h320l-62 -289h-319z" />
<glyph unicode="&#xcc;" horiz-adv-x="638" d="M-43 0l279 1319h495l-278 -1319h-496zM203 1872h381l98 -463h-363z" />
<glyph unicode="&#xcd;" horiz-adv-x="638" d="M-43 0l279 1319h495l-278 -1319h-496zM313 1409l295 463h381l-313 -463h-363z" />
<glyph unicode="&#xce;" horiz-adv-x="638" d="M-43 0l279 1319h495l-278 -1319h-496zM2 1409l451 442h288l265 -442h-330l-111 219l-194 -219h-369z" />
<glyph unicode="&#xcf;" horiz-adv-x="638" d="M-43 0l279 1319h495l-278 -1319h-496zM121 1491l61 289h318l-62 -289h-317zM600 1491l62 289h319l-61 -289h-320z" />
<glyph unicode="&#xd0;" horiz-adv-x="1503" d="M39 487l67 316h111l109 516h626q164 0 292 -59.5t200 -173t72 -269.5q0 -68 -21 -166q-51 -231 -150.5 -373.5t-261 -210t-409.5 -67.5h-627l103 487h-111zM623 377h73q86 0 141.5 21.5t92.5 81t61 171.5q16 72 17 131q0 80 -44 105.5t-155 25.5h-74l-24 -110h188 l-68 -316h-186z" />
<glyph unicode="&#xd1;" horiz-adv-x="1423" d="M-43 0l279 1319h415l260 -516l109 516h496l-279 -1319h-418l-258 516l-108 -516h-496zM502 1425l61 289q39 29 101.5 50.5t123.5 21.5q51 0 96.5 -11.5t104.5 -33.5q63 -23 103.5 -34t87.5 -11q68 0 126 23.5t93 60.5l-62 -289q-27 -29 -87 -50.5t-122 -21.5 q-49 0 -95 11.5t-118 35.5q-57 20 -98 31.5t-82 11.5q-131 0 -233 -84z" />
<glyph unicode="&#xd2;" horiz-adv-x="1474" d="M31 451q0 92 24 208q78 365 286 522.5t566 157.5q283 0 434.5 -110.5t151.5 -354.5q0 -94 -25 -215q-78 -365 -283.5 -522t-568.5 -157q-278 0 -431.5 112.5t-153.5 358.5zM545 530q0 -72 36.5 -101.5t125.5 -29.5q108 0 166.5 58.5t89.5 201.5q18 92 18 129 q0 72 -38 102t-126 30q-109 0 -167 -58.5t-89 -202.5q-16 -82 -16 -129zM635 1872h381l98 -463h-362z" />
<glyph unicode="&#xd3;" horiz-adv-x="1474" d="M31 451q0 92 24 208q78 365 286 522.5t566 157.5q283 0 434.5 -110.5t151.5 -354.5q0 -94 -25 -215q-78 -365 -283.5 -522t-568.5 -157q-278 0 -431.5 112.5t-153.5 358.5zM545 530q0 -72 36.5 -101.5t125.5 -29.5q108 0 166.5 58.5t89.5 201.5q18 92 18 129 q0 72 -38 102t-126 30q-109 0 -167 -58.5t-89 -202.5q-16 -82 -16 -129zM700 1409l295 463h381l-313 -463h-363z" />
<glyph unicode="&#xd4;" horiz-adv-x="1474" d="M31 451q0 92 24 208q78 365 286 522.5t566 157.5q283 0 434.5 -110.5t151.5 -354.5q0 -94 -25 -215q-78 -365 -283.5 -522t-568.5 -157q-278 0 -431.5 112.5t-153.5 358.5zM420 1409l450 442h289l264 -442h-329l-111 219l-195 -219h-368zM545 530q0 -72 36.5 -101.5 t125.5 -29.5q108 0 166.5 58.5t89.5 201.5q18 92 18 129q0 72 -38 102t-126 30q-109 0 -167 -58.5t-89 -202.5q-16 -82 -16 -129z" />
<glyph unicode="&#xd5;" horiz-adv-x="1474" d="M31 451q0 92 24 208q78 365 286 522.5t566 157.5q283 0 434.5 -110.5t151.5 -354.5q0 -94 -25 -215q-78 -365 -283.5 -522t-568.5 -157q-278 0 -431.5 112.5t-153.5 358.5zM524 1466l62 289q39 29 101.5 50.5t123.5 21.5q51 0 96 -11.5t105 -33.5q63 -23 103 -34t87 -11 q68 0 126 23.5t93 60.5l-61 -289q-27 -29 -87.5 -50.5t-121.5 -21.5q-49 0 -95 11.5t-118 35.5q-57 20 -98 31.5t-82 11.5q-131 0 -234 -84zM545 530q0 -72 36.5 -101.5t125.5 -29.5q108 0 166.5 58.5t89.5 201.5q18 92 18 129q0 72 -38 102t-126 30q-109 0 -167 -58.5 t-89 -202.5q-16 -82 -16 -129z" />
<glyph unicode="&#xd6;" horiz-adv-x="1474" d="M31 451q0 92 24 208q78 365 286 522.5t566 157.5q283 0 434.5 -110.5t151.5 -354.5q0 -94 -25 -215q-78 -365 -283.5 -522t-568.5 -157q-278 0 -431.5 112.5t-153.5 358.5zM535 1470l61 289h317l-61 -289h-317zM545 530q0 -72 36.5 -101.5t125.5 -29.5q108 0 166.5 58.5 t89.5 201.5q18 92 18 129q0 72 -38 102t-126 30q-109 0 -167 -58.5t-89 -202.5q-16 -82 -16 -129zM1014 1470l61 289h320l-62 -289h-319z" />
<glyph unicode="&#xd7;" horiz-adv-x="899" d="M-6 342l215 176l-146 184l289 238l140 -186l225 182l184 -236l-223 -184l145 -184l-282 -234l-144 185l-215 -177z" />
<glyph unicode="&#xd8;" horiz-adv-x="1474" d="M31 449q0 94 24 210q78 365 286 522.5t566 157.5q86 0 187 -14l59 94h158l-82 -131q264 -100 264 -414q0 -94 -25 -215q-78 -365 -283.5 -522t-568.5 -157q-96 0 -190 16l-64 -105h-157l88 142q-262 104 -262 416zM535 539q0 -53 18 -88l297 479q-10 2 -31 2 q-115 0 -175 -61.5t-93 -211.5q-16 -76 -16 -120zM670 387h35q115 0 175 61.5t93 210.5q14 66 14 121t-18 90z" />
<glyph unicode="&#xd9;" horiz-adv-x="1441" d="M45 410q0 57 12 118l168 791h496l-156 -735q-12 -51 -12 -88q0 -55 31.5 -76t105.5 -21q92 0 137 43t66 142l156 735h495l-170 -799q-55 -266 -249.5 -403t-524.5 -137q-256 0 -405.5 115.5t-149.5 314.5zM608 1872h381l98 -463h-362z" />
<glyph unicode="&#xda;" horiz-adv-x="1441" d="M45 410q0 57 12 118l168 791h496l-156 -735q-12 -51 -12 -88q0 -55 31.5 -76t105.5 -21q92 0 137 43t66 142l156 735h495l-170 -799q-55 -266 -249.5 -403t-524.5 -137q-256 0 -405.5 115.5t-149.5 314.5zM725 1409l295 463h381l-314 -463h-362z" />
<glyph unicode="&#xdb;" horiz-adv-x="1441" d="M45 410q0 57 12 118l168 791h496l-156 -735q-12 -51 -12 -88q0 -55 31.5 -76t105.5 -21q92 0 137 43t66 142l156 735h495l-170 -799q-55 -266 -249.5 -403t-524.5 -137q-256 0 -405.5 115.5t-149.5 314.5zM403 1409l451 442h289l264 -442h-330l-110 219l-195 -219h-369z " />
<glyph unicode="&#xdc;" horiz-adv-x="1441" d="M45 410q0 57 12 118l168 791h496l-156 -735q-12 -51 -12 -88q0 -55 31.5 -76t105.5 -21q92 0 137 43t66 142l156 735h495l-170 -799q-55 -266 -249.5 -403t-524.5 -137q-256 0 -405.5 115.5t-149.5 314.5zM518 1470l62 289h317l-61 -289h-318zM997 1470l62 289h319 l-61 -289h-320z" />
<glyph unicode="&#xdd;" horiz-adv-x="1511" d="M195 1319h501l121 -420l297 420h531l-656 -840l-100 -479h-496l101 479zM758 1409l295 463h381l-314 -463h-362z" />
<glyph unicode="&#xde;" horiz-adv-x="1302" d="M-43 0l279 1319h495l-31 -148h246q190 0 297 -109.5t107 -283.5q0 -59 -13 -121q-49 -229 -204.5 -369.5t-411.5 -140.5h-238l-30 -147h-496zM565 535h121q59 0 97 32.5t51 89.5q4 16 4 43q0 84 -90 84h-130z" />
<glyph unicode="&#xdf;" horiz-adv-x="1345" d="M-53 0l194 918q57 264 227.5 390t465.5 126q180 0 299.5 -53.5t176 -142.5t56.5 -198q0 -43 -10 -94q-41 -188 -182 -278q59 -33 87.5 -76t28.5 -117q0 -33 -6 -76q-63 -420 -553 -419q-78 0 -148.5 12t-105.5 33l68 315q20 -8 56 -13t65 -5q96 0 116 102q2 8 2 22 q0 59 -92 60h-110l65 307h86q131 0 156 107q2 8 2 20q0 76 -121 76q-76 0 -118 -38t-54 -97l-186 -881h-465z" />
<glyph unicode="&#xe0;" horiz-adv-x="1286" d="M-8 299q0 57 16 143q55 262 204.5 405.5t379.5 143.5q72 0 127 -19.5t88 -51.5l10 51h488l-205 -971h-430l-11 63q-63 -39 -145 -61t-170 -22q-168 0 -260 79.5t-92 239.5zM440 1532h381l99 -463h-363zM512 403q0 -41 19.5 -55t56.5 -14q51 0 92 31l51 241 q-16 16 -33.5 23.5t-44.5 7.5q-98 0 -135 -178q-6 -33 -6 -56z" />
<glyph unicode="&#xe1;" horiz-adv-x="1286" d="M-8 299q0 57 16 143q55 262 204.5 405.5t379.5 143.5q72 0 127 -19.5t88 -51.5l10 51h488l-205 -971h-430l-11 63q-63 -39 -145 -61t-170 -22q-168 0 -260 79.5t-92 239.5zM512 403q0 -41 19.5 -55t56.5 -14q51 0 92 31l51 241q-16 16 -33.5 23.5t-44.5 7.5 q-98 0 -135 -178q-6 -33 -6 -56zM537 1069l294 463h381l-313 -463h-362z" />
<glyph unicode="&#xe2;" horiz-adv-x="1286" d="M-8 299q0 57 16 143q55 262 204.5 405.5t379.5 143.5q72 0 127 -19.5t88 -51.5l10 51h488l-205 -971h-430l-11 63q-63 -39 -145 -61t-170 -22q-168 0 -260 79.5t-92 239.5zM231 1069l451 442h289l264 -442h-330l-110 219l-195 -219h-369zM512 403q0 -41 19.5 -55 t56.5 -14q51 0 92 31l51 241q-16 16 -33.5 23.5t-44.5 7.5q-98 0 -135 -178q-6 -33 -6 -56z" />
<glyph unicode="&#xe3;" horiz-adv-x="1286" d="M-8 299q0 57 16 143q55 262 204.5 405.5t379.5 143.5q72 0 127 -19.5t88 -51.5l10 51h488l-205 -971h-430l-11 63q-63 -39 -145 -61t-170 -22q-168 0 -260 79.5t-92 239.5zM354 1085l62 289q39 29 101.5 50.5t123.5 21.5q51 0 96 -11.5t105 -33.5q63 -23 103 -34t87 -11 q68 0 126.5 23.5t92.5 60.5l-61 -289q-27 -29 -87.5 -50.5t-121.5 -21.5q-49 0 -95 11.5t-118 35.5q-57 20 -98 31.5t-82 11.5q-131 0 -234 -84zM512 403q0 -41 19.5 -55t56.5 -14q51 0 92 31l51 241q-16 16 -33.5 23.5t-44.5 7.5q-98 0 -135 -178q-6 -33 -6 -56z" />
<glyph unicode="&#xe4;" horiz-adv-x="1286" d="M-8 299q0 57 16 143q55 262 204.5 405.5t379.5 143.5q72 0 127 -19.5t88 -51.5l10 51h488l-205 -971h-430l-11 63q-63 -39 -145 -61t-170 -22q-168 0 -260 79.5t-92 239.5zM373 1130l61 289h318l-62 -289h-317zM512 403q0 -41 19.5 -55t56.5 -14q51 0 92 31l51 241 q-16 16 -33.5 23.5t-44.5 7.5q-98 0 -135 -178q-6 -33 -6 -56zM852 1130l61 289h320l-62 -289h-319z" />
<glyph unicode="&#xe5;" horiz-adv-x="1286" d="M-8 299q0 57 16 143q55 262 204.5 405.5t379.5 143.5q72 0 127 -19.5t88 -51.5l10 51h488l-205 -971h-430l-11 63q-63 -39 -145 -61t-170 -22q-168 0 -260 79.5t-92 239.5zM508 1296q0 33 6 66q27 129 126 212t249 83q123 0 191.5 -63.5t68.5 -163.5q0 -23 -8 -68 q-27 -129 -127.5 -211t-249.5 -82q-121 0 -188.5 63.5t-67.5 163.5zM512 403q0 -41 19.5 -55t56.5 -14q51 0 92 31l51 241q-16 16 -33.5 23.5t-44.5 7.5q-98 0 -135 -178q-6 -33 -6 -56zM713 1335q0 -35 22.5 -56.5t67.5 -21.5q63 0 99 39t36 93q0 35 -22.5 56t-67.5 21 q-63 0 -99 -38.5t-36 -92.5z" />
<glyph unicode="&#xe6;" horiz-adv-x="1820" d="M-29 229q0 39 9 74q70 332 491 332h217l2 10q6 25 -36 41t-126 16q-80 0 -174 -13t-178 -38l57 267q86 33 206 53t235 20q94 0 175 -25.5t128 -70.5q68 43 166 69.5t192 26.5q217 0 339 -93t122 -263q0 -55 -12 -117l-35 -166h-647q49 -82 268 -82q86 0 175 14.5 t149 34.5l-58 -266q-168 -74 -450 -73q-106 0 -205.5 39.5t-153.5 107.5q-88 -74 -200.5 -110.5t-294.5 -36.5q-162 0 -261.5 62t-99.5 187zM436 299q0 -49 60 -49q75 0 120 45l19 90h-90q-47 0 -73 -15.5t-34 -52.5q-2 -6 -2 -18zM1155 600h223l4 18q2 6 2 17 q0 29 -22.5 46t-71.5 17q-57 0 -91 -26.5t-44 -71.5z" />
<glyph unicode="&#xe7;" horiz-adv-x="1064" d="M4 365q0 61 14 120q55 256 235.5 381t475.5 125q119 0 211 -16.5t170 -54.5l-74 -345q-111 61 -270 62q-109 0 -167 -35t-75 -117q-6 -31 -6 -53q0 -53 42 -75.5t145 -22.5q139 0 301 78l-76 -361q-139 -57 -307 -67l-33 -60q86 0 134 -42t48 -109q0 -31 -4 -45 q-23 -102 -123 -161t-270 -59q-39 0 -97.5 5.5t-78.5 11.5l34 158q53 -16 115 -17q68 0 107 18.5t45 53.5q14 57 -64 57h-151l94 195q-172 25 -273.5 120t-101.5 255z" />
<glyph unicode="&#xe8;" horiz-adv-x="1161" d="M4 377q0 49 12 104q53 248 207 379t453 131q137 0 241.5 -48t161 -134t56.5 -197q0 -39 -11 -94l-34 -166h-648q25 -41 85.5 -61.5t183.5 -20.5q86 0 175 14.5t148 34.5l-57 -266q-168 -74 -463 -73q-141 0 -258 46t-184.5 136t-67.5 215zM406 1532h380l99 -463h-363z M496 600h223l4 18q2 6 2 19q0 61 -94 61q-111 0 -135 -98z" />
<glyph unicode="&#xe9;" horiz-adv-x="1161" d="M4 377q0 49 12 104q53 248 207 379t453 131q137 0 241.5 -48t161 -134t56.5 -197q0 -39 -11 -94l-34 -166h-648q25 -41 85.5 -61.5t183.5 -20.5q86 0 175 14.5t148 34.5l-57 -266q-168 -74 -463 -73q-141 0 -258 46t-184.5 136t-67.5 215zM496 600h223l4 18q2 6 2 19 q0 61 -94 61q-111 0 -135 -98zM535 1069l294 463h381l-313 -463h-362z" />
<glyph unicode="&#xea;" horiz-adv-x="1161" d="M4 377q0 49 12 104q53 248 207 379t453 131q137 0 241.5 -48t161 -134t56.5 -197q0 -39 -11 -94l-34 -166h-648q25 -41 85.5 -61.5t183.5 -20.5q86 0 175 14.5t148 34.5l-57 -266q-168 -74 -463 -73q-141 0 -258 46t-184.5 136t-67.5 215zM201 1069l450 442h289l264 -442 h-330l-110 219l-195 -219h-368zM496 600h223l4 18q2 6 2 19q0 61 -94 61q-111 0 -135 -98z" />
<glyph unicode="&#xeb;" horiz-adv-x="1161" d="M4 377q0 49 12 104q53 248 207 379t453 131q137 0 241.5 -48t161 -134t56.5 -197q0 -39 -11 -94l-34 -166h-648q25 -41 85.5 -61.5t183.5 -20.5q86 0 175 14.5t148 34.5l-57 -266q-168 -74 -463 -73q-141 0 -258 46t-184.5 136t-67.5 215zM315 1130l62 289h317l-61 -289 h-318zM496 600h223l4 18q2 6 2 19q0 61 -94 61q-111 0 -135 -98zM795 1130l61 289h320l-62 -289h-319z" />
<glyph unicode="&#xec;" horiz-adv-x="774" d="M86 614l117 357h590l-205 -971h-496l129 614h-135zM258 1532h381l98 -463h-362z" />
<glyph unicode="&#xed;" horiz-adv-x="774" d="M86 614l117 357h590l-205 -971h-496l129 614h-135zM352 1069l295 463h381l-313 -463h-363z" />
<glyph unicode="&#xee;" horiz-adv-x="774" d="M29 1069l450 442h289l264 -442h-330l-110 219l-195 -219h-368zM86 614l117 357h590l-205 -971h-496l129 614h-135z" />
<glyph unicode="&#xef;" horiz-adv-x="774" d="M86 614l117 357h590l-205 -971h-496l129 614h-135zM129 1130l61 289h318l-62 -289h-317zM608 1130l62 289h319l-61 -289h-320z" />
<glyph unicode="&#xf0;" horiz-adv-x="1249" d="M-6 319q0 57 10 101q47 217 182.5 318.5t384.5 101.5q61 0 126 -14.5t100 -37.5l6 27q14 61 14 96q0 12 -4 37l-203 -80l23 113l100 39q-41 14 -121 14t-155.5 -17.5t-161.5 -51.5l65 311q174 63 404 63q272 0 401 -149l187 74l-25 -113l-106 -43q43 -86 43 -215 q0 -86 -17 -160l-43 -203q-61 -279 -227 -414.5t-483 -135.5q-248 0 -374 88t-126 251zM440 383q0 -84 119 -84q70 0 109 33t55 108l14 66q-70 37 -131 37q-74 0 -111.5 -31t-50.5 -92q-4 -25 -4 -37z" />
<glyph unicode="&#xf1;" horiz-adv-x="1282" d="M-43 0l205 971h465v-56q63 31 159.5 53.5t196.5 22.5q131 0 199.5 -61.5t68.5 -184.5q0 -57 -14 -120l-131 -625h-496l119 561q2 8 2 21q0 45 -55 45q-23 0 -52.5 -12.5t-48.5 -28.5l-122 -586h-496zM340 1085l61 289q39 29 101.5 50.5t124.5 21.5q51 0 96 -11.5 t104 -33.5q63 -23 103.5 -34t87.5 -11q68 0 126 23.5t93 60.5l-61 -289q-27 -29 -87.5 -50.5t-121.5 -21.5q-49 0 -95.5 11.5t-117.5 35.5q-57 20 -98.5 31.5t-82.5 11.5q-131 0 -233 -84z" />
<glyph unicode="&#xf2;" horiz-adv-x="1284" d="M4 356q0 63 14 129q55 254 229.5 380t487.5 126q252 0 386 -95t134 -282q0 -63 -14 -129q-55 -256 -228 -380.5t-493 -124.5q-248 0 -382 95t-134 281zM449 1532h380l99 -463h-363zM516 414q0 -43 19.5 -61.5t60.5 -18.5q55 0 88 33.5t51 117.5q8 39 8 70 q0 45 -20.5 63.5t-60.5 18.5q-53 0 -86 -34t-52 -118q-8 -39 -8 -71z" />
<glyph unicode="&#xf3;" horiz-adv-x="1284" d="M4 356q0 63 14 129q55 254 229.5 380t487.5 126q252 0 386 -95t134 -282q0 -63 -14 -129q-55 -256 -228 -380.5t-493 -124.5q-248 0 -382 95t-134 281zM516 414q0 -43 19.5 -61.5t60.5 -18.5q55 0 88 33.5t51 117.5q8 39 8 70q0 45 -20.5 63.5t-60.5 18.5q-53 0 -86 -34 t-52 -118q-8 -39 -8 -71zM528 1069l295 463h381l-313 -463h-363z" />
<glyph unicode="&#xf4;" horiz-adv-x="1284" d="M4 356q0 63 14 129q55 254 229.5 380t487.5 126q252 0 386 -95t134 -282q0 -63 -14 -129q-55 -256 -228 -380.5t-493 -124.5q-248 0 -382 95t-134 281zM252 1069l450 442h289l264 -442h-329l-111 219l-194 -219h-369zM516 414q0 -43 19.5 -61.5t60.5 -18.5q55 0 88 33.5 t51 117.5q8 39 8 70q0 45 -20.5 63.5t-60.5 18.5q-53 0 -86 -34t-52 -118q-8 -39 -8 -71z" />
<glyph unicode="&#xf5;" horiz-adv-x="1284" d="M4 356q0 63 14 129q55 254 229.5 380t487.5 126q252 0 386 -95t134 -282q0 -63 -14 -129q-55 -256 -228 -380.5t-493 -124.5q-248 0 -382 95t-134 281zM356 1126l62 289q39 29 101.5 50.5t123.5 21.5q51 0 96 -11.5t105 -33.5q63 -23 103 -34t87 -11q68 0 126.5 23.5 t92.5 60.5l-61 -289q-27 -29 -87.5 -50.5t-121.5 -21.5q-49 0 -95 11.5t-118 35.5q-57 20 -98 31.5t-82 11.5q-131 0 -234 -84zM516 414q0 -43 19.5 -61.5t60.5 -18.5q55 0 88 33.5t51 117.5q8 39 8 70q0 45 -20.5 63.5t-60.5 18.5q-53 0 -86 -34t-52 -118q-8 -39 -8 -71z " />
<glyph unicode="&#xf6;" horiz-adv-x="1284" d="M4 356q0 63 14 129q55 254 229.5 380t487.5 126q252 0 386 -95t134 -282q0 -63 -14 -129q-55 -256 -228 -380.5t-493 -124.5q-248 0 -382 95t-134 281zM367 1130l61 289h317l-61 -289h-317zM516 414q0 -43 19.5 -61.5t60.5 -18.5q55 0 88 33.5t51 117.5q8 39 8 70 q0 45 -20.5 63.5t-60.5 18.5q-53 0 -86 -34t-52 -118q-8 -39 -8 -71zM846 1130l61 289h320l-62 -289h-319z" />
<glyph unicode="&#xf7;" horiz-adv-x="888" d="M4 420l80 377h827l-80 -377h-827zM186 59l60 287h309l-59 -287h-310zM358 872l62 287h309l-61 -287h-310z" />
<glyph unicode="&#xf8;" horiz-adv-x="1284" d="M4 354q0 66 14 131q55 254 229.5 380t487.5 126q45 0 123 -8l62 98h157l-78 -127q125 -41 190.5 -126t65.5 -214q0 -66 -14 -129q-55 -256 -228 -380.5t-493 -124.5q-45 0 -123 8l-59 -99h-158l78 125q-254 86 -254 340zM471 408q0 -16 4 -41l195 311q-72 0 -119 -44 t-70 -149q-10 -39 -10 -77zM588 293q71 0 119.5 44t70.5 148q8 41 8 78q0 31 -4 43z" />
<glyph unicode="&#xf9;" horiz-adv-x="1282" d="M8 252q0 49 12 104l132 615h495l-119 -561q-2 -8 -2 -23q0 -43 56 -43q23 0 52.5 12.5t45.5 28.5l125 586h495l-204 -971h-465v55q-63 -35 -151.5 -55t-182.5 -20q-133 0 -211 70.5t-78 201.5zM496 1532h381l98 -463h-363z" />
<glyph unicode="&#xfa;" horiz-adv-x="1282" d="M8 252q0 49 12 104l132 615h495l-119 -561q-2 -8 -2 -23q0 -43 56 -43q23 0 52.5 12.5t45.5 28.5l125 586h495l-204 -971h-465v55q-63 -35 -151.5 -55t-182.5 -20q-133 0 -211 70.5t-78 201.5zM520 1069l295 463h381l-313 -463h-363z" />
<glyph unicode="&#xfb;" horiz-adv-x="1282" d="M8 252q0 49 12 104l132 615h495l-119 -561q-2 -8 -2 -23q0 -43 56 -43q23 0 52.5 12.5t45.5 28.5l125 586h495l-204 -971h-465v55q-63 -35 -151.5 -55t-182.5 -20q-133 0 -211 70.5t-78 201.5zM244 1069l450 442h289l264 -442h-329l-111 219l-195 -219h-368z" />
<glyph unicode="&#xfc;" horiz-adv-x="1282" d="M8 252q0 49 12 104l132 615h495l-119 -561q-2 -8 -2 -23q0 -43 56 -43q23 0 52.5 12.5t45.5 28.5l125 586h495l-204 -971h-465v55q-63 -35 -151.5 -55t-182.5 -20q-133 0 -211 70.5t-78 201.5zM365 1130l61 289h317l-61 -289h-317zM844 1130l61 289h320l-62 -289h-319z " />
<glyph unicode="&#xfd;" horiz-adv-x="1282" d="M-10 -340l69 322q39 -10 102.5 -18.5t112.5 -8.5q164 0 256.5 28.5t100.5 71.5l8 33q-66 -35 -153 -55.5t-181 -20.5q-133 0 -210 74t-77 203q0 57 11 100l123 582h495l-112 -529q-2 -6 -3 -18q0 -47 58 -47q23 0 52.5 12t45.5 29l117 553h495l-172 -811 q-53 -256 -247.5 -388t-597.5 -132q-56 0 -156 6t-137 14zM563 1069l295 463h381l-313 -463h-363z" />
<glyph unicode="&#xfe;" horiz-adv-x="1286" d="M-135 -442l395 1876h496l-101 -480q41 14 111 25.5t125 11.5q180 0 273 -95t93 -267q0 -74 -14 -146q-47 -258 -193.5 -380.5t-392.5 -122.5q-53 0 -109 10t-93 26l-97 -458h-493zM528 365q16 -16 35 -23.5t45 -7.5q47 0 80 37t51 121q8 35 9 69q0 43 -18.5 59.5 t-55.5 16.5q-27 0 -47.5 -7t-46.5 -24z" />
<glyph unicode="&#xff;" horiz-adv-x="1282" d="M-10 -340l69 322q39 -10 102.5 -18.5t112.5 -8.5q164 0 256.5 28.5t100.5 71.5l8 33q-66 -35 -153 -55.5t-181 -20.5q-133 0 -210 74t-77 203q0 57 11 100l123 582h495l-112 -529q-2 -6 -3 -18q0 -47 58 -47q23 0 52.5 12t45.5 29l117 553h495l-172 -811 q-53 -256 -247.5 -388t-597.5 -132q-56 0 -156 6t-137 14zM457 1188l61 289h318l-62 -289h-317zM936 1188l61 289h320l-62 -289h-319z" />
<glyph unicode="&#x100;" horiz-adv-x="1591" d="M-84 0l786 1319h515l229 -1319h-492l-43 246h-319l-146 -246h-530zM627 1430l61 286h713l-62 -286h-712zM717 584h201l-48 252z" />
<glyph unicode="&#x101;" horiz-adv-x="1286" d="M-8 299q0 57 16 143q55 262 204.5 405.5t379.5 143.5q72 0 127 -19.5t88 -51.5l10 51h488l-205 -971h-430l-11 63q-63 -39 -145 -61t-170 -22q-168 0 -260 79.5t-92 239.5zM422 1090l61 286h713l-61 -286h-713zM512 403q0 -41 19.5 -55t56.5 -14q51 0 92 31l51 241 q-16 16 -33.5 23.5t-44.5 7.5q-98 0 -135 -178q-6 -33 -6 -56z" />
<glyph unicode="&#x102;" horiz-adv-x="1591" d="M-84 0l786 1319h515l229 -1319h-492l-43 246h-319l-146 -246h-530zM610 1733q0 63 15 127h301q-8 -31 -8 -68q0 -113 102 -113q72 0 114 50.5t60 130.5h332q-47 -217 -193.5 -334t-355.5 -117q-172 0 -269.5 84t-97.5 240zM717 584h201l-48 252z" />
<glyph unicode="&#x103;" horiz-adv-x="1286" d="M-8 299q0 57 16 143q55 262 204.5 405.5t379.5 143.5q72 0 127 -19.5t88 -51.5l10 51h488l-205 -971h-430l-11 63q-63 -39 -145 -61t-170 -22q-168 0 -260 79.5t-92 239.5zM385 1393q0 63 14 127h301q-8 -31 -8 -68q0 -113 103 -113q72 0 113.5 50.5t60.5 130.5h331 q-47 -217 -193 -334t-355 -117q-172 0 -269.5 84t-97.5 240zM512 403q0 -41 19.5 -55t56.5 -14q51 0 92 31l51 241q-16 16 -33.5 23.5t-44.5 7.5q-98 0 -135 -178q-6 -33 -6 -56z" />
<glyph unicode="&#x104;" horiz-adv-x="1591" d="M-84 0l786 1319h515l229 -1319h-123q-113 -72 -133 -156q-2 -6 -2 -16q0 -27 21.5 -37t62.5 -10q27 0 58.5 6t49.5 16l-45 -217q-45 -14 -113.5 -25.5t-138.5 -11.5q-127 0 -195.5 41t-68.5 123q0 92 60.5 167t148.5 120h-74l-43 246h-319l-146 -246h-530zM717 584h201 l-48 252z" />
<glyph unicode="&#x105;" horiz-adv-x="1286" d="M-8 299q0 57 16 143q55 262 204.5 405.5t379.5 143.5q72 0 127 -19.5t88 -51.5l10 51h488l-205 -971h-131q-113 -72 -133 -156q-2 -6 -2 -16q0 -27 21.5 -37t62.5 -10q27 0 58.5 6t49.5 16l-45 -217q-45 -14 -113.5 -25.5t-138.5 -11.5q-127 0 -195.5 41t-68.5 123 q0 92 60.5 167t148.5 120h-4l-11 63q-63 -39 -145 -61t-170 -22q-168 0 -260 79.5t-92 239.5zM512 403q0 -41 19.5 -55t56.5 -14q51 0 92 31l51 241q-16 16 -33.5 23.5t-44.5 7.5q-98 0 -135 -178q-6 -33 -6 -56z" />
<glyph unicode="&#x106;" horiz-adv-x="1265" d="M37 489q0 78 18 170q70 332 313.5 506t616.5 174q121 0 214 -17t185 -54l-92 -432q-88 45 -176 65.5t-188 20.5q-162 0 -249 -58.5t-118 -204.5q-10 -41 -10 -90q0 -94 64.5 -133t205.5 -39q100 0 196.5 20.5t205.5 65.5l-93 -432q-109 -37 -210 -54t-222 -17 q-309 0 -485 131t-176 378zM776 1409l295 463h381l-313 -463h-363z" />
<glyph unicode="&#x107;" horiz-adv-x="1064" d="M4 365q0 45 14 120q55 256 235.5 381t475.5 125q119 0 211 -16.5t170 -54.5l-74 -345q-111 61 -270 62q-109 0 -167 -35t-75 -117q-6 -31 -6 -53q0 -53 42 -75.5t145 -22.5q139 0 301 78l-76 -361q-94 -39 -192.5 -55t-219.5 -16q-231 0 -372.5 98t-141.5 287zM528 1069 l295 463h381l-313 -463h-363z" />
<glyph unicode="&#x108;" horiz-adv-x="1265" d="M37 489q0 78 18 170q70 332 313.5 506t616.5 174q121 0 214 -17t185 -54l-92 -432q-88 45 -176 65.5t-188 20.5q-162 0 -249 -58.5t-118 -204.5q-10 -41 -10 -90q0 -94 64.5 -133t205.5 -39q100 0 196.5 20.5t205.5 65.5l-93 -432q-109 -37 -210 -54t-222 -17 q-309 0 -485 131t-176 378zM391 1409l451 442h288l265 -442h-330l-111 219l-194 -219h-369z" />
<glyph unicode="&#x109;" horiz-adv-x="1064" d="M4 365q0 45 14 120q55 256 235.5 381t475.5 125q119 0 211 -16.5t170 -54.5l-74 -345q-111 61 -270 62q-109 0 -167 -35t-75 -117q-6 -31 -6 -53q0 -53 42 -75.5t145 -22.5q139 0 301 78l-76 -361q-94 -39 -192.5 -55t-219.5 -16q-231 0 -372.5 98t-141.5 287zM176 1069 l451 442h288l265 -442h-330l-111 219l-194 -219h-369z" />
<glyph unicode="&#x10a;" horiz-adv-x="1265" d="M37 489q0 78 18 170q70 332 313.5 506t616.5 174q121 0 214 -17t185 -54l-92 -432q-88 45 -176 65.5t-188 20.5q-162 0 -249 -58.5t-118 -204.5q-10 -41 -10 -90q0 -94 64.5 -133t205.5 -39q100 0 196.5 20.5t205.5 65.5l-93 -432q-109 -37 -210 -54t-222 -17 q-309 0 -485 131t-176 378zM786 1470l60 289h319l-61 -289h-318z" />
<glyph unicode="&#x10b;" horiz-adv-x="1064" d="M4 365q0 45 14 120q55 256 235.5 381t475.5 125q119 0 211 -16.5t170 -54.5l-74 -345q-111 61 -270 62q-109 0 -167 -35t-75 -117q-6 -31 -6 -53q0 -53 42 -75.5t145 -22.5q139 0 301 78l-76 -361q-94 -39 -192.5 -55t-219.5 -16q-231 0 -372.5 98t-141.5 287zM535 1130 l59 289h319l-61 -289h-317z" />
<glyph unicode="&#x10c;" horiz-adv-x="1265" d="M37 489q0 78 18 170q70 332 313.5 506t616.5 174q121 0 214 -17t185 -54l-92 -432q-88 45 -176 65.5t-188 20.5q-162 0 -249 -58.5t-118 -204.5q-10 -41 -10 -90q0 -94 64.5 -133t205.5 -39q100 0 196.5 20.5t205.5 65.5l-93 -432q-109 -37 -210 -54t-222 -17 q-309 0 -485 131t-176 378zM563 1851h338l105 -219l202 219h359l-453 -442h-287z" />
<glyph unicode="&#x10d;" horiz-adv-x="1064" d="M4 365q0 45 14 120q55 256 235.5 381t475.5 125q119 0 211 -16.5t170 -54.5l-74 -345q-111 61 -270 62q-109 0 -167 -35t-75 -117q-6 -31 -6 -53q0 -53 42 -75.5t145 -22.5q139 0 301 78l-76 -361q-94 -39 -192.5 -55t-219.5 -16q-231 0 -372.5 98t-141.5 287zM299 1511 h338l104 -219l203 219h359l-453 -442h-287z" />
<glyph unicode="&#x10e;" horiz-adv-x="1413" d="M-43 0l279 1319h626q164 0 292 -59.5t199.5 -173t71.5 -269.5q0 -68 -20 -166q-51 -231 -150.5 -373.5t-261.5 -210t-409 -67.5h-627zM403 1851h338l105 -219l203 219h358l-453 -442h-286zM532 377h74q86 0 141.5 21.5t92.5 81t61 171.5q16 72 17 131q0 80 -44.5 105.5 t-154.5 25.5h-74z" />
<glyph unicode="&#x10f;" horiz-adv-x="1765" d="M0 332q0 70 18 155q57 268 198.5 386t385.5 118q53 0 110.5 -10t94.5 -27l90 426h496l-293 -1380h-430l-11 63q-135 -84 -290 -83q-170 0 -269.5 89t-99.5 263zM514 410q0 -43 18.5 -59.5t55.5 -16.5q47 0 92 31l51 241q-16 16 -33.5 23.5t-44.5 7.5q-98 0 -131 -158 q-8 -35 -8 -69zM1346 866l323 504h404l-347 -504h-380z" />
<glyph unicode="&#x110;" horiz-adv-x="1495" d="M39 0l102 487h-90l68 316h90l108 516h627q164 0 292 -59.5t199.5 -173t71.5 -269.5q0 -68 -20 -166q-51 -231 -150.5 -373.5t-261.5 -210t-409 -67.5h-627zM614 377h74q86 0 141.5 21.5t92 81t61.5 171.5q16 72 16 131q0 80 -44 105.5t-154 25.5h-74l-25 -110h209 l-67 -316h-207z" />
<glyph unicode="&#x111;" horiz-adv-x="1292" d="M0 332q0 70 18 155q57 268 198.5 386t385.5 118q53 0 110.5 -10t94.5 -27l16 82h-229l59 277h230l14 67h496l-15 -67h68l-60 -277h-67l-219 -1036h-430l-11 63q-135 -84 -290 -83q-170 0 -269.5 89t-99.5 263zM514 410q0 -43 18.5 -59.5t55.5 -16.5q47 0 92 31l51 241 q-16 16 -33.5 23.5t-44.5 7.5q-98 0 -131 -158q-8 -35 -8 -69z" />
<glyph unicode="&#x112;" horiz-adv-x="1140" d="M-43 0l279 1319h1054l-76 -356h-559l-24 -119h481l-78 -369h-481l-27 -119h559l-73 -356h-1055zM412 1491l61 287h713l-62 -287h-712z" />
<glyph unicode="&#x113;" horiz-adv-x="1161" d="M4 377q0 49 12 104q53 248 207 379t453 131q137 0 241.5 -48t161 -134t56.5 -197q0 -39 -11 -94l-34 -166h-648q25 -41 85.5 -61.5t183.5 -20.5q86 0 175 14.5t148 34.5l-57 -266q-168 -74 -463 -73q-141 0 -258 46t-184.5 136t-67.5 215zM354 1151l62 287h712l-61 -287 h-713zM496 600h223l4 18q2 6 2 19q0 61 -94 61q-111 0 -135 -98z" />
<glyph unicode="&#x114;" horiz-adv-x="1140" d="M-43 0l279 1319h1054l-76 -356h-559l-24 -119h481l-78 -369h-481l-27 -119h559l-73 -356h-1055zM418 1733q0 63 14 127h301q-8 -31 -8 -68q0 -113 102 -113q72 0 114 50.5t60 130.5h332q-47 -217 -193.5 -334t-355.5 -117q-172 0 -269 84t-97 240z" />
<glyph unicode="&#x115;" horiz-adv-x="1161" d="M4 377q0 49 12 104q53 248 207 379t453 131q137 0 241.5 -48t161 -134t56.5 -197q0 -39 -11 -94l-34 -166h-648q25 -41 85.5 -61.5t183.5 -20.5q86 0 175 14.5t148 34.5l-57 -266q-168 -74 -463 -73q-141 0 -258 46t-184.5 136t-67.5 215zM340 1393q0 63 14 127h301 q-8 -31 -8 -68q0 -113 103 -113q72 0 113.5 50.5t60.5 130.5h331q-47 -217 -193.5 -334t-354.5 -117q-172 0 -269.5 84t-97.5 240zM496 600h223l4 18q2 6 2 19q0 61 -94 61q-111 0 -135 -98z" />
<glyph unicode="&#x116;" horiz-adv-x="1140" d="M-43 0l279 1319h1054l-76 -356h-559l-24 -119h481l-78 -369h-481l-27 -119h559l-73 -356h-1055zM625 1470l59 289h320l-62 -289h-317z" />
<glyph unicode="&#x117;" horiz-adv-x="1161" d="M4 377q0 49 12 104q53 248 207 379t453 131q137 0 241.5 -48t161 -134t56.5 -197q0 -39 -11 -94l-34 -166h-648q25 -41 85.5 -61.5t183.5 -20.5q86 0 175 14.5t148 34.5l-57 -266q-168 -74 -463 -73q-141 0 -258 46t-184.5 136t-67.5 215zM496 600h223l4 18q2 6 2 19 q0 61 -94 61q-111 0 -135 -98zM559 1130l59 289h320l-61 -289h-318z" />
<glyph unicode="&#x118;" horiz-adv-x="1140" d="M-43 0l279 1319h1054l-76 -356h-559l-24 -119h481l-78 -369h-481l-27 -119h559l-73 -356h-133q-113 -72 -134 -156q-2 -6 -2 -16q0 -27 21.5 -37t62.5 -10q27 0 59 6t50 16l-45 -217q-45 -14 -113.5 -25.5t-138.5 -11.5q-127 0 -195.5 41t-68.5 123q0 92 60.5 167 t148.5 120h-627z" />
<glyph unicode="&#x119;" horiz-adv-x="1161" d="M4 377q0 49 12 104q53 248 207 379t453 131q137 0 241.5 -48t161 -134t56.5 -197q0 -39 -11 -94l-34 -166h-648q25 -41 85.5 -61.5t183.5 -20.5q86 0 175 14.5t148 34.5l-57 -266q-100 -47 -252 -61q-98 -72 -119 -148q-2 -6 -2 -16q0 -27 21.5 -37t62.5 -10q27 0 58.5 6 t50.5 16l-45 -217q-45 -14 -114 -25.5t-138 -11.5q-127 0 -195.5 41t-68.5 123q0 84 51 155t131 118q-184 23 -299 124t-115 267zM496 600h223l4 18q2 7 2 19q0 61 -94 61q-111 0 -135 -98z" />
<glyph unicode="&#x11a;" horiz-adv-x="1140" d="M-43 0l279 1319h1054l-76 -356h-559l-24 -119h481l-78 -369h-481l-27 -119h559l-73 -356h-1055zM383 1851h338l104 -219l203 219h358l-452 -442h-287z" />
<glyph unicode="&#x11b;" horiz-adv-x="1161" d="M4 377q0 49 12 104q53 248 207 379t453 131q137 0 241.5 -48t161 -134t56.5 -197q0 -39 -11 -94l-34 -166h-648q25 -41 85.5 -61.5t183.5 -20.5q86 0 175 14.5t148 34.5l-57 -266q-168 -74 -463 -73q-141 0 -258 46t-184.5 136t-67.5 215zM307 1511h338l105 -219l202 219 h359l-453 -442h-287zM496 600h223l4 18q2 6 2 19q0 61 -94 61q-111 0 -135 -98z" />
<glyph unicode="&#x11c;" horiz-adv-x="1357" d="M35 481q0 88 20 178q72 340 306.5 510t642.5 170q227 0 407 -67l-86 -414q-152 63 -379 64q-156 0 -255 -60.5t-130 -202.5q-14 -59 -14 -112q0 -82 50 -116t167 -34q66 0 125 15l18 80h-219l64 299h628l-145 -682q-104 -57 -245.5 -93t-311.5 -36q-305 0 -474 128 t-169 373zM436 1409l451 442h289l264 -442h-330l-111 219l-194 -219h-369z" />
<glyph unicode="&#x11d;" horiz-adv-x="1286" d="M-6 -340l69 322q37 -10 103.5 -18.5t112.5 -8.5q162 0 242.5 17.5t88.5 58.5l4 18q-45 -16 -105 -26.5t-114 -10.5q-193 0 -295 78t-102 236q0 72 16 139q57 256 209 391t367 135q84 0 142.5 -21.5t107.5 -62.5l34 64h431l-175 -824q-35 -168 -127 -279.5t-266 -169.5 t-450 -58q-56 0 -156 6t-137 14zM227 1069l451 442h289l264 -442h-330l-110 219l-195 -219h-369zM512 403q0 -41 19.5 -55t56.5 -14q28 0 48.5 7t43.5 24l51 241q-16 16 -30.5 23.5t-41.5 7.5q-47 0 -82.5 -40t-54.5 -124q-10 -47 -10 -70z" />
<glyph unicode="&#x11e;" horiz-adv-x="1357" d="M35 481q0 88 20 178q72 340 306.5 510t642.5 170q227 0 407 -67l-86 -414q-152 63 -379 64q-156 0 -255 -60.5t-130 -202.5q-14 -59 -14 -112q0 -82 50 -116t167 -34q66 0 125 15l18 80h-219l64 299h628l-145 -682q-104 -57 -245.5 -93t-311.5 -36q-305 0 -474 128 t-169 373zM608 1733q0 63 15 127h301q-8 -31 -9 -68q0 -113 103 -113q72 0 114 50.5t60 130.5h332q-47 -217 -193.5 -334t-355.5 -117q-172 0 -269.5 84t-97.5 240z" />
<glyph unicode="&#x11f;" horiz-adv-x="1286" d="M-6 -340l69 322q37 -10 103.5 -18.5t112.5 -8.5q162 0 242.5 17.5t88.5 58.5l4 18q-45 -16 -105 -26.5t-114 -10.5q-193 0 -295 78t-102 236q0 72 16 139q57 256 209 391t367 135q84 0 142.5 -21.5t107.5 -62.5l34 64h431l-175 -824q-35 -168 -127 -279.5t-266 -169.5 t-450 -58q-56 0 -156 6t-137 14zM360 1393q0 63 15 127h301q-8 -31 -8 -68q0 -113 102 -113q72 0 114 50.5t60 130.5h332q-47 -217 -193.5 -334t-355.5 -117q-172 0 -269.5 84t-97.5 240zM512 403q0 -41 19.5 -55t56.5 -14q28 0 48.5 7t43.5 24l51 241q-16 16 -30.5 23.5 t-41.5 7.5q-47 0 -82.5 -40t-54.5 -124q-10 -47 -10 -70z" />
<glyph unicode="&#x120;" horiz-adv-x="1357" d="M35 481q0 88 20 178q72 340 306.5 510t642.5 170q227 0 407 -67l-86 -414q-152 63 -379 64q-156 0 -255 -60.5t-130 -202.5q-14 -59 -14 -112q0 -82 50 -116t167 -34q66 0 125 15l18 80h-219l64 299h628l-145 -682q-104 -57 -245.5 -93t-311.5 -36q-305 0 -474 128 t-169 373zM854 1470l59 289h320l-62 -289h-317z" />
<glyph unicode="&#x121;" horiz-adv-x="1286" d="M-6 -340l69 322q37 -10 103.5 -18.5t112.5 -8.5q162 0 242.5 17.5t88.5 58.5l4 18q-45 -16 -105 -26.5t-114 -10.5q-193 0 -295 78t-102 236q0 72 16 139q57 256 209 391t367 135q84 0 142.5 -21.5t107.5 -62.5l34 64h431l-175 -824q-35 -168 -127 -279.5t-266 -169.5 t-450 -58q-56 0 -156 6t-137 14zM512 403q0 -41 19.5 -55t56.5 -14q28 0 48.5 7t43.5 24l51 241q-16 16 -30.5 23.5t-41.5 7.5q-47 0 -82.5 -40t-54.5 -124q-10 -47 -10 -70zM553 1090l59 288h320l-62 -288h-317z" />
<glyph unicode="&#x122;" horiz-adv-x="1357" d="M35 481q0 88 20 178q72 340 306.5 510t642.5 170q227 0 407 -67l-86 -414q-152 63 -379 64q-156 0 -255 -60.5t-130 -202.5q-14 -59 -14 -112q0 -82 50 -116t167 -34q66 0 125 15l18 80h-219l64 299h628l-145 -682q-104 -57 -245.5 -93t-311.5 -36q-305 0 -474 128 t-169 373zM328 -586l182 510h367l-242 -510h-307z" />
<glyph unicode="&#x123;" horiz-adv-x="1286" d="M-6 -340l69 322q37 -10 103.5 -18.5t112.5 -8.5q162 0 242.5 17.5t88.5 58.5l4 18q-45 -16 -105 -26.5t-114 -10.5q-193 0 -295 78t-102 236q0 72 16 139q57 256 209 391t367 135q84 0 142.5 -21.5t107.5 -62.5l34 64h431l-175 -824q-35 -168 -127 -279.5t-266 -169.5 t-450 -58q-56 0 -156 6t-137 14zM512 403q0 -41 19.5 -55t56.5 -14q28 0 48.5 7t43.5 24l51 241q-16 16 -30.5 23.5t-41.5 7.5q-47 0 -82.5 -40t-54.5 -124q-10 -47 -10 -70zM514 1069l242 510h307l-182 -510h-367z" />
<glyph unicode="&#x124;" horiz-adv-x="1464" d="M-43 0l279 1319h495l-90 -430h330l90 430h495l-278 -1319h-496l90 430h-329l-90 -430h-496zM412 1409l450 442h289l264 -442h-330l-110 219l-195 -219h-368z" />
<glyph unicode="&#x125;" horiz-adv-x="1282" d="M-43 0l293 1380h495l-96 -446q51 25 123 41t143 16q162 0 246 -71.5t84 -206.5q0 -53 -12 -115l-127 -598h-496l117 557q2 10 2 25q0 45 -53 45q-23 0 -52.5 -12.5t-48.5 -28.5l-122 -586h-496zM283 1458l450 443h289l264 -443h-330l-110 219l-195 -219h-368z" />
<glyph unicode="&#x126;" horiz-adv-x="1509" d="M-20 0l206 983h-61l49 236h62l22 100h496l-23 -100h330l22 100h496l-23 -100h66l-49 -236h-66l-207 -983h-495l90 430h-330l-90 -430h-495zM664 889h329l19 94h-330z" />
<glyph unicode="&#x127;" horiz-adv-x="1302" d="M-23 0l226 1065h-72l43 201h72l24 114h496l-25 -114h179l-43 -201h-179l-28 -131q51 25 122.5 41t143.5 16q162 0 246 -71.5t84 -206.5q0 -53 -13 -115l-127 -598h-495l117 557q2 10 2 25q0 45 -54 45q-23 0 -52.5 -12.5t-47.5 -28.5l-123 -586h-496z" />
<glyph unicode="&#x128;" horiz-adv-x="638" d="M-43 0l279 1319h495l-278 -1319h-496zM111 1487l61 289q39 29 101.5 50t123.5 21q51 0 96.5 -11t104.5 -34q63 -23 103 -34t87 -11q68 0 126.5 23.5t93.5 60.5l-62 -289q-27 -29 -87 -50t-122 -21q-49 0 -95 11t-118 36q-57 20 -98 31.5t-82 11.5q-131 0 -233 -84z" />
<glyph unicode="&#x129;" horiz-adv-x="774" d="M86 614l117 357h590l-205 -971h-496l129 614h-135zM111 1143l61 289q39 29 101.5 50t123.5 21q51 0 96.5 -11t104.5 -34q63 -23 103 -34t87 -11q68 0 126.5 23.5t93.5 60.5l-62 -289q-27 -29 -87 -50t-122 -21q-49 0 -95 11t-118 36q-57 20 -98 31.5t-82 11.5 q-131 0 -233 -84z" />
<glyph unicode="&#x12a;" horiz-adv-x="638" d="M-43 0l279 1319h495l-278 -1319h-496zM164 1491l61 287h715l-61 -287h-715z" />
<glyph unicode="&#x12b;" horiz-adv-x="774" d="M86 614l117 357h590l-205 -971h-496l129 614h-135zM184 1208l62 287h715l-62 -287h-715z" />
<glyph unicode="&#x12c;" horiz-adv-x="638" d="M-43 0l279 1319h495l-278 -1319h-496zM147 1786q0 63 15 127h301q-8 -31 -8 -68q0 -113 102 -112q72 0 114 50t60 130h332q-47 -217 -193.5 -334t-355.5 -117q-172 0 -269.5 84t-97.5 240z" />
<glyph unicode="&#x12d;" horiz-adv-x="774" d="M86 614l117 357h590l-205 -971h-496l129 614h-135zM152 1393q0 63 14 127h303q-8 -31 -8 -68q0 -113 102 -113q72 0 114 50.5t60 130.5h332q-47 -217 -193.5 -334t-355.5 -117q-174 0 -271 84t-97 240z" />
<glyph unicode="&#x12e;" horiz-adv-x="638" d="M-152 -287q0 92 60.5 167t148.5 120h-100l279 1319h495l-278 -1319h-101q-113 -72 -133 -156q-2 -6 -2 -16q0 -27 21.5 -37t62.5 -10q27 0 58.5 6t50.5 16l-45 -217q-45 -14 -114 -25.5t-138 -11.5q-127 0 -196 41t-69 123z" />
<glyph unicode="&#x12f;" horiz-adv-x="774" d="M-10 -287q0 92 60.5 167t148.5 120h-107l129 614h-135l117 357h590l-205 -971h-94q-113 -72 -134 -156q-2 -6 -2 -16q0 -27 21.5 -37t62.5 -10q27 0 58.5 6t50.5 16l-45 -217q-45 -14 -113.5 -25.5t-138.5 -11.5q-127 0 -195.5 41t-68.5 123zM281 1051l71 342h531 l-72 -342h-530z" />
<glyph unicode="&#x130;" horiz-adv-x="638" d="M-43 0l279 1319h495l-278 -1319h-496zM360 1491l60 289h319l-61 -289h-318z" />
<glyph unicode="&#x131;" horiz-adv-x="774" d="M86 614l117 357h590l-205 -971h-496l129 614h-135z" />
<glyph unicode="&#x132;" horiz-adv-x="1576" d="M-43 0l279 1319h495l-278 -1319h-496zM512 27l86 411q90 -39 221 -39q102 0 143.5 35t61.5 129l160 756h495l-186 -877q-49 -233 -203.5 -347.5t-458.5 -114.5q-186 0 -319 47z" />
<glyph unicode="&#x133;" horiz-adv-x="1462" d="M86 614l117 357h590l-205 -971h-496l129 614h-135zM281 1051l71 342h531l-72 -342h-530zM473 -424l64 307q55 -20 118 -20q92 0 113 82l141 669h-135l117 357h590l-226 -1059q-39 -184 -154.5 -287.5t-340.5 -103.5q-170 0 -287 55zM969 1051l71 342h531l-72 -342h-530z " />
<glyph unicode="&#x134;" horiz-adv-x="946" d="M-119 27l86 411q90 -39 221 -39q102 0 143.5 35t61.5 129l160 756h496l-187 -877q-49 -233 -203.5 -347.5t-457.5 -114.5q-187 0 -320 47zM330 1409l450 442h289l264 -442h-329l-111 219l-195 -219h-368z" />
<glyph unicode="&#x135;" horiz-adv-x="770" d="M-217 -424l63 307q55 -20 119 -20q94 0 115 82l139 669h-133l115 357h590l-226 -1059q-37 -180 -160.5 -285.5t-332.5 -105.5q-172 0 -289 55zM12 1069l451 442h289l264 -442h-330l-111 219l-194 -219h-369z" />
<glyph unicode="&#x136;" horiz-adv-x="1486" d="M-43 0l279 1319h495l-78 -369l367 369h559l-565 -547l327 -772h-524l-174 459l-119 -115l-71 -344h-496zM274 -586l183 510h366l-241 -510h-308z" />
<glyph unicode="&#x137;" horiz-adv-x="1353" d="M-43 0l293 1380h495l-129 -604l220 195h557l-471 -420l286 -551h-524l-125 293l-55 -51l-51 -242h-496zM154 -586l182 510h366l-241 -510h-307z" />
<glyph unicode="&#x138;" horiz-adv-x="1353" d="M-43 0l205 971h495l-45 -215l224 215h557l-475 -441l290 -530h-524l-129 272l-57 -51l-45 -221h-496z" />
<glyph unicode="&#x139;" horiz-adv-x="1095" d="M-43 0l279 1319h495l-199 -942h539l-80 -377h-1034zM328 1409l295 463h381l-314 -463h-362z" />
<glyph unicode="&#x13a;" horiz-adv-x="751" d="M14 223q0 51 13 109l223 1048h495l-208 -983q-4 -25 -5 -30q0 -23 13.5 -34t46.5 -11q57 0 106 18l-65 -307q-76 -29 -136.5 -41t-156.5 -12q-164 0 -245 60t-81 183zM356 1548l295 463h381l-313 -463h-363z" />
<glyph unicode="&#x13b;" horiz-adv-x="1095" d="M-43 0l279 1319h495l-199 -942h539l-80 -377h-1034zM176 -586l182 510h367l-242 -510h-307z" />
<glyph unicode="&#x13c;" horiz-adv-x="751" d="M-43 -586l182 510h367l-242 -510h-307zM14 223q0 51 13 109l223 1048h495l-208 -983q-4 -25 -5 -30q0 -23 13.5 -34t46.5 -11q57 0 106 18l-65 -307q-76 -29 -136.5 -41t-156.5 -12q-164 0 -245 60t-81 183z" />
<glyph unicode="&#x13d;" horiz-adv-x="1095" d="M-43 0l279 1319h495l-199 -942h539l-80 -377h-1034zM358 1409l183 510h366l-241 -510h-308z" />
<glyph unicode="&#x13e;" horiz-adv-x="751" d="M14 223q0 51 13 109l223 1048h495l-208 -983q-4 -25 -5 -30q0 -23 13.5 -34t46.5 -11q57 0 106 18l-65 -307q-76 -29 -136.5 -41t-156.5 -12q-164 0 -245 60t-81 183zM360 1436l183 510h366l-241 -510h-308z" />
<glyph unicode="&#x13f;" horiz-adv-x="1095" d="M-43 0l279 1319h495l-199 -942h539l-80 -377h-1034zM682 635l61 289h320l-62 -289h-319z" />
<glyph unicode="&#x140;" horiz-adv-x="841" d="M14 223q0 51 13 109l223 1048h495l-208 -983q-4 -25 -5 -30q0 -23 13.5 -34t46.5 -11q57 0 106 18l-65 -307q-76 -29 -136.5 -41t-156.5 -12q-164 0 -245 60t-81 183zM666 635l61 289h320l-62 -289h-319z" />
<glyph unicode="&#x141;" horiz-adv-x="1179" d="M-4 383l74 346l135 53l114 537h496l-67 -320l155 64l-74 -346l-155 -62l-58 -278h539l-80 -377h-1034l92 438z" />
<glyph unicode="&#x142;" horiz-adv-x="751" d="M-88 406l74 346l141 57l123 571h495l-75 -354l147 59l-74 -346l-147 -59l-59 -283q-4 -25 -5 -30q0 -23 13.5 -34t46.5 -11q57 0 106 18l-65 -307q-76 -29 -136.5 -41t-156.5 -12q-164 0 -245 60t-81 183q0 51 13 109l26 131z" />
<glyph unicode="&#x143;" horiz-adv-x="1423" d="M-43 0l279 1319h415l260 -516l109 516h496l-279 -1319h-418l-258 516l-108 -516h-496zM647 1409l295 463h381l-313 -463h-363z" />
<glyph unicode="&#x144;" horiz-adv-x="1282" d="M-43 0l205 971h465v-56q63 31 159.5 53.5t196.5 22.5q131 0 199.5 -61.5t68.5 -184.5q0 -57 -14 -120l-131 -625h-496l119 561q2 8 2 21q0 45 -55 45q-23 0 -52.5 -12.5t-48.5 -28.5l-122 -586h-496zM487 1069l295 463h381l-313 -463h-363z" />
<glyph unicode="&#x145;" horiz-adv-x="1423" d="M-43 0l279 1319h415l260 -516l109 516h496l-279 -1319h-418l-258 516l-108 -516h-496zM254 -586l182 510h367l-242 -510h-307z" />
<glyph unicode="&#x146;" horiz-adv-x="1282" d="M-43 0l205 971h465v-56q63 31 159.5 53.5t196.5 22.5q131 0 199.5 -61.5t68.5 -184.5q0 -57 -14 -120l-131 -625h-496l119 561q2 8 2 21q0 45 -55 45q-23 0 -52.5 -12.5t-48.5 -28.5l-122 -586h-496zM174 -586l182 510h367l-242 -510h-307z" />
<glyph unicode="&#x147;" horiz-adv-x="1423" d="M-43 0l279 1319h415l260 -516l109 516h496l-279 -1319h-418l-258 516l-108 -516h-496zM475 1851h338l105 -219l202 219h359l-453 -442h-287z" />
<glyph unicode="&#x148;" horiz-adv-x="1282" d="M-43 0l205 971h465v-56q63 31 159.5 53.5t196.5 22.5q131 0 199.5 -61.5t68.5 -184.5q0 -57 -14 -120l-131 -625h-496l119 561q2 8 2 21q0 45 -55 45q-23 0 -52.5 -12.5t-48.5 -28.5l-122 -586h-496zM301 1511h338l104 -219l203 219h359l-453 -442h-287z" />
<glyph unicode="&#x149;" horiz-adv-x="1292" d="M-279 801l183 510h366l-241 -510h-308zM-33 0l205 971h465v-56q63 31 159.5 53.5t196.5 22.5q131 0 200 -61.5t69 -184.5q0 -57 -15 -120l-131 -625h-495l118 561q2 8 2 21q0 45 -55 45q-23 0 -52.5 -12.5t-47.5 -28.5l-123 -586h-496z" />
<glyph unicode="&#x14a;" horiz-adv-x="1423" d="M-43 0l279 1319h415l260 -516l109 516h496l-299 -1407q-37 -180 -161 -285.5t-335 -105.5q-172 0 -289 55l64 307q55 -20 118 -20q94 0 115 82l35 164l-203 407l-108 -516h-496z" />
<glyph unicode="&#x14b;" horiz-adv-x="1282" d="M-43 0l205 971h465v-56q63 31 159.5 53.5t196.5 22.5q127 0 195.5 -72.5t68.5 -193.5q0 -57 -10 -100l-152 -713q-39 -184 -155.5 -287.5t-339.5 -103.5q-172 0 -289 55l64 307q55 -20 118 -20q94 0 115 82l131 616q2 8 2 21q0 45 -55 45q-23 0 -52.5 -12.5t-48.5 -28.5 l-122 -586h-496z" />
<glyph unicode="&#x14c;" horiz-adv-x="1474" d="M31 451q0 92 24 208q78 365 286 522.5t566 157.5q283 0 434.5 -110.5t151.5 -354.5q0 -94 -25 -215q-78 -365 -283.5 -522t-568.5 -157q-278 0 -431.5 112.5t-153.5 358.5zM545 530q0 -72 36.5 -101.5t125.5 -29.5q108 0 166.5 58.5t89.5 201.5q18 92 18 129 q0 72 -38 102t-126 30q-109 0 -167 -58.5t-89 -202.5q-16 -82 -16 -129zM569 1493l62 287h712l-61 -287h-713z" />
<glyph unicode="&#x14d;" horiz-adv-x="1284" d="M4 356q0 63 14 129q55 254 229.5 380t487.5 126q252 0 386 -95t134 -282q0 -63 -14 -129q-55 -256 -228 -380.5t-493 -124.5q-248 0 -382 95t-134 281zM393 1151l62 287h712l-61 -287h-713zM516 414q0 -43 19.5 -61.5t60.5 -18.5q55 0 88 33.5t51 117.5q8 39 8 70 q0 45 -20.5 63.5t-60.5 18.5q-53 0 -86 -34t-52 -118q-8 -39 -8 -71z" />
<glyph unicode="&#x14e;" horiz-adv-x="1474" d="M31 451q0 92 24 208q78 365 286 522.5t566 157.5q283 0 434.5 -110.5t151.5 -354.5q0 -94 -25 -215q-78 -365 -283.5 -522t-568.5 -157q-278 0 -431.5 112.5t-153.5 358.5zM545 530q0 -72 36.5 -101.5t125.5 -29.5q108 0 166.5 58.5t89.5 201.5q18 92 18 129 q0 72 -38 102t-126 30q-109 0 -167 -58.5t-89 -202.5q-16 -82 -16 -129zM553 1733q0 63 14 127h301q-8 -31 -8 -68q0 -113 103 -113q72 0 113.5 50.5t60.5 130.5h331q-47 -217 -193.5 -334t-354.5 -117q-172 0 -269.5 84t-97.5 240z" />
<glyph unicode="&#x14f;" horiz-adv-x="1284" d="M4 356q0 63 14 129q55 254 229.5 380t487.5 126q252 0 386 -95t134 -282q0 -63 -14 -129q-55 -256 -228 -380.5t-493 -124.5q-248 0 -382 95t-134 281zM385 1393q0 63 14 127h301q-8 -31 -8 -68q0 -113 103 -113q72 0 113.5 50.5t60.5 130.5h331q-47 -217 -193 -334 t-355 -117q-172 0 -269.5 84t-97.5 240zM516 414q0 -43 19.5 -61.5t60.5 -18.5q55 0 88 33.5t51 117.5q8 39 8 70q0 45 -20.5 63.5t-60.5 18.5q-53 0 -86 -34t-52 -118q-8 -39 -8 -71z" />
<glyph unicode="&#x150;" horiz-adv-x="1474" d="M31 451q0 92 24 208q78 365 286 522.5t566 157.5q283 0 434.5 -110.5t151.5 -354.5q0 -94 -25 -215q-78 -365 -283.5 -522t-568.5 -157q-278 0 -431.5 112.5t-153.5 358.5zM369 1409l282 416h420l-319 -416h-383zM545 530q0 -72 36.5 -101.5t125.5 -29.5 q108 0 166.5 58.5t89.5 201.5q18 92 18 129q0 72 -38 102t-126 30q-109 0 -167 -58.5t-89 -202.5q-16 -82 -16 -129zM920 1409l282 416h422l-321 -416h-383z" />
<glyph unicode="&#x151;" horiz-adv-x="1284" d="M4 356q0 63 14 129q55 254 229.5 380t487.5 126q252 0 386 -95t134 -282q0 -63 -14 -129q-55 -256 -228 -380.5t-493 -124.5q-248 0 -382 95t-134 281zM227 1069l283 416h420l-320 -416h-383zM516 414q0 -43 19.5 -61.5t60.5 -18.5q55 0 88 33.5t51 117.5q8 39 8 70 q0 45 -20.5 63.5t-60.5 18.5q-53 0 -86 -34t-52 -118q-8 -39 -8 -71zM778 1069l283 416h422l-322 -416h-383z" />
<glyph unicode="&#x152;" horiz-adv-x="2029" d="M31 451q0 92 24 208q78 365 286 522.5t566 157.5q127 0 221 -20h1035l-76 -356h-559l-25 -119h482l-78 -369h-482l-26 -119h559l-74 -356h-1022q-109 -20 -246 -20q-278 0 -431.5 112.5t-153.5 358.5zM545 530q0 -72 36.5 -101.5t125.5 -29.5q108 0 166.5 58.5 t89.5 201.5q18 92 18 129q0 72 -38 102t-126 30q-109 0 -167 -58.5t-89 -202.5q-16 -82 -16 -129z" />
<glyph unicode="&#x153;" horiz-adv-x="1953" d="M4 356q0 63 14 129q55 254 229.5 380t487.5 126q229 0 361 -80q147 80 372 80q137 0 242 -48t161 -134t56 -197q0 -39 -10 -94l-35 -166h-647q25 -41 85 -61.5t183 -20.5q86 0 175 14.5t149 34.5l-58 -266q-168 -74 -462 -73q-211 0 -346 92q-168 -92 -441 -92 q-248 0 -382 95t-134 281zM516 414q0 -43 19.5 -61.5t60.5 -18.5q55 0 88 33.5t51 117.5q8 39 8 70q0 45 -20.5 63.5t-60.5 18.5q-53 0 -86 -34t-52 -118q-8 -39 -8 -71zM1288 600h223l5 18q2 6 2 19q0 61 -95 61q-111 0 -135 -98z" />
<glyph unicode="&#x154;" horiz-adv-x="1343" d="M-43 0l279 1319h741q188 0 297.5 -105.5t109.5 -273.5q0 -55 -12 -115q-53 -256 -317 -399q18 -16 27.5 -30.5t13.5 -37.5l80 -358h-517l-67 293q-4 23 -15.5 33t-33.5 10h-21l-69 -336h-496zM592 1409l295 463h381l-314 -463h-362zM606 723h121q121 0 141 102q4 25 4 35 q0 37 -22.5 54.5t-71.5 17.5h-129z" />
<glyph unicode="&#x155;" horiz-adv-x="878" d="M-43 0l205 971h485v-56q63 31 154.5 53.5t181.5 22.5l-76 -364q-82 0 -178 -11.5t-154 -29.5l-122 -586h-496zM236 1069l294 463h381l-313 -463h-362z" />
<glyph unicode="&#x156;" horiz-adv-x="1343" d="M-43 0l279 1319h741q188 0 297.5 -105.5t109.5 -273.5q0 -55 -12 -115q-53 -256 -317 -399q18 -16 27.5 -30.5t13.5 -37.5l80 -358h-517l-67 293q-4 23 -15.5 33t-33.5 10h-21l-69 -336h-496zM178 -586l182 510h367l-242 -510h-307zM606 723h121q121 0 141 102q4 25 4 35 q0 37 -22.5 54.5t-71.5 17.5h-129z" />
<glyph unicode="&#x157;" horiz-adv-x="878" d="M-186 -586l182 510h366l-241 -510h-307zM-43 0l205 971h485v-56q63 31 154.5 53.5t181.5 22.5l-76 -364q-82 0 -178 -11.5t-154 -29.5l-122 -586h-496z" />
<glyph unicode="&#x158;" horiz-adv-x="1343" d="M-43 0l279 1319h741q188 0 297.5 -105.5t109.5 -273.5q0 -55 -12 -115q-53 -256 -317 -399q18 -16 27.5 -30.5t13.5 -37.5l80 -358h-517l-67 293q-4 23 -15.5 33t-33.5 10h-21l-69 -336h-496zM399 1851h338l105 -219l202 219h359l-453 -442h-286zM606 723h121 q121 0 141 102q4 25 4 35q0 37 -22.5 54.5t-71.5 17.5h-129z" />
<glyph unicode="&#x159;" horiz-adv-x="878" d="M-43 0l205 971h485v-56q63 31 154.5 53.5t181.5 22.5l-76 -364q-82 0 -178 -11.5t-154 -29.5l-122 -586h-496zM53 1511h338l105 -219l202 219h359l-453 -442h-287z" />
<glyph unicode="&#x15a;" horiz-adv-x="1146" d="M-57 72l77 370q88 -47 202 -77.5t208 -30.5q66 0 104.5 17.5t38.5 49.5q0 20 -23.5 34t-84.5 36q-57 18 -105 39q-137 57 -199.5 127t-62.5 176q0 55 15 115q45 213 201.5 312t465.5 99q96 0 218 -19.5t202 -43.5l-80 -373q-176 80 -332 80q-170 0 -170 -57 q0 -18 26 -30.5t97 -33.5l56 -16q166 -51 235.5 -127t69.5 -191q0 -55 -17 -133q-45 -201 -204.5 -308t-472.5 -107q-142 0 -265 23.5t-200 68.5zM551 1409l295 463h381l-314 -463h-362z" />
<glyph unicode="&#x15b;" horiz-adv-x="1038" d="M-66 49l66 313q61 -37 162.5 -59t173.5 -22q61 0 85.5 3t29.5 19q2 12 -20.5 22.5t-72.5 22.5q-86 25 -110 35q-104 41 -151.5 90t-47.5 127q0 39 8 74q35 160 175.5 238.5t416.5 78.5q98 0 215 -14t174 -35l-65 -311q-59 27 -132 43t-130 16q-70 0 -108 -4t-42 -22 q-2 -10 19.5 -19.5t72.5 -21.5q55 -12 97 -25q115 -37 166 -87t51 -128q0 -33 -11 -80q-70 -324 -587 -323q-136 0 -255.5 19t-179.5 50zM401 1069l295 463h381l-313 -463h-363z" />
<glyph unicode="&#x15c;" horiz-adv-x="1146" d="M-57 72l77 370q88 -47 202 -77.5t208 -30.5q66 0 104.5 17.5t38.5 49.5q0 20 -23.5 34t-84.5 36q-57 18 -105 39q-137 57 -199.5 127t-62.5 176q0 55 15 115q45 213 201.5 312t465.5 99q96 0 218 -19.5t202 -43.5l-80 -373q-176 80 -332 80q-170 0 -170 -57 q0 -18 26 -30.5t97 -33.5l56 -16q166 -51 235.5 -127t69.5 -191q0 -55 -17 -133q-45 -201 -204.5 -308t-472.5 -107q-142 0 -265 23.5t-200 68.5zM231 1409l451 442h289l264 -442h-330l-110 219l-195 -219h-369z" />
<glyph unicode="&#x15d;" horiz-adv-x="1038" d="M-66 49l66 313q61 -37 162.5 -59t173.5 -22q61 0 85.5 3t29.5 19q2 12 -20.5 22.5t-72.5 22.5q-86 25 -110 35q-104 41 -151.5 90t-47.5 127q0 39 8 74q35 160 175.5 238.5t416.5 78.5q98 0 215 -14t174 -35l-65 -311q-59 27 -132 43t-130 16q-70 0 -108 -4t-42 -22 q-2 -10 19.5 -19.5t72.5 -21.5q55 -12 97 -25q115 -37 166 -87t51 -128q0 -33 -11 -80q-70 -324 -587 -323q-136 0 -255.5 19t-179.5 50zM123 1069l450 442h289l264 -442h-329l-111 219l-194 -219h-369z" />
<glyph unicode="&#x15e;" horiz-adv-x="1146" d="M-57 72l77 370q88 -47 202 -77.5t208 -30.5q66 0 104.5 17.5t38.5 49.5q0 20 -23.5 34t-84.5 36q-57 18 -105 39q-137 57 -199.5 127t-62.5 176q0 55 15 115q45 213 201.5 312t465.5 99q96 0 218 -19.5t202 -43.5l-80 -373q-176 80 -332 80q-170 0 -170 -57 q0 -18 26 -30.5t97 -33.5l56 -16q166 -51 235.5 -127t69.5 -191q0 -55 -17 -133q-41 -182 -174 -287.5t-391 -123.5l-33 -60q86 0 134.5 -42t48.5 -109q0 -31 -4 -45q-23 -102 -123.5 -161t-270.5 -59q-39 0 -97 5.5t-79 11.5l35 158q53 -16 115 -17q68 0 106.5 18.5 t44.5 53.5q14 57 -63 57h-152l92 191q-217 20 -331 86z" />
<glyph unicode="&#x15f;" horiz-adv-x="1038" d="M-66 49l66 313q61 -37 162.5 -59t173.5 -22q61 0 85.5 3t29.5 19q2 12 -20.5 22.5t-72.5 22.5q-86 25 -110 35q-104 41 -151.5 90t-47.5 127q0 39 8 74q35 160 175.5 238.5t416.5 78.5q98 0 215 -14t174 -35l-65 -311q-59 27 -132 43t-130 16q-70 0 -108 -4t-42 -22 q-2 -10 19.5 -19.5t72.5 -21.5q55 -12 97 -25q115 -37 166 -87t51 -128q0 -33 -11 -80q-61 -287 -477 -317l-33 -62q86 0 134.5 -42t48.5 -109q0 -31 -4 -45q-23 -102 -123.5 -161t-270.5 -59q-38 0 -96.5 5.5t-79.5 11.5l35 158q53 -16 115 -17q68 0 106.5 18.5t44.5 53.5 q14 57 -63 57h-152l92 191q-211 16 -299 63z" />
<glyph unicode="&#x160;" horiz-adv-x="1146" d="M-57 72l77 370q88 -47 202 -77.5t208 -30.5q66 0 104.5 17.5t38.5 49.5q0 20 -23.5 34t-84.5 36q-57 18 -105 39q-137 57 -199.5 127t-62.5 176q0 55 15 115q45 213 201.5 312t465.5 99q96 0 218 -19.5t202 -43.5l-80 -373q-176 80 -332 80q-170 0 -170 -57 q0 -18 26 -30.5t97 -33.5l56 -16q166 -51 235.5 -127t69.5 -191q0 -55 -17 -133q-45 -201 -204.5 -308t-472.5 -107q-142 0 -265 23.5t-200 68.5zM356 1851h338l105 -219l202 219h359l-453 -442h-286z" />
<glyph unicode="&#x161;" horiz-adv-x="1038" d="M-66 49l66 313q61 -37 162.5 -59t173.5 -22q61 0 85.5 3t29.5 19q2 12 -20.5 22.5t-72.5 22.5q-86 25 -110 35q-104 41 -151.5 90t-47.5 127q0 39 8 74q35 160 175.5 238.5t416.5 78.5q98 0 215 -14t174 -35l-65 -311q-59 27 -132 43t-130 16q-70 0 -108 -4t-42 -22 q-2 -10 19.5 -19.5t72.5 -21.5q55 -12 97 -25q115 -37 166 -87t51 -128q0 -33 -11 -80q-70 -324 -587 -323q-136 0 -255.5 19t-179.5 50zM197 1511h338l104 -219l203 219h358l-452 -442h-287z" />
<glyph unicode="&#x162;" horiz-adv-x="1146" d="M78 963l76 356h1167l-76 -356h-336l-202 -963h-129l-43 -76q86 0 134 -42t48 -109q0 -31 -4 -45q-23 -102 -123.5 -161t-270.5 -59q-38 0 -96.5 5.5t-79.5 11.5l35 158q53 -16 115 -17q68 0 106.5 18.5t44.5 53.5q14 57 -63 57h-152l101 205h-119l203 963h-336z" />
<glyph unicode="&#x163;" horiz-adv-x="811" d="M4 614l76 357h117l41 190l516 101l-62 -291h199l-86 -357h-189l-43 -206q-2 -8 -2 -25q0 -61 80 -61q66 0 127 20l-65 -307q-82 -35 -189 -47l-35 -64q86 0 134.5 -42t48.5 -109q0 -31 -4 -45q-23 -102 -123.5 -161t-270.5 -59q-38 0 -96.5 5.5t-79.5 11.5l35 158 q53 -16 115 -17q68 0 106.5 18.5t44.5 53.5q14 57 -63 57h-152l97 199q-109 25 -165.5 97.5t-56.5 182.5q0 49 13 107l49 233h-117z" />
<glyph unicode="&#x164;" horiz-adv-x="1146" d="M78 963l76 356h1167l-76 -356h-336l-202 -963h-496l203 963h-336zM350 1851h338l105 -219l202 219h359l-453 -442h-287z" />
<glyph unicode="&#x165;" horiz-adv-x="1146" d="M4 614l76 357h117l41 190l516 101l-62 -291h199l-86 -357h-189l-43 -206q-2 -8 -2 -25q0 -61 80 -61q66 0 127 20l-65 -307q-141 -55 -314 -55q-163 0 -251.5 77.5t-88.5 216.5q0 51 13 107l49 233h-117zM868 1143l183 510h366l-241 -510h-308z" />
<glyph unicode="&#x166;" horiz-adv-x="1146" d="M78 963l76 356h1167l-76 -356h-336l-32 -158h137l-68 -316h-137l-102 -489h-496l102 489h-157l67 316h158l33 158h-336z" />
<glyph unicode="&#x167;" horiz-adv-x="811" d="M-47 371l53 250h115l10 43h-117l66 307h117l41 190l516 101l-62 -291h199l-76 -307h-188l-11 -43h199l-53 -250h-193q10 -49 82 -49q66 0 127 20l-65 -307q-141 -55 -314 -55q-342 0 -342 276q0 53 13 115h-117z" />
<glyph unicode="&#x168;" horiz-adv-x="1441" d="M45 410q0 57 12 118l168 791h496l-156 -735q-12 -51 -12 -88q0 -55 31.5 -76t105.5 -21q92 0 137 43t66 142l156 735h495l-170 -799q-55 -266 -249.5 -403t-524.5 -137q-256 0 -405.5 115.5t-149.5 314.5zM500 1425l61 289q39 29 101.5 50.5t123.5 21.5q51 0 96.5 -11.5 t104.5 -33.5q63 -23 103 -34t88 -11q68 0 126 23.5t93 60.5l-62 -289q-27 -29 -87 -50.5t-122 -21.5q-49 0 -95 11.5t-118 35.5q-57 20 -98 31.5t-82 11.5q-131 0 -233 -84z" />
<glyph unicode="&#x169;" horiz-adv-x="1282" d="M8 252q0 49 12 104l132 615h495l-119 -561q-2 -8 -2 -23q0 -43 56 -43q23 0 52.5 12.5t45.5 28.5l125 586h495l-204 -971h-465v55q-63 -35 -151.5 -55t-182.5 -20q-133 0 -211 70.5t-78 201.5zM334 1085l61 289q39 29 101.5 50.5t124.5 21.5q51 0 96 -11.5t104 -33.5 q63 -23 103.5 -34t87.5 -11q68 0 126 23.5t93 60.5l-62 -289q-27 -29 -87 -50.5t-121 -21.5q-50 0 -96 11.5t-117 35.5q-57 20 -98.5 31.5t-82.5 11.5q-131 0 -233 -84z" />
<glyph unicode="&#x16a;" horiz-adv-x="1441" d="M45 410q0 57 12 118l168 791h496l-156 -735q-12 -51 -12 -88q0 -55 31.5 -76t105.5 -21q92 0 137 43t66 142l156 735h495l-170 -799q-55 -266 -249.5 -403t-524.5 -137q-256 0 -405.5 115.5t-149.5 314.5zM565 1491l62 287h712l-61 -287h-713z" />
<glyph unicode="&#x16b;" horiz-adv-x="1282" d="M8 252q0 49 12 104l132 615h495l-119 -561q-2 -8 -2 -23q0 -43 56 -43q23 0 52.5 12.5t45.5 28.5l125 586h495l-204 -971h-465v55q-63 -35 -151.5 -55t-182.5 -20q-133 0 -211 70.5t-78 201.5zM418 1151l61 287h713l-62 -287h-712z" />
<glyph unicode="&#x16c;" horiz-adv-x="1441" d="M45 410q0 57 12 118l168 791h496l-156 -735q-12 -51 -12 -88q0 -55 31.5 -76t105.5 -21q92 0 137 43t66 142l156 735h495l-170 -799q-55 -266 -249.5 -403t-524.5 -137q-256 0 -405.5 115.5t-149.5 314.5zM537 1733q0 63 14 127h301q-8 -31 -8 -68q0 -113 102 -113 q72 0 114 50.5t60 130.5h332q-47 -217 -193.5 -334t-355.5 -117q-172 0 -269 84t-97 240z" />
<glyph unicode="&#x16d;" horiz-adv-x="1282" d="M8 252q0 49 12 104l132 615h495l-119 -561q-2 -8 -2 -23q0 -43 56 -43q23 0 52.5 12.5t45.5 28.5l125 586h495l-204 -971h-465v55q-63 -35 -151.5 -55t-182.5 -20q-133 0 -211 70.5t-78 201.5zM391 1393q0 63 15 127h301q-8 -31 -9 -68q0 -113 103 -113q72 0 113.5 50.5 t60.5 130.5h332q-47 -217 -193.5 -334t-355.5 -117q-172 0 -269.5 84t-97.5 240z" />
<glyph unicode="&#x16e;" horiz-adv-x="1441" d="M45 410q0 57 12 118l168 791h496l-156 -735q-12 -51 -12 -88q0 -55 31.5 -76t105.5 -21q92 0 137 43t66 142l156 735h495l-170 -799q-55 -266 -249.5 -403t-524.5 -137q-256 0 -405.5 115.5t-149.5 314.5zM649 1636q0 33 6 66q27 129 126.5 212t248.5 83 q123 0 191.5 -63.5t68.5 -164.5q0 -23 -8 -67q-27 -129 -127 -211t-250 -82q-121 0 -188.5 63.5t-67.5 163.5zM854 1675q0 -35 22.5 -56.5t67.5 -21.5q64 0 99.5 39t35.5 93q0 35 -22.5 56t-67.5 21q-63 0 -99 -38.5t-36 -92.5z" />
<glyph unicode="&#x16f;" horiz-adv-x="1282" d="M8 252q0 49 12 104l132 615h495l-119 -561q-2 -8 -2 -23q0 -43 56 -43q23 0 52.5 12.5t45.5 28.5l125 586h495l-204 -971h-465v55q-63 -35 -151.5 -55t-182.5 -20q-133 0 -211 70.5t-78 201.5zM492 1296q0 33 6 66q27 129 126 212t248 83q123 0 192 -63.5t69 -163.5 q0 -23 -9 -68q-27 -129 -127 -211t-249 -82q-121 0 -188.5 63.5t-67.5 163.5zM696 1335q0 -35 22.5 -56.5t67.5 -21.5q64 0 100 39t36 93q0 35 -22.5 56t-68.5 21q-63 0 -99 -38.5t-36 -92.5z" />
<glyph unicode="&#x170;" horiz-adv-x="1441" d="M45 410q0 57 12 118l168 791h496l-156 -735q-12 -51 -12 -88q0 -55 31.5 -76t105.5 -21q92 0 137 43t66 142l156 735h495l-170 -799q-55 -266 -249.5 -403t-524.5 -137q-256 0 -405.5 115.5t-149.5 314.5zM410 1409l282 416h420l-319 -416h-383zM961 1409l282 416h422 l-322 -416h-382z" />
<glyph unicode="&#x171;" horiz-adv-x="1282" d="M8 252q0 49 12 104l132 615h495l-119 -561q-2 -8 -2 -23q0 -43 56 -43q23 0 52.5 12.5t45.5 28.5l125 586h495l-204 -971h-465v55q-63 -35 -151.5 -55t-182.5 -20q-133 0 -211 70.5t-78 201.5zM209 1069l283 416h419l-319 -416h-383zM760 1069l282 416h422l-321 -416 h-383z" />
<glyph unicode="&#x172;" horiz-adv-x="1441" d="M45 410q0 57 12 118l168 791h496l-156 -735q-12 -51 -12 -88q0 -55 31.5 -76t105.5 -21q92 0 137 43t66 142l156 735h495l-170 -799q-51 -240 -215 -376t-436 -158q-92 -68 -109 -142q-2 -6 -2 -16q0 -27 21.5 -37t62.5 -10q27 0 58.5 6t50.5 16l-45 -217 q-45 -14 -113.5 -25.5t-138.5 -11.5q-127 0 -195.5 41t-68.5 123q0 88 56 162t140 119q-186 33 -290.5 142.5t-104.5 273.5z" />
<glyph unicode="&#x173;" horiz-adv-x="1282" d="M8 252q0 49 12 104l132 615h495l-119 -561q-2 -8 -2 -23q0 -43 56 -43q23 0 52.5 12.5t45.5 28.5l125 586h495l-204 -971h-168q-113 -72 -133 -156q-2 -6 -2 -16q0 -27 21.5 -37t62.5 -10q27 0 58.5 6t49.5 16l-45 -217q-45 -14 -113.5 -25.5t-138.5 -11.5 q-127 0 -195.5 41t-68.5 123q0 92 60.5 167t146.5 120v55q-63 -35 -151.5 -55t-182.5 -20q-133 0 -211 70.5t-78 201.5z" />
<glyph unicode="&#x174;" horiz-adv-x="1865" d="M195 1319h483l-6 -504l135 281l47 223h403l41 -506l220 506h481l-584 -1319h-418l-49 520l-278 -520h-447zM623 1409l450 442h289l264 -442h-330l-110 219l-195 -219h-368z" />
<glyph unicode="&#x175;" horiz-adv-x="1667" d="M121 971h471l12 -332l101 180l30 152h357l16 -332l147 332h471l-462 -971h-422l-41 313l-172 -313h-455zM446 1069l451 442h289l264 -442h-330l-110 219l-195 -219h-369z" />
<glyph unicode="&#x176;" horiz-adv-x="1511" d="M195 1319h501l121 -420l297 420h531l-656 -840l-100 -479h-496l101 479zM438 1409l451 442h289l264 -442h-330l-111 219l-194 -219h-369z" />
<glyph unicode="&#x177;" horiz-adv-x="1282" d="M-10 -340l69 322q39 -10 102.5 -18.5t112.5 -8.5q164 0 256.5 28.5t100.5 71.5l8 33q-66 -35 -153 -55.5t-181 -20.5q-133 0 -210 74t-77 203q0 57 11 100l123 582h495l-112 -529q-2 -6 -3 -18q0 -47 58 -47q23 0 52.5 12t45.5 29l117 553h495l-172 -811 q-53 -256 -247.5 -388t-597.5 -132q-56 0 -156 6t-137 14zM248 1069l450 442h289l264 -442h-329l-111 219l-195 -219h-368z" />
<glyph unicode="&#x178;" horiz-adv-x="1511" d="M195 1319h501l121 -420l297 420h531l-656 -840l-100 -479h-496l101 479zM553 1470l61 289h318l-62 -289h-317zM1032 1470l62 289h319l-61 -289h-320z" />
<glyph unicode="&#x179;" horiz-adv-x="1200" d="M-84 0l51 244l625 669h-455l86 406h1108l-59 -281l-617 -661h490l-80 -377h-1149zM578 1409l294 463h381l-313 -463h-362z" />
<glyph unicode="&#x17a;" horiz-adv-x="1036" d="M-84 0l53 260l398 332h-316l80 379h948l-61 -287l-379 -328h326l-74 -356h-975zM430 1069l295 463h381l-313 -463h-363z" />
<glyph unicode="&#x17b;" horiz-adv-x="1200" d="M-84 0l51 244l625 669h-455l86 406h1108l-59 -281l-617 -661h490l-80 -377h-1149zM659 1470l60 289h319l-61 -289h-318z" />
<glyph unicode="&#x17c;" horiz-adv-x="1036" d="M-84 0l53 260l398 332h-316l80 379h948l-61 -287l-379 -328h326l-74 -356h-975zM473 1130l59 289h320l-61 -289h-318z" />
<glyph unicode="&#x17d;" horiz-adv-x="1200" d="M-84 0l51 244l625 669h-455l86 406h1108l-59 -281l-617 -661h490l-80 -377h-1149zM418 1851h338l104 -219l203 219h358l-452 -442h-287z" />
<glyph unicode="&#x17e;" horiz-adv-x="1036" d="M-84 0l53 260l398 332h-316l80 379h948l-61 -287l-379 -328h326l-74 -356h-975zM197 1511h338l104 -219l203 219h358l-452 -442h-287z" />
<glyph unicode="&#x18f;" horiz-adv-x="1441" d="M25 444q0 61 16 148l49 231h928q2 76 -26.5 120t-104.5 64.5t-219 20.5q-100 0 -256 -29.5t-234 -60.5l64 301q121 43 279.5 71.5t320.5 28.5q184 0 321 -65.5t212 -186t75 -282.5q0 -80 -18 -166q-68 -317 -267.5 -488t-570.5 -171q-260 0 -414.5 121.5t-154.5 342.5z M434 424q0 -68 51.5 -111t171.5 -43q244 0 295 244h-503l-9 -39q-6 -25 -6 -51z" />
<glyph unicode="&#x192;" horiz-adv-x="1046" d="M-401 -197l129 308q49 -20 114 -21q96 0 129 82l187 442h-115l152 357h114l13 30q84 195 224 303.5t365 108.5q92 0 158 -13.5t119 -41.5l-127 -307q-53 20 -115 20q-100 0 -133 -82l-8 -18h211l-172 -357h-191l-190 -454q-82 -197 -217 -304.5t-371 -107.5 q-92 0 -157.5 13.5t-118.5 41.5z" />
<glyph unicode="&#x1a0;" horiz-adv-x="1681" d="M31 451q0 92 24 208q78 365 286 522.5t566 157.5q283 0 430 -108q84 4 128 44t65 134h346q-47 -213 -135 -322.5t-250 -148.5q2 -18 2 -59q0 -96 -25 -220q-78 -365 -283.5 -522t-568.5 -157q-278 0 -431.5 112.5t-153.5 358.5zM545 530q0 -72 36.5 -101.5t125.5 -29.5 q108 0 166.5 58.5t89.5 201.5q18 92 18 129q0 72 -38 102t-126 30q-109 0 -167 -58.5t-89 -202.5q-16 -82 -16 -129z" />
<glyph unicode="&#x1a1;" horiz-adv-x="1570" d="M4 356q0 63 14 129q55 254 229.5 380t487.5 126q246 0 381 -92q88 0 133 18.5t67.5 59.5t35.5 121h346q-49 -231 -150.5 -349t-292.5 -151q-4 -61 -14 -113q-55 -256 -228 -380.5t-493 -124.5q-248 0 -382 95t-134 281zM516 414q0 -43 19.5 -61.5t60.5 -18.5 q55 0 88 33.5t51 117.5q8 39 8 70q0 45 -20.5 63.5t-60.5 18.5q-53 0 -86 -34t-52 -118q-8 -39 -8 -71z" />
<glyph unicode="&#x1af;" horiz-adv-x="1863" d="M45 410q0 57 12 118l168 791h496l-156 -735q-12 -51 -12 -88q0 -55 31.5 -76t105.5 -21q92 0 137 43t66 142l156 735h495l-18 -88q92 4 130 42t56 136h346q-39 -184 -109.5 -289.5t-187 -152.5t-303.5 -52l-84 -395q-55 -266 -249.5 -403t-524.5 -137 q-256 0 -405.5 115.5t-149.5 314.5z" />
<glyph unicode="&#x1b0;" horiz-adv-x="1652" d="M8 252q0 49 12 104l132 615h495l-119 -561q-2 -8 -2 -23q0 -43 56 -43q23 0 52.5 12.5t45.5 28.5l125 586h495l-14 -70q80 8 116 50t52 147h346q-37 -180 -106.5 -290t-184 -163t-290.5 -61l-123 -584h-465v55q-63 -35 -151.5 -55t-182.5 -20q-133 0 -211 70.5t-78 201.5 z" />
<glyph unicode="&#x1cd;" horiz-adv-x="1591" d="M-84 0l786 1319h515l229 -1319h-492l-43 246h-319l-146 -246h-530zM571 1851h338l105 -219l203 219h358l-453 -442h-286zM717 584h201l-48 252z" />
<glyph unicode="&#x1ce;" horiz-adv-x="1286" d="M-8 299q0 57 16 143q55 262 204.5 405.5t379.5 143.5q72 0 127 -19.5t88 -51.5l10 51h488l-205 -971h-430l-11 63q-63 -39 -145 -61t-170 -22q-168 0 -260 79.5t-92 239.5zM322 1511h337l105 -219l203 219h358l-453 -442h-286zM512 403q0 -41 19.5 -55t56.5 -14 q51 0 92 31l51 241q-16 16 -33.5 23.5t-44.5 7.5q-98 0 -135 -178q-6 -33 -6 -56z" />
<glyph unicode="&#x1cf;" horiz-adv-x="638" d="M-43 0l279 1319h495l-278 -1319h-496zM96 1851h338l105 -219l202 219h359l-453 -442h-287z" />
<glyph unicode="&#x1d0;" horiz-adv-x="774" d="M86 614l117 357h590l-205 -971h-496l129 614h-135zM139 1511h338l105 -219l202 219h359l-453 -442h-287z" />
<glyph unicode="&#x1d1;" horiz-adv-x="1474" d="M31 451q0 92 24 208q78 365 286 522.5t566 157.5q283 0 434.5 -110.5t151.5 -354.5q0 -94 -25 -215q-78 -365 -283.5 -522t-568.5 -157q-278 0 -431.5 112.5t-153.5 358.5zM514 1851h338l104 -219l203 219h359l-453 -442h-287zM545 530q0 -72 36.5 -101.5t125.5 -29.5 q108 0 166.5 58.5t89.5 201.5q18 92 18 129q0 72 -38 102t-126 30q-109 0 -167 -58.5t-89 -202.5q-16 -82 -16 -129z" />
<glyph unicode="&#x1d2;" horiz-adv-x="1284" d="M4 356q0 63 14 129q55 254 229.5 380t487.5 126q252 0 386 -95t134 -282q0 -63 -14 -129q-55 -256 -228 -380.5t-493 -124.5q-248 0 -382 95t-134 281zM346 1511h338l104 -219l203 219h359l-453 -442h-287zM516 414q0 -43 19.5 -61.5t60.5 -18.5q55 0 88 33.5t51 117.5 q8 39 8 70q0 45 -20.5 63.5t-60.5 18.5q-53 0 -86 -34t-52 -118q-8 -39 -8 -71z" />
<glyph unicode="&#x1d3;" horiz-adv-x="1441" d="M45 410q0 57 12 118l168 791h496l-156 -735q-12 -51 -12 -88q0 -55 31.5 -76t105.5 -21q92 0 137 43t66 142l156 735h495l-170 -799q-55 -266 -249.5 -403t-524.5 -137q-256 0 -405.5 115.5t-149.5 314.5zM498 1851h338l104 -219l203 219h358l-452 -442h-287z" />
<glyph unicode="&#x1d4;" horiz-adv-x="1282" d="M8 252q0 49 12 104l132 615h495l-119 -561q-2 -8 -2 -23q0 -43 56 -43q23 0 52.5 12.5t45.5 28.5l125 586h495l-204 -971h-465v55q-63 -35 -151.5 -55t-182.5 -20q-133 0 -211 70.5t-78 201.5zM336 1511h338l104 -219l203 219h358l-452 -442h-287z" />
<glyph unicode="&#x1d5;" horiz-adv-x="1441" d="M45 410q0 57 12 118l168 791h496l-156 -735q-12 -51 -12 -88q0 -55 31.5 -76t105.5 -21q92 0 137 43t66 142l156 735h495l-170 -799q-55 -266 -249.5 -403t-524.5 -137q-256 0 -405.5 115.5t-149.5 314.5zM510 1427l61 289h318l-62 -289h-317zM635 1819l61 286h713 l-61 -286h-713zM989 1427l62 289h319l-61 -289h-320z" />
<glyph unicode="&#x1d6;" horiz-adv-x="1282" d="M8 252q0 49 12 104l132 615h495l-119 -561q-2 -8 -2 -23q0 -43 56 -43q23 0 52.5 12.5t45.5 28.5l125 586h495l-204 -971h-465v55q-63 -35 -151.5 -55t-182.5 -20q-133 0 -211 70.5t-78 201.5zM358 1090l62 288h317l-61 -288h-318zM483 1475l62 286h712l-61 -286h-713z M838 1090l61 288h320l-62 -288h-319z" />
<glyph unicode="&#x1d7;" horiz-adv-x="1441" d="M45 410q0 57 12 118l168 791h496l-156 -735q-12 -51 -12 -88q0 -55 31.5 -76t105.5 -21q92 0 137 43t66 142l156 735h495l-170 -799q-55 -266 -249.5 -403t-524.5 -137q-256 0 -405.5 115.5t-149.5 314.5zM520 1430l58 272h311l-58 -272h-311zM809 1765l176 297h365 l-213 -297h-328zM989 1430l58 272h311l-58 -272h-311z" />
<glyph unicode="&#x1d8;" horiz-adv-x="1282" d="M8 252q0 49 12 104l132 615h495l-119 -561q-2 -8 -2 -23q0 -43 56 -43q23 0 52.5 12.5t45.5 28.5l125 586h495l-204 -971h-465v55q-63 -35 -151.5 -55t-182.5 -20q-133 0 -211 70.5t-78 201.5zM369 1147l57 272h311l-57 -272h-311zM657 1483l177 297h364l-213 -297h-328z M838 1147l57 272h311l-57 -272h-311z" />
<glyph unicode="&#x1d9;" horiz-adv-x="1441" d="M45 410q0 57 12 118l168 791h496l-156 -735q-12 -51 -12 -88q0 -55 31.5 -76t105.5 -21q92 0 137 43t66 142l156 735h495l-170 -799q-55 -266 -249.5 -403t-524.5 -137q-256 0 -405.5 115.5t-149.5 314.5zM512 1430l57 272h312l-58 -272h-311zM571 2062h351l84 -149 l149 149h363l-365 -297h-338zM981 1430l57 272h310l-58 -272h-309z" />
<glyph unicode="&#x1da;" horiz-adv-x="1282" d="M8 252q0 49 12 104l132 615h495l-119 -561q-2 -8 -2 -23q0 -43 56 -43q23 0 52.5 12.5t45.5 28.5l125 586h495l-204 -971h-465v55q-63 -35 -151.5 -55t-182.5 -20q-133 0 -211 70.5t-78 201.5zM360 1090l58 272h311l-57 -272h-312zM420 1722h350l84 -149l150 149h362 l-365 -297h-337zM829 1090l58 272h309l-57 -272h-310z" />
<glyph unicode="&#x1db;" horiz-adv-x="1441" d="M45 410q0 57 12 118l168 791h496l-156 -735q-12 -51 -12 -88q0 -55 31.5 -76t105.5 -21q92 0 137 43t66 142l156 735h495l-170 -799q-55 -266 -249.5 -403t-524.5 -137q-256 0 -405.5 115.5t-149.5 314.5zM535 1501l57 273h311l-57 -273h-311zM752 2134h364l53 -297h-327 zM1004 1501l57 273h311l-57 -273h-311z" />
<glyph unicode="&#x1dc;" horiz-adv-x="1282" d="M8 252q0 49 12 104l132 615h495l-119 -561q-2 -8 -2 -23q0 -43 56 -43q23 0 52.5 12.5t45.5 28.5l125 586h495l-204 -971h-465v55q-63 -35 -151.5 -55t-182.5 -20q-133 0 -211 70.5t-78 201.5zM385 1147l57 272h312l-58 -272h-311zM602 1780h365l53 -297h-328zM854 1147 l57 272h312l-58 -272h-311z" />
<glyph unicode="&#x1e6;" horiz-adv-x="1357" d="M35 481q0 88 20 178q72 340 306.5 510t642.5 170q227 0 407 -67l-86 -414q-152 63 -379 64q-156 0 -255 -60.5t-130 -202.5q-14 -59 -14 -112q0 -82 50 -116t167 -34q66 0 125 15l18 80h-219l64 299h628l-145 -682q-104 -57 -245.5 -93t-311.5 -36q-305 0 -474 128 t-169 373zM555 1849h338l104 -219l203 219h359l-453 -442h-287z" />
<glyph unicode="&#x1e7;" horiz-adv-x="1286" d="M-6 -340l69 322q37 -10 103.5 -18.5t112.5 -8.5q162 0 242.5 17.5t88.5 58.5l4 18q-45 -16 -105 -26.5t-114 -10.5q-193 0 -295 78t-102 236q0 72 16 139q57 256 209 391t367 135q84 0 142.5 -21.5t107.5 -62.5l34 64h431l-175 -824q-35 -168 -127 -279.5t-266 -169.5 t-450 -58q-56 0 -156 6t-137 14zM309 1511h338l105 -219l202 219h359l-453 -442h-287zM512 403q0 -41 19.5 -55t56.5 -14q28 0 48.5 7t43.5 24l51 241q-16 16 -30.5 23.5t-41.5 7.5q-47 0 -82.5 -40t-54.5 -124q-10 -47 -10 -70z" />
<glyph unicode="&#x1fa;" horiz-adv-x="1591" d="M-84 0l786 1319h3q-27 53 -27 113q0 33 6 65q27 129 126 212t249 83q123 0 191.5 -63.5t68.5 -163.5q0 -23 -8 -68q-22 -104 -94 -180l229 -1317h-492l-43 246h-319l-146 -246h-530zM717 584h201l-48 252zM883 1470q0 -35 22.5 -56t67.5 -21q63 0 99 38.5t36 92.5 q0 35 -22.5 56.5t-67.5 21.5q-64 0 -99.5 -39t-35.5 -93zM926 1858l295 368h381l-314 -368h-362z" />
<glyph unicode="&#x1fb;" horiz-adv-x="1286" d="M-8 299q0 57 16 143q55 262 204.5 405.5t379.5 143.5q72 0 127 -19.5t88 -51.5l10 51h488l-205 -971h-430l-11 63q-63 -39 -145 -61t-170 -22q-168 0 -260 79.5t-92 239.5zM473 1276q0 33 6 65q27 129 126.5 212t248.5 83q123 0 191.5 -63.5t68.5 -163.5q0 -23 -8 -68 q-27 -129 -127 -210.5t-250 -81.5q-121 0 -188.5 63.5t-67.5 163.5zM512 403q0 -41 19.5 -55t56.5 -14q51 0 92 31l51 241q-16 16 -33.5 23.5t-44.5 7.5q-98 0 -135 -178q-6 -33 -6 -56zM678 1315q0 -35 22.5 -56.5t67.5 -21.5q63 0 99 39t36 92q0 35 -22.5 56.5t-67.5 21.5 q-63 0 -99 -39t-36 -92zM713 1686l295 368h381l-314 -368h-362z" />
<glyph unicode="&#x1fc;" horiz-adv-x="1789" d="M-84 0l786 1319h1221l-76 -356h-456l-25 -119h379l-78 -369h-379l-26 -119h456l-73 -356h-932l51 246h-186l-146 -246h-516zM702 584h134l79 379h-12zM1020 1409l295 463h381l-314 -463h-362z" />
<glyph unicode="&#x1fd;" horiz-adv-x="1820" d="M-29 229q0 39 9 74q70 332 491 332h217l2 10q6 25 -36 41t-126 16q-80 0 -174 -13t-178 -38l57 267q86 33 206 53t235 20q94 0 175 -25.5t128 -70.5q68 43 166 69.5t192 26.5q217 0 339 -93t122 -263q0 -55 -12 -117l-35 -166h-647q49 -82 268 -82q86 0 175 14.5 t149 34.5l-58 -266q-168 -74 -450 -73q-106 0 -205.5 39.5t-153.5 107.5q-88 -74 -200.5 -110.5t-294.5 -36.5q-162 0 -261.5 62t-99.5 187zM436 299q0 -49 60 -49q75 0 120 45l19 90h-90q-47 0 -73 -15.5t-34 -52.5q-2 -6 -2 -18zM797 1069l295 463h381l-314 -463h-362z M1155 600h223l4 18q2 6 2 17q0 29 -22.5 46t-71.5 17q-57 0 -91 -26.5t-44 -71.5z" />
<glyph unicode="&#x1fe;" horiz-adv-x="1474" d="M31 449q0 94 24 210q78 365 286 522.5t566 157.5q86 0 187 -14l59 94h158l-82 -131q264 -100 264 -414q0 -94 -25 -215q-78 -365 -283.5 -522t-568.5 -157q-96 0 -190 16l-64 -105h-157l88 142q-262 104 -262 416zM535 539q0 -53 18 -88l297 479q-10 2 -31 2 q-115 0 -175 -61.5t-93 -211.5q-16 -76 -16 -120zM631 1409l295 463h381l-314 -463h-362zM670 387h35q115 0 175 61.5t93 210.5q14 66 14 121t-18 90z" />
<glyph unicode="&#x1ff;" horiz-adv-x="1284" d="M4 354q0 66 14 131q55 254 229.5 380t487.5 126q45 0 123 -8l62 98h157l-78 -127q125 -41 190.5 -126t65.5 -214q0 -66 -14 -129q-55 -256 -228 -380.5t-493 -124.5q-45 0 -123 8l-59 -99h-158l78 125q-254 86 -254 340zM387 1069l295 463h381l-313 -463h-363zM471 408 q0 -16 4 -41l195 311q-72 0 -119 -44t-70 -149q-10 -39 -10 -77zM588 293q71 0 119.5 44t70.5 148q8 41 8 78q0 31 -4 43z" />
<glyph unicode="&#x218;" horiz-adv-x="1146" d="M-57 72l77 370q88 -47 202 -77.5t208 -30.5q66 0 104.5 17.5t38.5 49.5q0 20 -23.5 34t-84.5 36q-57 18 -105 39q-137 57 -199.5 127t-62.5 176q0 55 15 115q45 213 201.5 312t465.5 99q96 0 218 -19.5t202 -43.5l-80 -373q-176 80 -332 80q-170 0 -170 -57 q0 -18 26 -30.5t97 -33.5l56 -16q166 -51 235.5 -127t69.5 -191q0 -55 -17 -133q-45 -201 -204.5 -308t-472.5 -107q-142 0 -265 23.5t-200 68.5zM96 -494l160 418h410l-193 -418h-377z" />
<glyph unicode="&#x219;" horiz-adv-x="1038" d="M-66 49l66 313q61 -37 162.5 -59t173.5 -22q61 0 85.5 3t29.5 19q2 12 -20.5 22.5t-72.5 22.5q-86 25 -110 35q-104 41 -151.5 90t-47.5 127q0 39 8 74q35 160 175.5 238.5t416.5 78.5q98 0 215 -14t174 -35l-65 -311q-59 27 -132 43t-130 16q-70 0 -108 -4t-42 -22 q-2 -10 19.5 -19.5t72.5 -21.5q55 -12 97 -25q115 -37 166 -87t51 -128q0 -33 -11 -80q-70 -324 -587 -323q-136 0 -255.5 19t-179.5 50zM35 -494l160 418h409l-192 -418h-377z" />
<glyph unicode="&#x21a;" horiz-adv-x="1146" d="M78 963l76 356h1167l-76 -356h-336l-202 -963h-496l203 963h-336zM98 -586l183 510h366l-241 -510h-308z" />
<glyph unicode="&#x21b;" horiz-adv-x="811" d="M4 614l76 357h117l41 190l516 101l-62 -291h199l-86 -357h-189l-43 -206q-2 -8 -2 -25q0 -61 80 -61q66 0 127 20l-65 -307q-141 -55 -314 -55q-163 0 -251.5 77.5t-88.5 216.5q0 51 13 107l49 233h-117zM18 -586l183 510h366l-241 -510h-308z" />
<glyph unicode="&#x237;" horiz-adv-x="770" d="M-217 -424l63 307q55 -20 119 -20q94 0 115 82l139 669h-133l115 357h590l-226 -1059q-37 -180 -160.5 -285.5t-332.5 -105.5q-172 0 -289 55z" />
<glyph unicode="&#x251;" horiz-adv-x="1286" d="M-8 299q0 57 16 143q55 262 204.5 405.5t379.5 143.5q72 0 127 -19.5t88 -51.5l10 51h488l-205 -971h-430l-11 63q-63 -39 -145 -61t-170 -22q-168 0 -260 79.5t-92 239.5zM512 403q0 -41 19.5 -55t56.5 -14q51 0 92 31l51 241q-16 16 -33.5 23.5t-44.5 7.5 q-98 0 -135 -178q-6 -33 -6 -56z" />
<glyph unicode="&#x259;" horiz-adv-x="1161" d="M-2 348q0 49 12 105l37 165h647q-14 33 -35.5 49.5t-72.5 24.5t-150 8q-88 0 -182 -14t-152 -35l58 267q84 35 214 54t267 19q211 0 351.5 -96t140.5 -287q0 -43 -15 -119q-51 -238 -215 -373.5t-461 -135.5q-198 0 -321 100t-123 268zM412 336q0 -29 22.5 -46.5 t71.5 -17.5q57 0 91 27t44 72h-223l-4 -19q-2 -6 -2 -16z" />
<glyph unicode="&#x2bb;" horiz-adv-x="608" d="M90 821l287 518h371l-250 -518h-408z" />
<glyph unicode="&#x2bc;" horiz-adv-x="608" d="M90 821l250 518h408l-287 -518h-371z" />
<glyph unicode="&#x2be;" d="M-780 889l63 297q82 0 125 21.5t57 90.5q4 29 5 37q0 47 -35 62.5t-105 15.5l64 297q193 0 286 -69.5t93 -210.5q0 -55 -17 -132q-43 -207 -174 -308t-362 -101z" />
<glyph unicode="&#x2bf;" d="M-709 1171q0 61 15 127q45 209 175 310.5t363 101.5l-63 -297q-82 0 -125 -21.5t-59 -93.5q-4 -25 -5 -34q0 -47 36 -62.5t106 -15.5l-64 -297q-194 0 -286.5 69.5t-92.5 212.5z" />
<glyph unicode="&#x2c6;" horiz-adv-x="512" d="M-135 1069l450 442h289l264 -442h-329l-111 219l-197 -219h-366z" />
<glyph unicode="&#x2c7;" horiz-adv-x="512" d="M-43 1511h340l104 -219l203 219h359l-453 -442h-289z" />
<glyph unicode="&#x2c8;" d="M-156 963l95 448h307l-96 -448h-306z" />
<glyph unicode="&#x2c9;" d="M291 1135l61 286h715l-61 -286h-715z" />
<glyph unicode="&#x2ca;" d="M-276 1069l292 463h381l-313 -463h-360z" />
<glyph unicode="&#x2cb;" d="M-178 1532h379l98 -463h-362z" />
<glyph unicode="&#x2cc;" d="M-473 -532l96 448h305l-94 -448h-307z" />
<glyph unicode="&#x2d8;" horiz-adv-x="452" d="M-33 1397q0 63 15 127h303q-8 -31 -9 -68q0 -113 103 -113q72 0 114 50.5t60 130.5h332q-47 -217 -193.5 -334t-355.5 -117q-174 0 -271.5 84t-97.5 240z" />
<glyph unicode="&#x2d9;" horiz-adv-x="133" d="M29 1126l61 289h320l-62 -289h-319z" />
<glyph unicode="&#x2da;" horiz-adv-x="452" d="M70 1255q0 37 8 70q29 131 124 213t253 82q127 0 193.5 -60.5t66.5 -162.5q0 -39 -8 -72q-29 -131 -125.5 -212t-251.5 -81q-127 0 -193.5 61.5t-66.5 161.5zM276 1292q0 -72 93 -71q63 0 100 41t37 94q0 33 -22.5 53.5t-69.5 20.5q-63 0 -100.5 -41t-37.5 -97z" />
<glyph unicode="&#x2db;" horiz-adv-x="333" d="M-260 -287q0 92 60.5 167t148.5 120h295q-115 -74 -135 -156q-2 -6 -3 -16q0 -27 22 -37t65 -10q27 0 58.5 6t49.5 16l-45 -217q-45 -14 -114.5 -25.5t-139.5 -11.5q-125 0 -193.5 41t-68.5 123z" />
<glyph unicode="&#x2dc;" horiz-adv-x="595" d="M0 1096l61 288q39 29 101.5 50.5t124.5 21.5q51 0 96 -11t104 -34q63 -23 103.5 -34t87.5 -11q68 0 126 23.5t93 60.5l-61 -289q-27 -29 -87.5 -50t-121.5 -21q-49 0 -95.5 11t-117.5 36q-57 20 -98.5 31.5t-82.5 11.5q-131 0 -233 -84z" />
<glyph unicode="&#x2dd;" horiz-adv-x="643" d="M-123 1063l281 416h422l-322 -416h-381zM428 1063l283 416h422l-322 -416h-383z" />
<glyph unicode="&#x300;" d="M-881 1532h381l99 -463h-363z" />
<glyph unicode="&#x301;" d="M-979 1069l295 463h381l-313 -463h-363z" />
<glyph unicode="&#x302;" d="M-504 1069l451 442h289l264 -442h-330l-111 219l-194 -219h-369z" />
<glyph unicode="&#x303;" d="M-1061 1096l62 288q39 29 101 50.5t124 21.5q51 0 96 -11t105 -34q63 -23 103 -34t87 -11q68 0 126 23.5t93 60.5l-61 -289q-27 -29 -87.5 -50t-121.5 -21q-49 0 -95 11t-118 36q-57 20 -98 31.5t-82 11.5q-131 0 -234 -84z" />
<glyph unicode="&#x304;" d="M-338 1135l62 286h712l-61 -286h-713z" />
<glyph unicode="&#x306;" d="M-346 1397q0 63 14 127h301q-8 -31 -8 -68q0 -113 102 -113q72 0 114 50.5t61 130.5h331q-47 -217 -193.5 -334t-355.5 -117q-172 0 -269 84t-97 240z" />
<glyph unicode="&#x307;" d="M-127 1126l59 289h320l-62 -289h-317z" />
<glyph unicode="&#x308;" d="M-276 1126l61 289h317l-61 -289h-317zM203 1126l61 289h320l-62 -289h-319z" />
<glyph unicode="&#x309;" d="M-782 1026l34 166q176 10 191 80q8 31 -14.5 44t-75.5 13q-61 0 -119 -20l41 192q117 31 272 31q129 0 199 -49t70 -129q0 -12 -4 -41q-20 -90 -68.5 -137.5t-144.5 -75.5l-17 -74h-364z" />
<glyph unicode="&#x30a;" d="M-244 1260q0 33 6 65q27 129 126.5 212t248.5 83q123 0 191.5 -63.5t68.5 -163.5q0 -23 -8 -68q-27 -129 -127 -211t-250 -82q-121 0 -188.5 63.5t-67.5 164.5zM-39 1298q0 -35 22.5 -56t67.5 -21q64 0 99.5 38.5t35.5 92.5q0 35 -22.5 56.5t-67.5 21.5q-63 0 -99 -39 t-36 -93z" />
<glyph unicode="&#x30b;" d="M-569 1063l282 416h420l-319 -416h-383zM-18 1063l282 416h422l-321 -416h-383z" />
<glyph unicode="&#x30c;" d="M-410 1511h338l105 -219l203 219h358l-453 -442h-286z" />
<glyph unicode="&#x31b;" d="M-264 1030l67 316q74 0 116 16t65.5 53t40.5 109h346q-41 -188 -115 -295t-198 -153t-322 -46z" />
<glyph unicode="&#x323;" d="M-1073 -436l61 289h320l-62 -289h-319z" />
<glyph unicode="&#x324;" d="M-700 -436l61 289h320l-62 -289h-319zM-219 -436l61 289h318l-62 -289h-317z" />
<glyph unicode="&#x326;" d="M-731 -586l182 510h367l-242 -510h-307z" />
<glyph unicode="&#x327;" d="M-485 -475l34 158q53 -16 115 -17q68 0 107 18.5t45 53.5q14 57 -64 57h-151l100 205h248l-43 -76q86 0 134 -42t48 -109q0 -31 -4 -45q-23 -102 -123 -161t-270 -59q-39 0 -97.5 5.5t-78.5 11.5z" />
<glyph unicode="&#x328;" d="M-532 -287q0 92 60 167t148 120h295q-113 -72 -133 -156q-2 -6 -2 -16q0 -27 21.5 -37t62.5 -10q27 0 58.5 6t50.5 16l-45 -217q-45 -14 -114 -25.5t-138 -11.5q-127 0 -195.5 41t-68.5 123z" />
<glyph unicode="&#x32e;" d="M-688 -207q0 61 14 125h303q-8 -31 -8 -68q0 -113 103 -112q76 0 119.5 50t52.5 130h331q-47 -221 -183 -335.5t-363 -114.5q-175 0 -272 83.5t-97 241.5z" />
<glyph unicode="&#x331;" d="M-670 -426l62 287h712l-61 -287h-713z" />
<glyph unicode="&#x394;" horiz-adv-x="1294" d="M-84 0l53 256l645 1063h390l198 -1065l-53 -254h-1233zM475 375h295l-70 366z" />
<glyph unicode="&#x3a9;" horiz-adv-x="1523" d="M-70 0l76 358h170q-113 111 -113 283q0 57 13 119q68 317 293 490t579 173q299 0 455 -124.5t156 -358.5q0 -86 -21 -180q-57 -270 -268 -402h170l-76 -358h-678l78 375q115 63 175 149t87 205q12 59 12 102q0 172 -178 173q-227 0 -285 -275q-12 -57 -12 -113 q0 -76 29 -135t94 -106l-78 -375h-678z" />
<glyph unicode="&#x3bc;" horiz-adv-x="1292" d="M-106 -293l268 1264h495l-118 -561q-2 -8 -2 -23q0 -43 55 -43q23 0 52.5 12.5t45.5 28.5l125 586h496l-205 -971h-465v55q-33 -33 -88 -54t-107 -21l-57 -273h-495z" />
<glyph unicode="&#x3c0;" horiz-adv-x="1443" d="M14 0l121 571h-119l84 400h1323l-84 -400h-118l-35 -163q-2 -8 -2 -25q0 -61 80 -61q66 0 127 20l-66 -307q-141 -55 -313 -55q-168 0 -254 75.5t-86 212.5q0 51 12 113l41 190h-94l-121 -571h-496z" />
<glyph unicode="&#xe01;" horiz-adv-x="1335" d="M-63 0l71 346q16 68 69.5 131.5t123.5 87.5l-154 60l68 317q137 80 301 132t340 52q270 0 406 -105.5t136 -270.5q0 -45 -8 -84l-141 -666h-516l133 635q8 49 8 61q0 45 -27.5 65.5t-91.5 20.5q-84 0 -163 -32v-5l186 -73l-41 -195q-102 -33 -125 -143l-70 -334h-505z " />
<glyph unicode="&#xe02;" horiz-adv-x="1267" d="M23 322q0 43 8 81l8 37q12 55 39.5 98.5t73.5 94.5q20 23 38.5 46t20.5 42q2 8 2 20q0 16 -10 24.5t-35 8.5h-88l108 332h365q199 0 199 -152q0 -27 -7 -61q-12 -57 -44.5 -106.5t-88.5 -112.5q-45 -51 -70.5 -88t-33.5 -74l-8 -39q-4 -20 -4 -31q0 -33 22.5 -48 t71.5 -15q66 0 98.5 28.5t42.5 79.5l131 619h453l-148 -694q-45 -215 -207.5 -323.5t-455.5 -108.5q-219 0 -350 93t-131 249z" />
<glyph unicode="&#xe03;" horiz-adv-x="1316" d="M59 684l91 422h262l-13 -57q37 20 102.5 38.5t121.5 18.5q98 0 148 -41t50 -115q0 -27 -6 -57q-16 -76 -57 -134.5t-107 -125.5q-49 -53 -70.5 -81t-27.5 -58l-4 -21q-4 -20 -4 -31q0 -33 22.5 -48t71.5 -15q57 0 94 29.5t47 78.5l131 619h453l-147 -694 q-92 -432 -664 -432q-145 0 -256 39.5t-172.5 112.5t-61.5 165q0 29 7 55l6 33q14 66 64 123t130 127q45 39 68.5 63.5t28.5 42.5q2 6 2 17q0 23 -27 22q-12 0 -20.5 -5t-18.5 -15l-16 -76h-228z" />
<glyph unicode="&#xe04;" horiz-adv-x="1359" d="M-43 0l133 627q104 500 713 499q244 0 380 -104t136 -287q0 -49 -12 -108l-133 -627h-496l123 584q8 45 8 57q0 37 -21.5 51.5t-72.5 14.5q-61 0 -92 -27t-48 -96l-12 -54q37 18 101 19h73l-73 -340h-80q-51 0 -92 -19l-39 -190h-496z" />
<glyph unicode="&#xe05;" horiz-adv-x="1359" d="M-43 0l170 805q68 322 399 321q78 0 145.5 -25.5t108.5 -78.5q61 53 141 78.5t160 25.5q133 0 203 -61t70 -172q0 -37 -11 -88l-169 -805h-496l135 643q6 25 6 41q0 12 -6 17.5t-20 5.5q-25 0 -52 -37h-69q-6 20 -11.5 28.5t-21.5 8.5q-23 0 -33 -13.5t-18 -50.5 l-25 -113q47 18 96 19h78l-73 -340h-80q-51 0 -92 -21l-39 -188h-496z" />
<glyph unicode="&#xe06;" horiz-adv-x="1347" d="M-25 0l66 311q18 86 75.5 157t147.5 155q47 41 72.5 69.5t30.5 48.5q2 6 2 17q0 23 -27 22q-12 0 -20.5 -5t-18.5 -15l-16 -76h-228l91 422h305l-13 -57q111 57 217 57q86 0 135.5 -45t49.5 -121q0 -18 -8 -59q-25 -109 -66 -170.5t-106 -126.5q-47 -47 -70 -78t-33 -76 l-10 -45q10 -16 44 -28.5t58 -12.5q94 0 115 90l141 672h486l-160 -750q-82 -377 -463 -376q-98 0 -177 23.5t-132 62.5l-27 -66h-461z" />
<glyph unicode="&#xe07;" horiz-adv-x="1308" d="M82 784h459l84 -473q53 20 93 91t62 180q8 39 8 71q0 61 -32.5 88t-96.5 27h-73l71 338h189q219 0 339 -98.5t120 -278.5q0 -68 -19 -145q-70 -311 -261 -457.5t-497 -146.5q-77 0 -166.5 13t-146.5 36z" />
<glyph unicode="&#xe08;" horiz-adv-x="1185" d="M-14 334l90 340h401l53 -322q90 59 123 207q10 55 11 88q0 74 -49.5 106.5t-168.5 32.5q-160 0 -374 -55l67 318q123 39 257 58t247 19q268 0 400.5 -105.5t132.5 -301.5q0 -76 -19 -162q-41 -188 -143.5 -318t-246.5 -194.5t-310 -64.5q-82 0 -164 13t-119 34l-49 307 h-139z" />
<glyph unicode="&#xe09;" horiz-adv-x="1286" d="M-12 260q0 55 10 96l55 258h496l-37 -180q-4 -29 -4 -37q0 -29 16.5 -41t50.5 -12q31 0 61 11.5t48 29.5l39 174q10 55 10 86q0 76 -53 108.5t-176 32.5q-84 0 -213 -15t-221 -40l67 318q123 39 273.5 58t289.5 19q274 0 405.5 -99t131.5 -296q0 -84 -20 -174l-117 -557 h-461l-2 66q-158 -86 -346 -86q-139 0 -221 75.5t-82 204.5z" />
<glyph unicode="&#xe0a;" horiz-adv-x="1302" d="M18 307q0 35 11 82l8 37q12 59 40.5 105.5t76.5 101.5q27 31 41 50t16 38q2 8 2 20q0 16 -10 24.5t-35 8.5h-88l108 332h344q98 0 148.5 -41t50.5 -117q0 -25 -6 -55q-14 -66 -43 -113t-80 -108q-41 -51 -63.5 -87t-32.5 -79l-8 -35q-2 -8 -2 -20q0 -35 28.5 -53.5 t81.5 -18.5q63 0 104.5 23.5t49.5 68.5l8 37q4 20 4 27q0 29 -17.5 44t-45.5 15h-39l90 332h24q43 0 63.5 25.5t35.5 95.5l16 79h453l-13 -63q-20 -111 -64 -184.5t-122 -118.5q74 -61 74 -180q0 -45 -8 -80l-17 -80q-41 -205 -216 -322.5t-466 -117.5q-237 0 -369.5 88 t-132.5 239z" />
<glyph unicode="&#xe0b;" horiz-adv-x="1298" d="M39 684l90 422h262l-12 -57q41 23 96 40t117 17q78 0 122 -45t44 -119q0 -25 -6 -49q-18 -90 -54 -151.5t-92 -127.5q-35 -43 -51 -68.5t-23 -51.5l-4 -21q-4 -20 -4 -31q0 -33 22.5 -48t71.5 -15q68 0 100 28.5t42 79.5l10 48q4 14 4 38q0 47 -47 48h-27l84 305h19 q35 0 52 23.5t32 97.5l16 79h445l-13 -63q-25 -113 -66.5 -186.5t-119.5 -116.5q74 -59 74 -178q0 -43 -9 -82l-18 -88q-41 -201 -219 -316.5t-445 -115.5q-219 0 -355 79.5t-136 225.5q0 18 8 67l6 33q14 66 60.5 123t120.5 127q84 76 90 106q2 6 2 17q0 23 -27 22 q-12 0 -20.5 -5t-18.5 -15l-16 -76h-207z" />
<glyph unicode="&#xe0c;" horiz-adv-x="1966" d="M-25 158q0 25 7 55l26 133q16 68 69.5 131.5t123.5 87.5l-154 60l68 317q143 82 295.5 133t337.5 51q256 0 379.5 -99t123.5 -261q0 -57 -10 -100l-61 -281q10 -16 36.5 -28.5t55.5 -12.5q45 0 69.5 21.5t34.5 68.5l142 672h495l-160 -750q-37 -178 -164.5 -277 t-297.5 -99q-180 0 -299 86l-27 -66h-451l134 635q8 49 8 61q0 47 -25.5 66.5t-83.5 19.5q-76 0 -155 -32v-5l186 -73l-41 -195q-100 -31 -121 -121l-2 -18q-2 -6 -2 -16q0 -35 41 -35h47l-59 -287h-385q-86 0 -133.5 42t-47.5 116z" />
<glyph unicode="&#xe0d;" horiz-adv-x="1988" d="M-25 162q0 25 7 51l26 133q14 68 68.5 131.5t124.5 87.5l-154 60l68 317q133 80 294.5 132t338.5 52q170 0 284.5 -51t168.5 -133t54 -174q0 -49 -10 -82l-6 -22q-8 -27 -8 -54q0 -70 86 -69q61 0 87 26.5t40 96.5l94 442h496l-99 -465q-33 -154 -135 -256 q57 -68 58 -168q0 -39 -9 -72q-35 -172 -174 -250.5t-436 -78.5q-141 0 -294.5 32.5t-215.5 71.5l64 301q66 -41 211 -74.5t247 -33.5q207 0 222 65v8q0 10 -7 23q-98 -23 -247 -23q-223 0 -350.5 96.5t-127.5 264.5q0 47 9 86l4 22q6 31 6 56q0 39 -24.5 55t-88.5 16 q-76 0 -155 -32v-5l186 -73l-41 -195q-111 -35 -121 -121l-2 -18v-14q0 -37 39 -37h47l-59 -287h-385q-86 0 -133.5 43t-47.5 119z" />
<glyph unicode="&#xe0e;" horiz-adv-x="1382" d="M-84 0l64 307h40q27 0 43.5 14.5t20.5 36.5l4 23q14 68 52 114t108 70l-154 60l68 317q137 80 301 132t340 52q274 0 409.5 -104t135.5 -268q0 -41 -11 -88l-227 -1063h-430q-55 31 -117.5 44t-152.5 13q-84 0 -172 -18.5t-166 -51.5l71 342q90 31 172 45.5t185 14.5 q45 0 98 -6t76 -15l139 664q8 49 8 61q0 45 -27.5 65.5t-91.5 20.5q-84 0 -163 -32v-5l186 -73l-41 -195q-43 -12 -62.5 -38.5t-31.5 -76.5l-31 -149q-23 -98 -95.5 -155.5t-187.5 -57.5h-360z" />
<glyph unicode="&#xe0f;" horiz-adv-x="1382" d="M-84 0l64 307h40q27 0 43.5 14.5t20.5 36.5l4 23q14 68 52 114t108 70l-154 60l68 317q137 80 301 132t340 52q180 0 302 -50t181.5 -136t59.5 -192q0 -47 -9 -82l-143 -672q-41 -195 -153.5 -300.5t-321.5 -105.5t-324 90q-92 -74 -258 -73h-162l93 309h86 q45 0 69.5 14.5t38.5 46.5h289q0 -29 14.5 -45t42.5 -16q51 0 66 63l139 658q8 49 8 61q0 45 -27.5 65.5t-91.5 20.5q-84 0 -163 -32v-5l186 -73l-41 -195q-43 -12 -62.5 -38.5t-31.5 -76.5l-31 -149q-20 -94 -100 -153.5t-183 -59.5h-360z" />
<glyph unicode="&#xe10;" horiz-adv-x="1269" d="M-166 -457l84 324h164q43 0 62.5 11t35.5 44h273q4 -68 71 -67q33 0 57.5 17t30.5 46l11 49h378l-12 -59q-33 -162 -150.5 -264.5t-318.5 -102.5q-170 0 -254 72q-39 -35 -93 -52.5t-105 -17.5h-234zM-14 334l90 340h401l53 -322q92 61 123 207q12 53 13 90 q0 74 -50.5 105.5t-169.5 31.5q-160 0 -374 -55l67 318q123 39 257 58t247 19q106 0 209 -20h516l-96 -340h-119q16 -53 16 -107q0 -49 -12 -102q-41 -188 -143.5 -318t-246.5 -194.5t-310 -64.5q-82 0 -164 13t-119 34l-49 307h-139z" />
<glyph unicode="&#xe11;" horiz-adv-x="1329" d="M0 0l61 297q18 92 69.5 161.5t137.5 157.5q47 45 70.5 73t28.5 52q2 6 2 15q0 25 -27 24q-18 0 -39 -20l-16 -76h-228l91 422h262l-13 -57q39 23 94.5 40t108.5 17q92 0 150 -45q45 29 116.5 47t141.5 18q143 0 222 -75.5t79 -204.5q0 -53 -11 -96l-157 -750h-494 l160 754l2 10q0 16 -20 16q-6 0 -13.5 -3t-13.5 -7q-16 -82 -41 -132t-64 -112q-39 -57 -62.5 -104t-37.5 -121l-63 -301h-496z" />
<glyph unicode="&#xe12;" horiz-adv-x="2072" d="M8 358q0 76 19 164q127 604 557 604q76 0 129 -24.5t94 -79.5q59 53 142 78.5t163 25.5q135 0 208 -57t73 -160q0 -37 -9 -69l-98 -455q10 -16 40 -28.5t52 -12.5q45 0 70 21.5t35 68.5l141 672h496l-160 -750q-39 -184 -155.5 -280t-307.5 -96q-92 0 -169 23.5 t-130 62.5l-27 -66h-438l133 633q6 23 6 39q0 35 -36 35q-16 0 -34 -10.5t-28 -26.5h-94q-10 37 -41 37q-33 0 -62.5 -48.5t-48.5 -136.5q-18 -88 -18 -119q0 -43 23.5 -62t82.5 -19q57 0 107 18l-68 -315q-100 -45 -247 -45q-177 0 -288.5 93t-111.5 285z" />
<glyph unicode="&#xe13;" horiz-adv-x="1976" d="M-25 158q0 25 7 55l26 133q16 68 69.5 131.5t123.5 87.5l-154 60l68 317q317 184 633 184q258 0 386 -100t128 -262q0 -57 -11 -98l-49 -232q-4 -25 -4 -35q0 -55 68 -55q23 0 57.5 12.5t50.5 28.5l154 721h495l-233 -1106h-461l-2 66q-158 -86 -336 -86 q-147 0 -230 73.5t-83 204.5q0 55 10 98l60 279q10 45 10 70q0 41 -24.5 59t-86.5 18q-76 0 -155 -32v-5l186 -73l-41 -195q-100 -31 -121 -121l-2 -18q-2 -6 -2 -16q0 -35 41 -35h47l-59 -287h-385q-86 0 -133.5 42t-47.5 116z" />
<glyph unicode="&#xe14;" horiz-adv-x="1366" d="M4 346q0 72 19 158q45 211 139 347t255 205.5t404 69.5q170 0 285 -49t170 -132t55 -185q0 -45 -8 -84l-143 -676h-473l122 580q6 25 7 45q0 82 -115 82q-80 0 -126 -47.5t-67 -155.5q-12 -61 -12 -98q0 -47 22.5 -65.5t77.5 -18.5q57 0 107 18l-68 -315 q-100 -45 -247 -45q-181 0 -292.5 90t-111.5 276z" />
<glyph unicode="&#xe15;" horiz-adv-x="1392" d="M8 354q0 76 19 168q66 305 208 454.5t349 149.5q76 0 129 -24.5t94 -79.5q59 53 142 78.5t163 25.5q127 0 203 -62.5t76 -164.5q0 -29 -7 -59l-178 -840h-473l133 633q6 23 6 39q0 35 -36 35q-16 0 -34 -10.5t-28 -26.5h-94q-10 37 -41 37q-33 0 -62.5 -48.5 t-48.5 -136.5q-14 -72 -14 -104q0 -49 23.5 -72.5t78.5 -23.5q57 0 107 18l-68 -315q-100 -45 -247 -45q-181 0 -290.5 92t-109.5 282z" />
<glyph unicode="&#xe16;" horiz-adv-x="1335" d="M-25 158q0 25 7 55l26 133q16 68 69.5 131.5t123.5 87.5l-154 60l68 317q137 80 301 132t340 52q283 0 413.5 -104t130.5 -266q0 -39 -10 -90l-141 -666h-516l133 635q8 49 8 63q0 45 -26.5 64.5t-92.5 19.5q-84 0 -163 -32v-5l186 -73l-41 -195q-100 -31 -121 -121 l-2 -18q-2 -6 -2 -16q0 -35 41 -35h47l-59 -287h-385q-86 0 -133.5 42t-47.5 116z" />
<glyph unicode="&#xe17;" horiz-adv-x="1339" d="M-43 0l233 1106h461v-66q70 37 164 61.5t193 24.5q156 0 235.5 -72.5t79.5 -199.5q0 -49 -12 -104l-158 -750h-496l142 672q4 20 4 28q0 61 -78 62q-25 0 -64.5 -12.5t-56.5 -28.5l-151 -721h-496z" />
<glyph unicode="&#xe18;" horiz-adv-x="1161" d="M-49 80l76 360h411l-24 -116q12 -6 45 -9.5t57 -3.5q111 0 121 54q6 31 -43 50t-172 50l-96 22q-119 31 -184.5 92.5t-65.5 151.5q0 29 6 55q33 168 178.5 254t462.5 86q147 0 267 -14t184 -35l-68 -321q-57 27 -160.5 43t-185.5 16q-92 0 -130 -5t-44 -30 q-2 -18 49 -35.5t156 -44.5l94 -24q113 -33 164 -88.5t51 -143.5q0 -51 -10 -92q-41 -188 -187.5 -280t-431.5 -92q-154 0 -293 27.5t-227 72.5z" />
<glyph unicode="&#xe19;" horiz-adv-x="1339" d="M20 268q0 37 11 88l159 750h496l-141 -672q-4 -25 -4 -31q0 -59 77 -59q25 0 64 12.5t55 28.5l154 721h495l-233 -1106h-461l-2 66q-70 -37 -164 -61.5t-192 -24.5q-137 0 -225.5 78.5t-88.5 209.5z" />
<glyph unicode="&#xe1a;" horiz-adv-x="1359" d="M51 389q0 55 12 117l127 600h496l-123 -584q-10 -47 -10 -71q0 -39 20.5 -55.5t71.5 -16.5q70 0 97.5 30.5t45.5 112.5l123 584h496l-129 -606q-37 -180 -120 -294t-228.5 -170t-370.5 -56q-235 0 -371.5 110.5t-136.5 298.5z" />
<glyph unicode="&#xe1b;" horiz-adv-x="1359" d="M51 389q0 55 12 117l127 600h496l-123 -584q-10 -47 -10 -71q0 -39 20.5 -55.5t71.5 -16.5q70 0 97.5 30.5t45.5 112.5l193 912h496l-199 -934q-39 -182 -122 -295t-227.5 -169t-369.5 -56q-235 0 -371.5 110.5t-136.5 298.5z" />
<glyph unicode="&#xe1c;" horiz-adv-x="1351" d="M-43 0l195 922q16 78 68 131t128 53h389l-43 -283h-84q-55 0 -67 -59l-39 -184l145 188h148l67 -188l111 526h424l-234 -1106h-399l-117 348l-264 -348h-428z" />
<glyph unicode="&#xe1d;" horiz-adv-x="1351" d="M-43 0l195 922q16 78 68 131t128 53h389l-43 -283h-84q-55 0 -67 -59l-39 -184l145 188h148l67 -188l180 854h424l-303 -1434h-399l-117 348l-264 -348h-428z" />
<glyph unicode="&#xe1e;" horiz-adv-x="1550" d="M129 1106h430l14 -414l76 164l53 250h345v-414l184 414h428l-502 -1106h-387l-16 365l-176 -365h-414z" />
<glyph unicode="&#xe1f;" horiz-adv-x="1550" d="M129 1106h430l14 -414l76 164l53 250h345v-414l292 742h428l-610 -1434h-387l-16 365l-176 -365h-414z" />
<glyph unicode="&#xe20;" horiz-adv-x="1382" d="M-84 0l64 307h40q27 0 43.5 14.5t20.5 36.5l4 23q27 135 160 184l-154 60l68 317q137 80 301 132t340 52q283 0 414 -103t131 -265q0 -41 -11 -92l-141 -666h-516l133 635q8 49 8 61q0 45 -27.5 65.5t-91.5 20.5q-84 0 -163 -32v-5l186 -73l-41 -195q-43 -14 -63.5 -39.5 t-30.5 -75.5l-31 -149q-20 -96 -91 -154.5t-173 -58.5h-379z" />
<glyph unicode="&#xe21;" horiz-adv-x="1339" d="M-43 0l233 1106h496l-154 -721q10 -16 44 -28.5t59 -12.5q94 0 115 90l141 672h495l-159 -750q-39 -184 -156 -280t-307 -96q-98 0 -182 24.5t-138 61.5l-26 -66h-461z" />
<glyph unicode="&#xe22;" horiz-adv-x="1345" d="M-14 295q0 39 8 74q14 63 49 115.5t84 86.5q-49 61 -49 136q0 18 8 67q37 174 169 263t351 89q150 0 238 -36l-58 -271q-47 10 -96 10q-100 0 -100 -69q0 -18 14 -28.5t39 -10.5h90l-59 -287h-92q-31 0 -52.5 -15.5t-25.5 -41.5q-6 -31 16.5 -48.5t85.5 -17.5q59 0 96 27 t48 76l147 692h496l-146 -688q-47 -221 -220 -329.5t-492 -108.5q-275 0 -412 83.5t-137 231.5z" />
<glyph unicode="&#xe23;" horiz-adv-x="1038" d="M-66 49l68 324q63 -35 164.5 -58.5t171.5 -23.5q63 0 91 10t28 37q0 23 -24.5 38t-86.5 38q-88 37 -84 35q-100 43 -146 98t-46 137q0 47 10 88q35 164 181.5 259t416.5 95q104 0 217 -15t172 -34l-68 -321q-57 27 -135 43t-137 16q-66 0 -101.5 -9t-39.5 -34 q-6 -27 21.5 -44t99.5 -42l57 -22q115 -45 163 -97.5t48 -136.5q0 -45 -12 -100q-37 -164 -180.5 -257t-413.5 -93q-136 0 -255.5 19t-179.5 50z" />
<glyph unicode="&#xe24;" horiz-adv-x="1335" d="M-23 166q0 31 5 47l26 133q14 68 68.5 131.5t124.5 87.5l-154 60l68 317q317 184 641 184q186 0 308 -52t178 -137t56 -189q0 -47 -8 -82l-213 -994h-516l205 963q8 49 8 61q0 45 -27.5 65.5t-91.5 20.5q-84 0 -163 -32v-5l186 -73l-41 -195q-111 -35 -121 -121l-2 -18 v-14q0 -37 39 -37h47l-59 -287h-385q-82 0 -130.5 45t-48.5 121z" />
<glyph unicode="&#xe25;" horiz-adv-x="1271" d="M-23 252q0 51 11 94q39 182 177 275.5t355 93.5h244l4 22q10 55 -182 56q-90 0 -197.5 -16.5t-204.5 -43.5l66 316q98 37 240.5 57t273.5 20q227 0 349 -95t122 -267q0 -55 -12 -117l-138 -647h-473l90 426h-102q-51 0 -76.5 -17.5t-34.5 -60.5q-4 -16 -4 -24 q0 -23 15.5 -35.5t42.5 -12.5q31 0 71 11l-57 -271q-102 -37 -252 -36q-145 0 -236.5 67.5t-91.5 204.5z" />
<glyph unicode="&#xe26;" horiz-adv-x="1382" d="M-84 0l64 307h40q27 0 43.5 14.5t20.5 36.5l4 23q12 68 51 114t109 70l-154 60l68 317q137 80 301 132t340 52q184 0 306 -53t179.5 -139t57.5 -189q0 -45 -9 -79l-213 -994h-516l205 963q8 33 8 65q0 43 -26.5 62.5t-92.5 19.5q-84 0 -163 -32v-5l186 -73l-41 -195 q-43 -14 -63.5 -39.5t-30.5 -75.5l-31 -149q-20 -96 -91 -154.5t-173 -58.5h-379z" />
<glyph unicode="&#xe27;" horiz-adv-x="1130" d="M-72 61l90 426q68 -41 153 -64.5t161 -23.5q131 0 188.5 31t75.5 123q6 25 6 47q0 61 -48 84t-153 23q-86 0 -176 -17.5t-170 -52.5l86 407q217 82 473 82q506 0 506 -401q0 -80 -18 -172q-43 -209 -132 -334t-235.5 -182t-367.5 -57q-138 0 -245.5 18t-193.5 63z" />
<glyph unicode="&#xe28;" horiz-adv-x="1417" d="M-43 0l133 627q104 500 713 499q94 0 190 -20h523l-97 -340h-116q12 -33 12 -72q0 -23 -8 -67l-133 -627h-496l123 584q8 45 8 57q0 37 -21.5 51.5t-72.5 14.5q-61 0 -92 -27t-48 -96l-12 -54q37 18 101 19h73l-73 -340h-80q-51 0 -92 -19l-39 -190h-496z" />
<glyph unicode="&#xe29;" horiz-adv-x="1384" d="M51 389q0 55 12 117l127 600h496l-123 -584q-10 -47 -10 -71q0 -39 20.5 -55.5t71.5 -16.5q70 0 97.5 30.5t45.5 112.5l5 27h-121l73 340h119l47 217h496l-47 -217h96l-102 -340h-66l-10 -49q-37 -180 -120 -294t-228.5 -170t-370.5 -56q-235 0 -371.5 110.5 t-136.5 298.5z" />
<glyph unicode="&#xe2a;" horiz-adv-x="1329" d="M-23 252q0 51 11 94q39 182 177 275.5t355 93.5h244l4 22q10 55 -182 56q-90 0 -197.5 -16.5t-204.5 -43.5l66 316q98 37 240.5 57t273.5 20q96 0 188 -20h475l-96 -340h-110q8 -33 8 -64q0 -27 -6 -55l-138 -647h-473l90 426h-102q-51 0 -76.5 -17.5t-34.5 -60.5 q-4 -16 -4 -24q0 -23 15.5 -35.5t42.5 -12.5q31 0 71 11l-57 -271q-102 -37 -252 -36q-145 0 -236.5 67.5t-91.5 204.5z" />
<glyph unicode="&#xe2b;" horiz-adv-x="1308" d="M-43 0l233 1106h496l-57 -268h88q84 0 104 96l37 172h496l-47 -225q-16 -76 -55.5 -136.5t-98.5 -93.5q66 -45 66 -145q0 -39 -9 -78l-90 -428h-495l75 362q4 25 5 35q0 61 -68 62h-88l-96 -459h-496z" />
<glyph unicode="&#xe2c;" horiz-adv-x="1550" d="M129 1106h430l14 -414l82 164l27 121h332l33 -285l83 191q25 55 25 88t-22.5 47t-67.5 14h-41l96 250h70q61 0 94 24.5t57 79.5l21 48h416l-43 -99q-70 -158 -195 -196q45 -33 45 -97q0 -61 -39 -147l-389 -895h-387l-16 365l-176 -365h-414z" />
<glyph unicode="&#xe2d;" horiz-adv-x="1259" d="M-57 80l125 592h565l-43 -283h-139l-15 -67q33 -10 94 -11q82 0 124 55.5t69 178.5q12 55 12 94q0 84 -53 115.5t-172 31.5q-88 0 -202.5 -15t-215.5 -44l68 322q119 37 270.5 57t269.5 20q268 0 406.5 -108.5t138.5 -317.5q0 -68 -16 -155q-39 -197 -122 -320 t-237.5 -184t-402.5 -61q-145 0 -291.5 27.5t-232.5 72.5z" />
<glyph unicode="&#xe2e;" horiz-adv-x="1347" d="M-57 80l125 592h565l-43 -283h-139l-15 -67q33 -10 94 -11q82 0 124 55.5t69 178.5q12 55 12 94q0 84 -53 115.5t-172 31.5q-88 0 -202.5 -15t-215.5 -44l68 322q119 37 270.5 57t269.5 20q104 0 207 -20h539l-96 -340h-133q20 -55 20 -135q0 -47 -8 -86 q-39 -197 -122 -320t-237.5 -184t-402.5 -61q-145 0 -291.5 27.5t-232.5 72.5z" />
<glyph unicode="&#xe2f;" horiz-adv-x="1271" d="M66 672q0 35 10 86q20 98 54 179t89 169h498q-47 -70 -76 -136.5t-45 -150.5q-6 -27 -6 -49q0 -76 76 -76q27 0 54.5 7.5t43.5 17.5l82 387h473l-234 -1106h-473l88 420q-39 -16 -119.5 -31.5t-158.5 -15.5q-160 0 -258 79.5t-98 219.5z" />
<glyph unicode="&#xe30;" horiz-adv-x="669" d="M-70 72l88 415h351l-21 -96h258l-78 -319h-598zM39 586l88 415h350l-20 -96h258l-82 -319h-594z" />
<glyph unicode="&#xe31;" d="M-612 1186l90 432h350l-27 -133h467l-78 -299h-802z" />
<glyph unicode="&#xe32;" horiz-adv-x="921" d="M-4 668l80 376q74 35 179 58.5t206 23.5q211 0 319.5 -87t108.5 -253q0 -66 -15 -131l-139 -655h-452l120 578q8 45 9 59q0 45 -31 66.5t-102 21.5q-137 0 -283 -57z" />
<glyph unicode="&#xe33;" horiz-adv-x="929" d="M-438 1399q0 31 6 63q29 131 131 212t244 81q115 0 185.5 -62.5t70.5 -166.5q0 -29 -6 -64q-29 -133 -127.5 -213t-245.5 -80q-115 0 -186.5 62.5t-71.5 167.5zM-184 1462q-4 -29 8 -47t43 -18q24 0 49 19.5t29 45.5q2 6 2 19q0 47 -53 47q-25 0 -48.5 -19.5t-29.5 -46.5 zM4 668l80 376q74 35 179.5 58.5t205.5 23.5q211 0 319.5 -87t108.5 -253q0 -66 -14 -131l-140 -655h-452l121 578q6 35 6 57q0 47 -30 68.5t-101 21.5q-137 0 -283 -57z" />
<glyph unicode="&#xe34;" d="M-989 1188l92 325h1032l-69 -325h-1055z" />
<glyph unicode="&#xe35;" d="M-989 1188l92 325h643l31 146h389l-100 -471h-1055z" />
<glyph unicode="&#xe36;" d="M-989 1188l92 325h553q29 74 106.5 124.5t184.5 50.5q113 0 169 -51.5t56 -137.5q0 -31 -6 -61q-25 -109 -110 -179.5t-216 -70.5h-829zM-158 1419q0 -23 15.5 -36t38.5 -13q28 0 49.5 18.5t29.5 47.5q6 29 -8 48t-43 19t-51.5 -19.5t-28.5 -47.5q-2 -6 -2 -17z" />
<glyph unicode="&#xe37;" d="M-989 1188l92 325h285l30 146h332l-31 -146h86l31 146h330l-100 -471h-1055z" />
<glyph unicode="&#xe38;" d="M-770 -352l78 297h495l-102 -477h-389l39 180h-121z" />
<glyph unicode="&#xe39;" d="M-1137 -332l74 277h434l-35 -160q-2 -6 -2 -18q0 -35 41 -35q49 0 62 53l35 160h333l-43 -199q-27 -135 -137 -223t-313 -88q-160 0 -247 51t-87 133q0 10 4 35l2 14h-121z" />
<glyph unicode="&#xe3a;" d="M-690 -305q0 29 4 43q20 90 95 151.5t165 61.5q78 0 128 -47t50 -119q0 -70 -38 -129t-100.5 -94t-129.5 -35q-78 0 -126 47t-48 121z" />
<glyph unicode="&#xe3f;" horiz-adv-x="1355" d="M-43 0l279 1319h262l39 176h430l-39 -176h90q158 0 257 -82t99 -215q0 -41 -8 -76q-41 -188 -182 -278q59 -31 90 -74t31 -111q0 -33 -11 -84q-86 -399 -546 -399h-101l-37 -176h-430l37 176h-260zM492 336h184q98 0 117 88q2 8 2 22q0 59 -82 60h-185zM594 813h184 q98 0 117 88q2 8 2 21q0 61 -82 61h-184z" />
<glyph unicode="&#xe40;" horiz-adv-x="716" d="M-4 158q0 25 6 55l188 893h506l-157 -748q-2 -6 -2 -16q0 -35 41 -35h57l-64 -307h-395q-86 0 -133 42t-47 116z" />
<glyph unicode="&#xe41;" horiz-adv-x="1331" d="M-4 158q0 25 6 55l188 893h486l-158 -748q-2 -6 -2 -16q0 -35 41 -35h57l-63 -307h-375q-86 0 -133 42t-47 116zM631 158q0 25 6 55l188 893h486l-158 -748q-2 -6 -2 -16q0 -35 41 -35h57l-63 -307h-375q-86 0 -133 42t-47 116z" />
<glyph unicode="&#xe42;" horiz-adv-x="702" d="M37 158q0 25 6 55l152 715q8 35 8 69q0 131 -135 156l57 268h795l-66 -307h-199q25 -37 25 -96q0 -37 -8 -68l-125 -592q-2 -6 -2 -16q0 -35 41 -35h57l-63 -307h-363q-86 0 -133 42t-47 116z" />
<glyph unicode="&#xe43;" horiz-adv-x="679" d="M-39 158q0 25 6 55l99 463q14 72 51 125t98 119q37 39 54.5 62.5t23.5 45.5q4 18 -10.5 29.5t-46.5 11.5q-106 0 -207 -55l67 321q178 92 418 92q160 0 246 -55t86 -160q0 -29 -6 -63q-14 -70 -52 -122t-104 -118q-61 -63 -95 -110t-48 -107l-70 -334q-2 -6 -2 -16 q0 -35 41 -35h57l-63 -307h-363q-86 0 -133 42t-47 116z" />
<glyph unicode="&#xe44;" horiz-adv-x="696" d="M10 158q0 25 6 55l156 737q25 109 86 164h-199l66 307h788l-57 -268q-90 -14 -142 -70.5t-73 -154.5l-121 -570q-2 -6 -2 -16q0 -35 41 -35h57l-63 -307h-363q-86 0 -133 42t-47 116z" />
<glyph unicode="&#xe45;" horiz-adv-x="921" d="M-4 668l80 376q74 35 179 58.5t206 23.5q211 0 319.5 -87t108.5 -253q0 -66 -15 -131l-210 -983h-453l192 906q6 35 7 57q0 47 -30 68.5t-101 21.5q-137 0 -283 -57z" />
<glyph unicode="&#xe46;" horiz-adv-x="1378" d="M45 553q0 53 8 96q47 248 171 362.5t325 114.5q76 0 129 -24.5t94 -79.5q59 53 142 78.5t163 25.5q129 0 204 -60t75 -163q0 -29 -6 -63l-179 -840h-473l136 639l4 33q0 20 -8.5 27.5t-28.5 7.5q-16 0 -33.5 -10.5t-28.5 -26.5h-94q-10 37 -41 37q-41 0 -57 -78 q-2 -8 -2 -21q0 -27 26.5 -39t81.5 -12q61 0 111 18l-68 -315q-43 -20 -117.5 -32.5t-152.5 -12.5q-172 0 -276.5 89t-104.5 249z" />
<glyph unicode="&#xe47;" d="M-913 1391q0 37 8 69q29 135 127 216t266 81h561l-69 -235h-504q-35 0 -59.5 -21.5t-24.5 -60.5q0 -20 13 -31.5t36 -11.5q31 0 53.5 19.5t28.5 49.5l2 9h231l-2 -9q-2 -8 -2 -20q0 -43 51 -43h134l-50 -236h-155q-53 0 -95.5 16.5t-54.5 47.5q-27 -31 -100.5 -49.5 t-134.5 -18.5q-117 0 -188.5 60.5t-71.5 167.5z" />
<glyph unicode="&#xe48;" d="M-430 1171l76 355h493l-76 -355h-493z" />
<glyph unicode="&#xe49;" d="M-657 1333l65 307h457l-35 -161h418l-84 -308h-701l35 162h-155z" />
<glyph unicode="&#xe4a;" d="M-854 1362q0 27 6 53q25 113 104.5 181.5t194.5 68.5q53 0 88 -16.5t45 -44.5h2q27 29 70 45t92 16q88 0 134 -39t46 -100q0 -14 -4 -39l-20 -98h10q14 0 19.5 6t9.5 24l49 230h237l-51 -238q-23 -104 -92.5 -162.5t-181.5 -58.5h-248l47 221q2 6 2 19q0 25 -24 24 q-31 0 -41 -39l-5 -18h-165l4 18q2 6 2 17q0 23 -23 22q-31 0 -41 -43q-2 -6 -2 -14q0 -33 45 -33h78l-41 -193h-108q-105 0 -171.5 50.5t-66.5 140.5z" />
<glyph unicode="&#xe4b;" d="M-485 1249l63 295h117l16 76h391l-16 -76h115l-64 -295h-114l-17 -78h-391l16 78h-116z" />
<glyph unicode="&#xe4c;" d="M-563 1180l88 413h674l-80 -309h-320l-22 -104h-340z" />
<glyph unicode="&#xe4d;" d="M-438 1399q0 31 6 63q29 131 131 212t244 81q115 0 185.5 -62.5t70.5 -166.5q0 -29 -6 -64q-29 -133 -127.5 -213t-245.5 -80q-115 0 -186.5 62.5t-71.5 167.5zM-184 1462q-4 -29 8 -47t43 -18q24 0 49 19.5t29 45.5q2 6 2 19q0 47 -53 47q-25 0 -48.5 -19.5t-29.5 -46.5 z" />
<glyph unicode="&#xe4e;" d="M-508 1292q0 10 4 31q27 125 182 156q-6 16 -6 32q0 23 6 43q14 63 90 105.5t220 42.5q41 0 84 -6t67 -17l-30 -145q-47 25 -107 25q-33 0 -49 -6.5t-21 -20.5q-2 -14 13.5 -20.5t52.5 -12.5l-29 -135q-16 8 -43.5 14t-50.5 6q-33 0 -50.5 -7t-21.5 -27v-9q0 -25 50 -24 q35 0 74.5 7t64.5 19l-33 -151q-55 -33 -201 -33q-266 0 -266 133z" />
<glyph unicode="&#xe4f;" horiz-adv-x="1196" d="M18 428q0 57 13 119q33 156 132 286t244.5 205.5t311.5 75.5q133 0 237.5 -58.5t163 -160.5t58.5 -229q0 -57 -13 -119q-33 -158 -131 -287t-243.5 -204.5t-313.5 -75.5q-135 0 -239.5 58t-162 159.5t-57.5 230.5zM317 483q0 -94 58.5 -152.5t165.5 -58.5q118 0 213.5 80 t117.5 195q6 35 7 63q0 94 -58.5 152.5t-163.5 58.5q-119 0 -214 -79.5t-119 -194.5q-6 -33 -7 -64zM377 496q0 70 39 131t100.5 98t128.5 37q84 0 129 -44t45 -116q0 -27 -6 -55q-18 -88 -94 -151.5t-166 -63.5q-84 0 -130 45t-46 119zM547 532q0 -35 41 -34q20 0 37.5 13 t21.5 36q2 6 2 14q0 35 -41 35q-20 0 -37.5 -13.5t-21.5 -35.5q-2 -6 -2 -15z" />
<glyph unicode="&#xe50;" horiz-adv-x="1245" d="M4 367q0 59 14 118q57 258 240.5 382t458.5 124q219 0 358 -98t139 -289q0 -53 -12 -119q-55 -260 -236.5 -382.5t-463.5 -122.5q-217 0 -357.5 100t-140.5 287zM477 426q0 -49 24.5 -70.5t76.5 -21.5q67 0 104 34.5t53 116.5q8 33 8 64q0 47 -23.5 67.5t-76.5 20.5 q-66 0 -104.5 -36t-55.5 -116q-6 -33 -6 -59z" />
<glyph unicode="&#xe51;" horiz-adv-x="1284" d="M18 432q0 51 13 109q47 225 221 337.5t477 112.5q266 0 395 -92t129 -283q0 -66 -20 -167q-55 -262 -255 -441.5t-517 -234.5l71 338q92 29 141.5 75.5t72 107t47.5 169.5q6 31 6 53q0 121 -144 121q-78 0 -117.5 -19.5t-52.5 -70.5q-2 -10 -2 -27q0 -33 22.5 -48 t72.5 -15q72 0 131 28l-62 -290q-49 -25 -126 -42.5t-150 -17.5q-160 0 -256.5 75t-96.5 222z" />
<glyph unicode="&#xe52;" horiz-adv-x="1521" d="M57 428q0 55 13 113l120 565h375l-108 -516q-12 -55 -13 -107q0 -238 299 -237q158 0 232 59.5t88 130.5l47 221q2 6 2 15q0 27 -31 26q-16 0 -28.5 -13t-16.5 -34l-6 -33h-153l8 37l2 15q0 29 -25 28q-45 0 -61 -80q-2 -8 -2 -22q0 -27 20.5 -38t65.5 -11q57 0 106 18 l-49 -237q-39 -20 -94 -30.5t-111 -10.5q-127 0 -191.5 50t-64.5 167q0 57 15 121q41 193 128 279.5t218 86.5q70 0 114.5 -20.5t65.5 -71.5q51 51 112.5 71.5t139.5 20.5q219 0 219 -198q0 -49 -12 -105l-47 -225q-47 -231 -216 -357t-532 -126q-188 0 -330.5 54 t-220.5 155.5t-78 238.5z" />
<glyph unicode="&#xe53;" horiz-adv-x="1355" d="M-2 326q0 66 14 135q57 272 188.5 401t317.5 129q160 0 223 -104q59 53 142.5 78.5t163.5 25.5q123 0 196.5 -72.5t73.5 -185.5q0 -20 -8 -69l-140 -664h-419l116 551l2 10q0 29 -39 29q-16 0 -32.5 -13.5t-20.5 -33.5l-22 -109h-236l23 113q2 4 2 12q0 14 -8.5 22.5 t-22.5 8.5q-59 0 -86 -135q-6 -27 -6 -52q0 -45 30.5 -63t102.5 -18q39 0 84 4t68 10l-68 -318q-111 -39 -252 -38q-176 0 -281.5 88t-105.5 258z" />
<glyph unicode="&#xe54;" horiz-adv-x="1253" d="M0 348q0 61 14 125q39 180 126 293t246 169t411 56q184 0 312 18.5t232 69.5l-69 -323q-190 -82 -484 -82q-143 0 -216.5 -51.5t-100.5 -171.5q-8 -49 -8 -64q0 -47 17.5 -72.5t41.5 -25.5h15l6 35q35 160 140 238.5t290 78.5q84 0 137 -9t115 -38l-54 -250 q-37 16 -69.5 23.5t-77.5 7.5q-43 0 -69.5 -14.5t-30.5 -36.5l-2 -11q0 -35 47 -34h237l-57 -279h-246q-139 0 -223 29q-123 -49 -270 -49q-185 0 -297.5 96t-112.5 272z" />
<glyph unicode="&#xe55;" horiz-adv-x="1253" d="M2 352q0 57 12 121q33 170 136.5 279.5t298.5 185.5q-45 29 -64 53l141 195q199 -190 449 -191q193 0 366 84l-69 -323q-190 -82 -484 -82q-143 0 -216.5 -51.5t-100.5 -171.5q-8 -49 -8 -64q0 -47 17.5 -72.5t41.5 -25.5h31l4 35q37 317 416 317q84 0 137 -9t115 -38 l-54 -250q-37 16 -69.5 23.5t-77.5 7.5q-43 0 -69.5 -14.5t-30.5 -36.5l-2 -11q0 -35 47 -34h237l-57 -279h-246q-139 0 -223 29q-123 -49 -270 -49q-185 0 -296.5 97t-111.5 275z" />
<glyph unicode="&#xe56;" horiz-adv-x="1308" d="M109 1106h401l12 -209q57 43 152.5 68.5t183.5 25.5q207 0 314.5 -101.5t107.5 -273.5q0 -66 -14 -129q-53 -252 -232.5 -379.5t-498.5 -127.5q-227 -1 -381 77l73 342q72 -35 162 -50t176 -15q92 0 154.5 39t79.5 114q4 29 4 39q0 51 -32 81t-95 30q-74 0 -130.5 -42 t-86.5 -126h-275z" />
<glyph unicode="&#xe57;" horiz-adv-x="1740" d="M-2 330q0 66 14 131q113 530 500 530q76 0 129 -24.5t94 -79.5q119 104 285 104q240 0 240 -203q0 -45 -13 -100l-71 -334h18q27 0 41 12.5t20 41.5l148 698h385l-139 -653q-47 -229 -171 -341t-362 -112h-389l113 532q2 6 2 15q0 25 -31 24q-16 0 -28.5 -13t-16.5 -34 l-18 -90h-236l18 94q2 8 2 21q0 23 -20 22q-29 0 -44 -25.5t-28 -90.5q-6 -31 -6 -54q0 -41 27.5 -60t91.5 -19q33 0 79 5t68 13l-67 -315q-100 -45 -248 -45q-176 0 -281.5 89t-105.5 261z" />
<glyph unicode="&#xe58;" horiz-adv-x="1267" d="M-6 299q0 80 16 154q41 184 127 300.5t252 177t436 60.5q180 0 297 18.5t224 69.5l-70 -323q-90 -39 -221 -60.5t-287 -21.5q-174 0 -252 -50.5t-104 -170.5q-14 -66 -15 -107q0 -31 9.5 -42t29.5 -11q25 0 43.5 13t22.5 34l30 145h236l-33 -149l-2 -10q0 -33 43 -33 t64 29l14 79h-66l70 232h397l-110 -522q-63 -68 -137 -99.5t-189 -31.5q-88 0 -149.5 24.5t-100.5 79.5q-66 -57 -133 -80.5t-164 -23.5q-133 0 -205.5 85t-72.5 234z" />
<glyph unicode="&#xe59;" horiz-adv-x="1544" d="M-4 303q0 72 18 160q57 272 184.5 400t344.5 128q168 0 207 -110q43 55 117.5 82.5t156.5 27.5q111 0 162 -43t51 -110q0 -20 -2 -31l-2 -14h6q25 0 38 22.5t32 102.5l30 147h326l-16 -82q-41 -195 -96.5 -302.5t-147.5 -155.5t-248 -48h-199l21 94q4 14 4 39 q0 43 -35 43q-45 0 -45 -69l2 -25l51 -559h-376l-58 608q-4 27 -11 36t-26 9q-29 0 -48 -43t-44 -157q-12 -57 -12 -93q0 -47 17.5 -65.5t50.5 -18.5q29 0 77 15l-63 -297q-63 -14 -150 -14q-143 0 -230 80.5t-87 242.5z" />
<glyph unicode="&#xe5a;" horiz-adv-x="1873" d="M66 662q0 53 10 96q39 182 143 348h498q-47 -76 -76 -142.5t-45 -144.5q-6 -31 -6 -55q0 -35 17.5 -52.5t54.5 -17.5q61 0 102 25l82 387h473l-84 -393q12 -18 55 -19q41 0 76 25l82 387h473l-233 -1106h-474l89 418q-16 -12 -37 -20.5t-39 -8.5q-39 0 -58 8l-84 -397 h-473l88 420q-45 -20 -115.5 -33.5t-150.5 -13.5q-172 0 -270 73.5t-98 215.5z" />
<glyph unicode="&#xe5b;" horiz-adv-x="2394" d="M31 477q0 66 14 129q51 246 204.5 383t418.5 137q184 0 292.5 -79.5t108.5 -221.5q0 -37 -10 -84q-37 -180 -152.5 -265t-308.5 -111l51 235q61 18 85 46t36 81q2 8 2 23q0 43 -36 67.5t-105 24.5q-94 0 -157.5 -59.5t-90.5 -178.5q-12 -55 -12 -102q0 -84 48 -128 t156 -44q209 0 354.5 101t186.5 298q25 117 37 229h293q25 -45 38 -90t27 -116h5q55 88 88 176h208q23 -80 25 -174h4q45 68 68 131h182q16 -43 16 -125h4q33 43 50 98h200q-12 -59 -30 -92h79l-65 -238h-127q-51 -84 -111 -143h-155q0 31 -17 57h-4q-25 -59 -63 -110h-221 q-2 49 -25 143h-4q-23 -53 -44.5 -96t-49.5 -92h-219q2 16 2 47q0 76 -15 139h-4q-92 -203 -294.5 -315.5t-479.5 -112.5q-137 0 -246.5 51t-173 149.5t-63.5 231.5z" />
<glyph unicode="&#x1e0c;" horiz-adv-x="1413" d="M-43 0l279 1319h626q164 0 292 -59.5t199.5 -173t71.5 -269.5q0 -68 -20 -166q-51 -231 -150.5 -373.5t-261.5 -210t-409 -67.5h-627zM264 -436l62 289h319l-61 -289h-320zM532 377h74q86 0 141.5 21.5t92.5 81t61 171.5q16 72 17 131q0 80 -44.5 105.5t-154.5 25.5h-74z " />
<glyph unicode="&#x1e0d;" horiz-adv-x="1286" d="M0 332q0 70 18 155q57 268 198.5 386t385.5 118q53 0 110.5 -10t94.5 -27l90 426h496l-293 -1380h-430l-11 63q-135 -84 -290 -83q-170 0 -269.5 89t-99.5 263zM211 -436l61 289h320l-62 -289h-319zM514 410q0 -43 18.5 -59.5t55.5 -16.5q47 0 92 31l51 241 q-16 16 -33.5 23.5t-44.5 7.5q-98 0 -131 -158q-8 -35 -8 -69z" />
<glyph unicode="&#x1e0e;" horiz-adv-x="1413" d="M-43 0l279 1319h626q164 0 292 -59.5t199.5 -173t71.5 -269.5q0 -68 -20 -166q-51 -231 -150.5 -373.5t-261.5 -210t-409 -67.5h-627zM27 -414l61 287h713l-62 -287h-712zM532 377h74q86 0 141.5 21.5t92.5 81t61 171.5q16 72 17 131q0 80 -44.5 105.5t-154.5 25.5h-74z " />
<glyph unicode="&#x1e0f;" horiz-adv-x="1286" d="M0 332q0 70 18 155q57 268 198.5 386t385.5 118q53 0 110.5 -10t94.5 -27l90 426h496l-293 -1380h-430l-11 63q-135 -84 -290 -83q-170 0 -269.5 89t-99.5 263zM190 -414l62 287h713l-62 -287h-713zM514 410q0 -43 18.5 -59.5t55.5 -16.5q47 0 92 31l51 241 q-16 16 -33.5 23.5t-44.5 7.5q-98 0 -131 -158q-8 -35 -8 -69z" />
<glyph unicode="&#x1e20;" horiz-adv-x="1357" d="M35 481q0 88 20 178q72 340 306.5 510t642.5 170q227 0 407 -67l-86 -414q-152 63 -379 64q-156 0 -255 -60.5t-130 -202.5q-14 -59 -14 -112q0 -82 50 -116t167 -34q66 0 125 15l18 80h-219l64 299h628l-145 -682q-104 -57 -245.5 -93t-311.5 -36q-305 0 -474 128 t-169 373zM643 1470l62 287h712l-61 -287h-713z" />
<glyph unicode="&#x1e21;" horiz-adv-x="1286" d="M-6 -340l69 322q37 -10 103.5 -18.5t112.5 -8.5q162 0 242.5 17.5t88.5 58.5l4 18q-45 -16 -105 -26.5t-114 -10.5q-193 0 -295 78t-102 236q0 72 16 139q57 256 209 391t367 135q84 0 142.5 -21.5t107.5 -62.5l34 64h431l-175 -824q-35 -168 -127 -279.5t-266 -169.5 t-450 -58q-56 0 -156 6t-137 14zM348 1130l62 287h712l-61 -287h-713zM512 403q0 -41 19.5 -55t56.5 -14q28 0 48.5 7t43.5 24l51 241q-16 16 -30.5 23.5t-41.5 7.5q-47 0 -82.5 -40t-54.5 -124q-10 -47 -10 -70z" />
<glyph unicode="&#x1e24;" horiz-adv-x="1464" d="M-43 0l279 1319h495l-90 -430h330l90 430h495l-278 -1319h-496l90 430h-329l-90 -430h-496zM362 -436l62 289h319l-61 -289h-320z" />
<glyph unicode="&#x1e25;" horiz-adv-x="1282" d="M-43 0l293 1380h495l-96 -446q51 25 123 41t143 16q162 0 246 -71.5t84 -206.5q0 -53 -12 -115l-127 -598h-496l117 557q2 10 2 25q0 45 -53 45q-23 0 -52.5 -12.5t-48.5 -28.5l-122 -586h-496zM268 -436l62 289h319l-61 -289h-320z" />
<glyph unicode="&#x1e2a;" horiz-adv-x="1464" d="M-43 0l279 1319h495l-90 -430h330l90 430h495l-278 -1319h-496l90 430h-329l-90 -430h-496zM137 -207q0 61 15 125h303q-8 -31 -9 -68q0 -113 103 -112q76 0 120 50t52 130h332q-47 -221 -183.5 -335.5t-363.5 -114.5q-174 0 -271.5 83.5t-97.5 241.5z" />
<glyph unicode="&#x1e2b;" horiz-adv-x="1282" d="M-43 0l293 1380h495l-96 -446q51 25 123 41t143 16q162 0 246 -71.5t84 -206.5q0 -53 -12 -115l-127 -598h-496l117 557q2 10 2 25q0 45 -53 45q-23 0 -52.5 -12.5t-48.5 -28.5l-122 -586h-496zM61 -207q0 61 15 125h303q-8 -31 -8 -68q0 -113 102 -112q76 0 120 50 t52 130h332q-47 -221 -183.5 -335.5t-363.5 -114.5q-174 0 -271.5 83.5t-97.5 241.5z" />
<glyph unicode="&#x1e36;" horiz-adv-x="1095" d="M-43 0l279 1319h495l-199 -942h539l-80 -377h-1034zM201 -436l61 289h320l-62 -289h-319z" />
<glyph unicode="&#x1e37;" horiz-adv-x="751" d="M14 223q0 51 13 109l223 1048h495l-208 -983q-4 -25 -5 -30q0 -23 13.5 -34t46.5 -11q57 0 106 18l-65 -307q-76 -29 -136.5 -41t-156.5 -12q-164 0 -245 60t-81 183zM39 -436l61 289h320l-62 -289h-319z" />
<glyph unicode="&#x1e38;" horiz-adv-x="1103" d="M-35 0l279 1319h495l-198 -942h538l-80 -377h-1034zM158 1470l61 287h713l-62 -287h-712zM205 -436l61 289h320l-62 -289h-319z" />
<glyph unicode="&#x1e39;" horiz-adv-x="751" d="M14 223q0 51 13 109l223 1048h495l-208 -983q-4 -25 -5 -30q0 -23 13.5 -34t46.5 -11q57 0 106 18l-65 -307q-76 -29 -136.5 -41t-156.5 -12q-164 0 -245 60t-81 183zM39 -436l61 289h320l-62 -289h-319zM168 1495l61 287h713l-61 -287h-713z" />
<glyph unicode="&#x1e3a;" horiz-adv-x="1095" d="M-43 0l279 1319h495l-199 -942h539l-80 -377h-1034zM0 -438l61 286h713l-61 -286h-713z" />
<glyph unicode="&#x1e3b;" horiz-adv-x="751" d="M-166 -438l62 286h712l-61 -286h-713zM14 223q0 51 13 109l223 1048h495l-208 -983q-4 -25 -5 -30q0 -23 13.5 -34t46.5 -11q57 0 106 18l-65 -307q-76 -29 -136.5 -41t-156.5 -12q-164 0 -245 60t-81 183z" />
<glyph unicode="&#x1e42;" horiz-adv-x="1619" d="M-43 0l279 1319h458l154 -545l381 545h483l-278 -1319h-496l98 463l-168 -238h-252l-65 238l-98 -463h-496zM444 -436l62 289h319l-61 -289h-320z" />
<glyph unicode="&#x1e43;" horiz-adv-x="1779" d="M-43 0l205 971h459l-3 -60q160 80 316 80q152 0 201 -90q80 45 163.5 67.5t184.5 22.5q129 0 196.5 -64.5t67.5 -185.5q0 -51 -12 -116l-131 -625h-486l119 565l4 27q0 18 -10 26.5t-37 8.5q-35 0 -64 -27l-126 -600h-457l121 578q2 8 2 20q0 29 -35 29q-41 0 -78 -37 l-125 -590h-475zM547 -436l61 289h320l-62 -289h-319z" />
<glyph unicode="&#x1e44;" horiz-adv-x="1423" d="M-43 0l279 1319h415l260 -516l109 516h496l-279 -1319h-418l-258 516l-108 -516h-496zM743 1470l60 289h319l-61 -289h-318z" />
<glyph unicode="&#x1e45;" horiz-adv-x="1282" d="M-43 0l205 971h465v-56q63 31 159.5 53.5t196.5 22.5q131 0 199.5 -61.5t68.5 -184.5q0 -57 -14 -120l-131 -625h-496l119 561q2 8 2 21q0 45 -55 45q-23 0 -52.5 -12.5t-48.5 -28.5l-122 -586h-496zM592 1130l59 289h320l-62 -289h-317z" />
<glyph unicode="&#x1e46;" horiz-adv-x="1423" d="M-43 0l279 1319h415l260 -516l109 516h496l-279 -1319h-418l-258 516l-108 -516h-496zM358 -436l62 289h319l-61 -289h-320z" />
<glyph unicode="&#x1e47;" horiz-adv-x="1282" d="M-43 0l205 971h465v-56q63 31 159.5 53.5t196.5 22.5q131 0 199.5 -61.5t68.5 -184.5q0 -57 -14 -120l-131 -625h-496l119 561q2 8 2 21q0 45 -55 45q-23 0 -52.5 -12.5t-48.5 -28.5l-122 -586h-496zM276 -436l62 289h319l-61 -289h-320z" />
<glyph unicode="&#x1e48;" horiz-adv-x="1423" d="M-43 0l279 1319h415l260 -516l109 516h496l-279 -1319h-418l-258 516l-108 -516h-496zM147 -426l62 287h713l-62 -287h-713z" />
<glyph unicode="&#x1e49;" horiz-adv-x="1282" d="M-43 0l205 971h465v-56q63 31 159.5 53.5t196.5 22.5q131 0 199.5 -61.5t68.5 -184.5q0 -57 -14 -120l-131 -625h-496l119 561q2 8 2 21q0 45 -55 45q-23 0 -52.5 -12.5t-48.5 -28.5l-122 -586h-496zM90 -426l62 287h712l-61 -287h-713z" />
<glyph unicode="&#x1e5a;" horiz-adv-x="1343" d="M-43 0l279 1319h741q188 0 297.5 -105.5t109.5 -273.5q0 -55 -12 -115q-53 -256 -317 -399q18 -16 27.5 -30.5t13.5 -37.5l80 -358h-517l-67 293q-4 23 -15.5 33t-33.5 10h-21l-69 -336h-496zM274 -436l62 289h319l-61 -289h-320zM606 723h121q121 0 141 102q4 25 4 35 q0 37 -22.5 54.5t-71.5 17.5h-129z" />
<glyph unicode="&#x1e5b;" horiz-adv-x="878" d="M-49 -436l61 289h320l-62 -289h-319zM-43 0l205 971h485v-56q63 31 154.5 53.5t181.5 22.5l-76 -364q-82 0 -178 -11.5t-154 -29.5l-122 -586h-496z" />
<glyph unicode="&#x1e5c;" horiz-adv-x="1343" d="M-43 0l279 1319h741q188 0 297.5 -105.5t109.5 -273.5q0 -55 -12 -115q-53 -256 -317 -399q18 -16 27.5 -30.5t13.5 -37.5l80 -358h-517l-67 293q-4 23 -15.5 33t-33.5 10h-21l-69 -336h-496zM274 -436l62 289h319l-61 -289h-320zM453 1470l61 287h713l-62 -287h-712z M606 723h121q121 0 141 102q4 25 4 35q0 37 -22.5 54.5t-71.5 17.5h-129z" />
<glyph unicode="&#x1e5d;" horiz-adv-x="878" d="M-49 -436l61 289h320l-62 -289h-319zM-43 0l205 971h485v-56q63 31 154.5 53.5t181.5 22.5l-76 -364q-82 0 -178 -11.5t-154 -29.5l-122 -586h-496zM197 1130l61 287h713l-62 -287h-712z" />
<glyph unicode="&#x1e5e;" horiz-adv-x="1343" d="M-43 0l279 1319h741q188 0 297.5 -105.5t109.5 -273.5q0 -55 -12 -115q-53 -256 -317 -399q18 -16 27.5 -30.5t13.5 -37.5l80 -358h-517l-67 293q-4 23 -15.5 33t-33.5 10h-21l-69 -336h-496zM78 -426l61 287h713l-61 -287h-713zM606 723h121q121 0 141 102q4 25 4 35 q0 37 -22.5 54.5t-71.5 17.5h-129z" />
<glyph unicode="&#x1e5f;" horiz-adv-x="878" d="M-242 -426l62 287h712l-61 -287h-713zM-43 0l205 971h485v-56q63 31 154.5 53.5t181.5 22.5l-76 -364q-82 0 -178 -11.5t-154 -29.5l-122 -586h-496z" />
<glyph unicode="&#x1e60;" horiz-adv-x="1146" d="M-57 72l77 370q88 -47 202 -77.5t208 -30.5q66 0 104.5 17.5t38.5 49.5q0 20 -23.5 34t-84.5 36q-57 18 -105 39q-137 57 -199.5 127t-62.5 176q0 55 15 115q45 213 201.5 312t465.5 99q96 0 218 -19.5t202 -43.5l-80 -373q-176 80 -332 80q-170 0 -170 -57 q0 -18 26 -30.5t97 -33.5l56 -16q166 -51 235.5 -127t69.5 -191q0 -55 -17 -133q-45 -201 -204.5 -308t-472.5 -107q-142 0 -265 23.5t-200 68.5zM598 1470l59 289h320l-62 -289h-317z" />
<glyph unicode="&#x1e61;" horiz-adv-x="1038" d="M-66 49l66 313q61 -37 162.5 -59t173.5 -22q61 0 85.5 3t29.5 19q2 12 -20.5 22.5t-72.5 22.5q-86 25 -110 35q-104 41 -151.5 90t-47.5 127q0 39 8 74q35 160 175.5 238.5t416.5 78.5q98 0 215 -14t174 -35l-65 -311q-59 27 -132 43t-130 16q-70 0 -108 -4t-42 -22 q-2 -10 19.5 -19.5t72.5 -21.5q55 -12 97 -25q115 -37 166 -87t51 -128q0 -33 -11 -80q-70 -324 -587 -323q-136 0 -255.5 19t-179.5 50zM444 1130l60 289h319l-61 -289h-318z" />
<glyph unicode="&#x1e62;" horiz-adv-x="1146" d="M-57 72l77 370q88 -47 202 -77.5t208 -30.5q66 0 104.5 17.5t38.5 49.5q0 20 -23.5 34t-84.5 36q-57 18 -105 39q-137 57 -199.5 127t-62.5 176q0 55 15 115q45 213 201.5 312t465.5 99q96 0 218 -19.5t202 -43.5l-80 -373q-176 80 -332 80q-170 0 -170 -57 q0 -18 26 -30.5t97 -33.5l56 -16q166 -51 235.5 -127t69.5 -191q0 -55 -17 -133q-45 -201 -204.5 -308t-472.5 -107q-142 0 -265 23.5t-200 68.5zM201 -436l61 289h320l-62 -289h-319z" />
<glyph unicode="&#x1e63;" horiz-adv-x="1038" d="M-66 49l66 313q61 -37 162.5 -59t173.5 -22q61 0 85.5 3t29.5 19q2 12 -20.5 22.5t-72.5 22.5q-86 25 -110 35q-104 41 -151.5 90t-47.5 127q0 39 8 74q35 160 175.5 238.5t416.5 78.5q98 0 215 -14t174 -35l-65 -311q-59 27 -132 43t-130 16q-70 0 -108 -4t-42 -22 q-2 -10 19.5 -19.5t72.5 -21.5q55 -12 97 -25q115 -37 166 -87t51 -128q0 -33 -11 -80q-70 -324 -587 -323q-136 0 -255.5 19t-179.5 50zM162 -436l61 289h320l-62 -289h-319z" />
<glyph unicode="&#x1e6c;" horiz-adv-x="1146" d="M78 963l76 356h1167l-76 -356h-336l-202 -963h-496l203 963h-336zM207 -395l61 289h320l-62 -289h-319z" />
<glyph unicode="&#x1e6d;" horiz-adv-x="811" d="M4 614l76 357h117l41 190l516 101l-62 -291h199l-86 -357h-189l-43 -206q-2 -8 -2 -25q0 -61 80 -61q66 0 127 20l-65 -307q-141 -55 -314 -55q-163 0 -251.5 77.5t-88.5 216.5q0 51 13 107l49 233h-117zM94 -395l62 289h319l-61 -289h-320z" />
<glyph unicode="&#x1e6e;" horiz-adv-x="1146" d="M20 -385l62 287h713l-62 -287h-713zM78 963l76 356h1167l-76 -356h-336l-202 -963h-496l203 963h-336z" />
<glyph unicode="&#x1e6f;" horiz-adv-x="811" d="M-143 -385l61 287h713l-62 -287h-712zM4 614l76 357h117l41 190l516 101l-62 -291h199l-86 -357h-189l-43 -206q-2 -8 -2 -25q0 -61 80 -61q66 0 127 20l-65 -307q-141 -55 -314 -55q-163 0 -251.5 77.5t-88.5 216.5q0 51 13 107l49 233h-117z" />
<glyph unicode="&#x1e80;" horiz-adv-x="1865" d="M195 1319h483l-6 -504l135 281l47 223h403l41 -506l220 506h481l-584 -1319h-418l-49 520l-278 -520h-447zM795 1872h381l98 -463h-363z" />
<glyph unicode="&#x1e81;" horiz-adv-x="1667" d="M121 971h471l12 -332l101 180l30 152h357l16 -332l147 332h471l-462 -971h-422l-41 313l-172 -313h-455zM639 1532h381l98 -463h-362z" />
<glyph unicode="&#x1e82;" horiz-adv-x="1865" d="M195 1319h483l-6 -504l135 281l47 223h403l41 -506l220 506h481l-584 -1319h-418l-49 520l-278 -520h-447zM885 1409l295 463h381l-314 -463h-362z" />
<glyph unicode="&#x1e83;" horiz-adv-x="1667" d="M121 971h471l12 -332l101 180l30 152h357l16 -332l147 332h471l-462 -971h-422l-41 313l-172 -313h-455zM754 1069l295 463h381l-314 -463h-362z" />
<glyph unicode="&#x1e84;" horiz-adv-x="1865" d="M195 1319h483l-6 -504l135 281l47 223h403l41 -506l220 506h481l-584 -1319h-418l-49 520l-278 -520h-447zM737 1470l62 289h317l-61 -289h-318zM1217 1470l61 289h319l-61 -289h-319z" />
<glyph unicode="&#x1e85;" horiz-adv-x="1667" d="M121 971h471l12 -332l101 180l30 152h357l16 -332l147 332h471l-462 -971h-422l-41 313l-172 -313h-455zM561 1130l62 289h317l-61 -289h-318zM1040 1130l62 289h319l-61 -289h-320z" />
<glyph unicode="&#x1e8e;" horiz-adv-x="1511" d="M195 1319h501l121 -420l297 420h531l-656 -840l-100 -479h-496l101 479zM793 1470l59 289h319l-61 -289h-317z" />
<glyph unicode="&#x1e8f;" horiz-adv-x="1282" d="M-10 -340l69 322q39 -10 102.5 -18.5t112.5 -8.5q164 0 256.5 28.5t100.5 71.5l8 33q-66 -35 -153 -55.5t-181 -20.5q-133 0 -210 74t-77 203q0 57 11 100l123 582h495l-112 -529q-2 -6 -3 -18q0 -47 58 -47q23 0 52.5 12t45.5 29l117 553h495l-172 -811 q-53 -256 -247.5 -388t-597.5 -132q-56 0 -156 6t-137 14zM602 1130l60 289h319l-61 -289h-318z" />
<glyph unicode="&#x1e92;" horiz-adv-x="1200" d="M-84 0l51 244l625 669h-455l86 406h1108l-59 -281l-617 -661h490l-80 -377h-1149zM276 -436l62 289h319l-61 -289h-320z" />
<glyph unicode="&#x1e93;" horiz-adv-x="1036" d="M-84 0l53 260l398 332h-316l80 379h948l-61 -287l-379 -328h326l-74 -356h-975zM121 -436l61 289h320l-62 -289h-319z" />
<glyph unicode="&#x1e97;" horiz-adv-x="835" d="M29 614l75 357h117l41 190l516 101l-61 -291h198l-86 -357h-188l-43 -206q-2 -8 -2 -25q0 -61 80 -61q66 0 127 20l-66 -307q-141 -55 -313 -55q-164 0 -252 77.5t-88 216.5q0 51 12 107l49 233h-116zM164 1323l61 289h318l-62 -289h-317zM643 1323l62 289h319l-61 -289 h-320z" />
<glyph unicode="&#x1e9e;" horiz-adv-x="1345" d="M-53 0l174 821q51 242 232.5 380t486.5 138q154 0 268.5 -51t174.5 -142t60 -208q0 -47 -12 -100l-276 -211h28q90 0 143.5 -57.5t53.5 -155.5q0 -41 -8 -76q-37 -180 -176.5 -269t-364.5 -89q-78 0 -148.5 12t-105.5 33l66 309q20 -8 56 -13.5t65 -5.5q59 0 86.5 20.5 t27.5 65.5q0 29 -22.5 43.5t-73.5 14.5h-111l47 219l263 201q4 27 -28 45t-99 18q-141 0 -170 -127l-172 -815h-465z" />
<glyph unicode="&#x1ea0;" horiz-adv-x="1591" d="M-84 0l786 1319h515l229 -1319h-492l-43 246h-319l-146 -246h-530zM430 -436l62 289h319l-61 -289h-320zM717 584h201l-48 252z" />
<glyph unicode="&#x1ea1;" horiz-adv-x="1286" d="M-8 299q0 57 16 143q55 262 204.5 405.5t379.5 143.5q72 0 127 -19.5t88 -51.5l10 51h488l-205 -971h-430l-11 63q-63 -39 -145 -61t-170 -22q-168 0 -260 79.5t-92 239.5zM260 -436l62 289h319l-61 -289h-320zM512 403q0 -41 19.5 -55t56.5 -14q51 0 92 31l51 241 q-16 16 -33.5 23.5t-44.5 7.5q-98 0 -135 -178q-6 -33 -6 -56z" />
<glyph unicode="&#x1ea2;" horiz-adv-x="1591" d="M-84 0l786 1319h515l229 -1319h-492l-43 246h-319l-146 -246h-530zM717 584h201l-48 252zM807 1409l35 166q176 10 190 80q8 31 -14.5 44t-75.5 13q-61 0 -119 -20l41 192q117 31 273 31q129 0 198.5 -49t69.5 -129q0 -12 -4 -41q-20 -90 -68.5 -137.5t-144.5 -75.5 l-17 -74h-364z" />
<glyph unicode="&#x1ea3;" horiz-adv-x="1286" d="M-8 299q0 57 16 143q55 262 204.5 405.5t379.5 143.5q72 0 127 -19.5t88 -51.5l10 51h488l-205 -971h-430l-11 63q-63 -39 -145 -61t-170 -22q-168 0 -260 79.5t-92 239.5zM512 403q0 -41 19.5 -55t56.5 -14q51 0 92 31l51 241q-16 16 -33.5 23.5t-44.5 7.5 q-98 0 -135 -178q-6 -33 -6 -56zM541 1069l34 166q176 10 191 80q8 31 -14.5 44t-75.5 13q-61 0 -119 -20l41 192q117 31 272 31q129 0 199 -49t70 -129q0 -12 -4 -41q-20 -90 -68.5 -137.5t-144.5 -75.5l-17 -74h-364z" />
<glyph unicode="&#x1ea4;" horiz-adv-x="1591" d="M-84 0l786 1319h515l229 -1319h-492l-43 246h-319l-146 -246h-530zM463 1409l397 344h359l247 -344h-370l-82 156l-142 -156h-409zM717 584h201l-48 252zM1317 1679l227 353h361l-246 -353h-342z" />
<glyph unicode="&#x1ea5;" horiz-adv-x="1286" d="M-8 299q0 57 16 143q55 262 204.5 405.5t379.5 143.5q72 0 127 -19.5t88 -51.5l10 51h488l-205 -971h-430l-11 63q-63 -39 -145 -61t-170 -22q-168 0 -260 79.5t-92 239.5zM242 1069l397 344h358l248 -344h-371l-81 156l-142 -156h-409zM512 403q0 -41 19.5 -55t56.5 -14 q51 0 92 31l51 241q-16 16 -33.5 23.5t-44.5 7.5q-98 0 -135 -178q-6 -33 -6 -56zM1096 1339l227 353h360l-245 -353h-342z" />
<glyph unicode="&#x1ea6;" horiz-adv-x="1591" d="M-84 0l786 1319h515l229 -1319h-492l-43 246h-319l-146 -246h-530zM307 2032h361l77 -353h-344zM479 1409l398 344h358l248 -344h-379l-76 156l-147 -156h-402zM717 584h201l-48 252z" />
<glyph unicode="&#x1ea7;" horiz-adv-x="1286" d="M-8 299q0 57 16 143q55 262 204.5 405.5t379.5 143.5q72 0 127 -19.5t88 -51.5l10 51h488l-205 -971h-430l-11 63q-63 -39 -145 -61t-170 -22q-168 0 -260 79.5t-92 239.5zM61 1692h361l78 -353h-344zM233 1069l398 344h358l248 -344h-379l-76 156l-147 -156h-402z M512 403q0 -41 19.5 -55t56.5 -14q51 0 92 31l51 241q-16 16 -33.5 23.5t-44.5 7.5q-98 0 -135 -178q-6 -33 -6 -56z" />
<glyph unicode="&#x1ea8;" horiz-adv-x="1591" d="M-84 0l786 1319h515l229 -1319h-492l-43 246h-319l-146 -246h-530zM471 1409l397 344h359l248 -344h-371l-82 156l-141 -156h-410zM717 584h201l-48 252zM1337 1632l35 164q80 2 109.5 16.5t29.5 36.5q0 14 -15 19.5t-48 5.5q-43 0 -100 -21l41 189q94 25 239 24 q111 0 170.5 -43t59.5 -112q0 -12 -5 -33q-16 -74 -62 -121t-120 -61l-14 -64h-320z" />
<glyph unicode="&#x1ea9;" horiz-adv-x="1286" d="M-8 299q0 57 16 143q55 262 204.5 405.5t379.5 143.5q72 0 127 -19.5t88 -51.5l10 51h488l-205 -971h-430l-11 63q-63 -39 -145 -61t-170 -22q-168 0 -260 79.5t-92 239.5zM225 1069l398 344h358l248 -344h-371l-82 156l-141 -156h-410zM512 403q0 -41 19.5 -55t56.5 -14 q51 0 92 31l51 241q-16 16 -33.5 23.5t-44.5 7.5q-98 0 -135 -178q-6 -33 -6 -56zM1092 1292l34 164q80 2 110 16.5t30 36.5q0 14 -15.5 19.5t-48.5 5.5q-43 0 -100 -21l41 189q94 25 239 24q111 0 170.5 -43t59.5 -112q0 -12 -4 -33q-16 -74 -62.5 -121t-120.5 -61l-14 -64 h-319z" />
<glyph unicode="&#x1eaa;" horiz-adv-x="1591" d="M-84 0l786 1319h515l229 -1319h-492l-43 246h-319l-146 -246h-530zM477 1409l397 344h359l248 -344h-371l-82 156l-141 -156h-410zM684 1790l57 276q39 29 97.5 48.5t115.5 19.5q49 0 93.5 -11.5t101.5 -33.5q57 -20 97 -30.5t83 -10.5q63 0 119.5 22.5t89.5 57.5 l-59 -277q-27 -27 -83.5 -47t-115.5 -20q-47 0 -93 11t-108 34q-61 20 -98 30.5t-76 10.5q-127 0 -221 -80zM717 584h201l-48 252z" />
<glyph unicode="&#x1eab;" horiz-adv-x="1286" d="M-8 299q0 57 16 143q55 262 204.5 405.5t379.5 143.5q72 0 127 -19.5t88 -51.5l10 51h488l-205 -971h-430l-11 63q-63 -39 -145 -61t-170 -22q-168 0 -260 79.5t-92 239.5zM225 1069l398 344h358l248 -344h-371l-82 156l-141 -156h-410zM432 1450l57 276q39 29 97.5 48.5 t115.5 19.5q49 0 93.5 -11t101.5 -34q57 -20 97 -30.5t83 -10.5q63 0 119.5 22.5t89.5 57.5l-59 -277q-27 -27 -83.5 -47t-115.5 -20q-47 0 -93 11t-108 34q-61 20 -98 30.5t-76 10.5q-127 0 -221 -80zM512 403q0 -41 19.5 -55t56.5 -14q51 0 92 31l51 241 q-16 16 -33.5 23.5t-44.5 7.5q-98 0 -135 -178q-6 -33 -6 -56z" />
<glyph unicode="&#x1eac;" horiz-adv-x="1605" d="M-70 0l787 1319h514l229 -1319h-491l-43 246h-320l-145 -246h-531zM442 -436l62 289h319l-61 -289h-320zM494 1409l450 442h289l264 -442h-330l-110 219l-195 -219h-368zM731 584h201l-47 252z" />
<glyph unicode="&#x1ead;" horiz-adv-x="1286" d="M-8 299q0 57 16 143q55 262 204.5 405.5t379.5 143.5q72 0 127 -19.5t88 -51.5l10 51h488l-205 -971h-430l-11 63q-63 -39 -145 -61t-170 -22q-168 0 -260 79.5t-92 239.5zM238 1069l450 442h289l264 -442h-330l-110 219l-195 -219h-368zM260 -436l62 289h319l-61 -289 h-320zM512 403q0 -41 19.5 -55t56.5 -14q51 0 92 31l51 241q-16 16 -33.5 23.5t-44.5 7.5q-98 0 -135 -178q-6 -33 -6 -56z" />
<glyph unicode="&#x1eae;" horiz-adv-x="1591" d="M-84 0l786 1319h515l229 -1319h-492l-43 246h-319l-146 -246h-530zM645 1690q0 49 12 104h261q-8 -41 -9 -53q0 -92 107 -92q74 0 111.5 38.5t54.5 106.5h288q-41 -193 -168.5 -289t-320.5 -96q-152 0 -244 71.5t-92 209.5zM717 584h201l-48 252zM932 1833l227 352h318 l-242 -352h-303z" />
<glyph unicode="&#x1eaf;" horiz-adv-x="1286" d="M-8 299q0 57 16 143q55 262 204.5 405.5t379.5 143.5q72 0 127 -19.5t88 -51.5l10 51h488l-205 -971h-430l-11 63q-63 -39 -145 -61t-170 -22q-168 0 -260 79.5t-92 239.5zM414 1350q0 49 12 104h260q-8 -41 -8 -53q0 -92 106 -92q74 0 112 38.5t54 106.5h289 q-41 -193 -169 -289t-320 -96q-152 0 -244 71.5t-92 209.5zM512 403q0 -41 19.5 -55t56.5 -14q51 0 92 31l51 241q-16 16 -33.5 23.5t-44.5 7.5q-98 0 -135 -178q-6 -33 -6 -56zM700 1493l228 352h317l-241 -352h-304z" />
<glyph unicode="&#x1eb0;" horiz-adv-x="1591" d="M-84 0l786 1319h515l229 -1319h-492l-43 246h-319l-146 -246h-530zM645 1690q0 49 12 104h261q-8 -41 -9 -53q0 -92 107 -92q74 0 111.5 38.5t54.5 106.5h288q-41 -193 -168.5 -289t-320.5 -96q-152 0 -244 71.5t-92 209.5zM717 584h201l-48 252zM813 2185h320l79 -352 h-303z" />
<glyph unicode="&#x1eb1;" horiz-adv-x="1286" d="M-8 299q0 57 16 143q55 262 204.5 405.5t379.5 143.5q72 0 127 -19.5t88 -51.5l10 51h488l-205 -971h-430l-11 63q-63 -39 -145 -61t-170 -22q-168 0 -260 79.5t-92 239.5zM408 1350q0 49 12 104h260q-8 -41 -8 -53q0 -92 106 -92q74 0 112 38.5t54 106.5h289 q-41 -193 -169 -289t-321 -96q-151 0 -243 71.5t-92 209.5zM512 403q0 -41 19.5 -55t56.5 -14q51 0 92 31l51 241q-16 16 -33.5 23.5t-44.5 7.5q-98 0 -135 -178q-6 -33 -6 -56zM575 1845h320l80 -352h-303z" />
<glyph unicode="&#x1eb2;" horiz-adv-x="1591" d="M-84 0l786 1319h515l229 -1319h-492l-43 246h-319l-146 -246h-530zM645 1690q0 49 12 104h261q-8 -41 -9 -53q0 -92 107 -92q74 0 111.5 38.5t54.5 106.5h288q-41 -193 -168.5 -289t-320.5 -96q-152 0 -244 71.5t-92 209.5zM717 584h201l-48 252zM909 1835l27 129 q86 2 127 23.5t41 56.5q0 23 -19.5 31t-60.5 8t-104 -23l36 168q45 10 113 18.5t129 8.5q111 0 170 -43t59 -111q0 -10 -4 -35q-16 -72 -57 -111.5t-123 -64.5l-12 -55h-322z" />
<glyph unicode="&#x1eb3;" horiz-adv-x="1286" d="M-8 299q0 57 16 143q55 262 204.5 405.5t379.5 143.5q72 0 127 -19.5t88 -51.5l10 51h488l-205 -971h-430l-11 63q-63 -39 -145 -61t-170 -22q-168 0 -260 79.5t-92 239.5zM418 1350q0 49 12 104h260q-8 -41 -8 -53q0 -92 106 -92q74 0 112 38.5t54 106.5h289 q-41 -193 -169 -289t-320 -96q-152 0 -244 71.5t-92 209.5zM512 403q0 -41 19.5 -55t56.5 -14q51 0 92 31l51 241q-16 16 -33.5 23.5t-44.5 7.5q-98 0 -135 -178q-6 -33 -6 -56zM682 1495l27 129q86 2 127 23.5t41 56.5q0 23 -19.5 31t-60.5 8t-105 -23l37 168 q45 10 112.5 18.5t129.5 8.5q111 0 170 -43t59 -111q0 -10 -4 -35q-16 -72 -57 -111.5t-123 -64.5l-12 -55h-322z" />
<glyph unicode="&#x1eb4;" horiz-adv-x="1591" d="M-84 0l786 1319h515l229 -1319h-492l-43 246h-319l-146 -246h-530zM645 1690q0 49 12 104h261q-8 -41 -9 -53q0 -92 107 -92q74 0 111.5 38.5t54.5 106.5h288q-41 -193 -168.5 -289t-320.5 -96q-152 0 -244 71.5t-92 209.5zM688 1851l53 256q39 29 97.5 48.5t115.5 19.5 q49 0 93.5 -11.5t101.5 -33.5q57 -20 97 -30.5t83 -10.5q66 0 121 22.5t86 57.5l-53 -256q-25 -27 -82.5 -47.5t-116.5 -20.5q-47 0 -93 11.5t-108 33.5q-61 20 -98 30.5t-76 10.5q-127 0 -221 -80zM717 584h201l-48 252z" />
<glyph unicode="&#x1eb5;" horiz-adv-x="1286" d="M-8 299q0 57 16 143q55 262 204.5 405.5t379.5 143.5q72 0 127 -19.5t88 -51.5l10 51h488l-205 -971h-430l-11 63q-63 -39 -145 -61t-170 -22q-168 0 -260 79.5t-92 239.5zM436 1350q0 49 13 104h260q-8 -41 -9 -53q0 -92 107 -92q74 0 111.5 38.5t54.5 106.5h289 q-41 -193 -169 -289t-321 -96q-151 0 -243.5 71.5t-92.5 209.5zM479 1511l53 256q39 29 97.5 48.5t115.5 19.5q49 0 93.5 -11.5t101.5 -33.5q57 -20 97 -30.5t83 -10.5q66 0 121 22.5t86 57.5l-53 -256q-25 -27 -82 -47.5t-117 -20.5q-47 0 -93 11.5t-108 33.5 q-61 20 -98 30.5t-76 10.5q-127 0 -221 -80zM512 403q0 -41 19.5 -55t56.5 -14q51 0 92 31l51 241q-16 16 -33.5 23.5t-44.5 7.5q-98 0 -135 -178q-6 -33 -6 -56z" />
<glyph unicode="&#x1eb6;" horiz-adv-x="1591" d="M-84 0l786 1319h515l229 -1319h-492l-43 246h-319l-146 -246h-530zM428 -436l61 289h320l-61 -289h-320zM610 1733q0 63 15 127h301q-8 -31 -8 -68q0 -113 102 -113q72 0 114 50.5t60 130.5h332q-47 -217 -193.5 -334t-355.5 -117q-172 0 -269.5 84t-97.5 240zM717 584 h201l-48 252z" />
<glyph unicode="&#x1eb7;" horiz-adv-x="1286" d="M-8 299q0 57 16 143q55 262 204.5 405.5t379.5 143.5q72 0 127 -19.5t88 -51.5l10 51h488l-205 -971h-430l-11 63q-63 -39 -145 -61t-170 -22q-168 0 -260 79.5t-92 239.5zM295 -436l61 289h320l-62 -289h-319zM401 1393q0 63 15 127h301q-8 -31 -8 -68q0 -113 102 -113 q72 0 114 50.5t60 130.5h332q-47 -217 -193.5 -334t-355.5 -117q-172 0 -269.5 84t-97.5 240zM512 403q0 -41 19.5 -55t56.5 -14q51 0 92 31l51 241q-16 16 -33.5 23.5t-44.5 7.5q-98 0 -135 -178q-6 -33 -6 -56z" />
<glyph unicode="&#x1eb8;" horiz-adv-x="1140" d="M-43 0l279 1319h1054l-76 -356h-559l-24 -119h481l-78 -369h-481l-27 -119h559l-73 -356h-1055zM211 -436l61 289h320l-62 -289h-319z" />
<glyph unicode="&#x1eb9;" horiz-adv-x="1161" d="M4 377q0 49 12 104q53 248 207 379t453 131q137 0 241.5 -48t161 -134t56.5 -197q0 -39 -11 -94l-34 -166h-648q25 -41 85.5 -61.5t183.5 -20.5q86 0 175 14.5t148 34.5l-57 -266q-168 -74 -463 -73q-141 0 -258 46t-184.5 136t-67.5 215zM246 -436l61 289h320l-62 -289 h-319zM496 600h223l4 18q2 6 2 19q0 61 -94 61q-111 0 -135 -98z" />
<glyph unicode="&#x1eba;" horiz-adv-x="1140" d="M-43 0l279 1319h1054l-76 -356h-559l-24 -119h481l-78 -369h-481l-27 -119h559l-73 -356h-1055zM600 1409l35 166q176 10 190 80q8 31 -14.5 44t-75.5 13q-61 0 -119 -20l41 192q117 31 273 31q129 0 198.5 -49t69.5 -129q0 -12 -4 -41q-20 -90 -68.5 -137.5 t-144.5 -75.5l-16 -74h-365z" />
<glyph unicode="&#x1ebb;" horiz-adv-x="1161" d="M4 377q0 49 12 104q53 248 207 379t453 131q137 0 241.5 -48t161 -134t56.5 -197q0 -39 -11 -94l-34 -166h-648q25 -41 85.5 -61.5t183.5 -20.5q86 0 175 14.5t148 34.5l-57 -266q-168 -74 -463 -73q-141 0 -258 46t-184.5 136t-67.5 215zM496 600h223l4 18q2 6 2 19 q0 61 -94 61q-111 0 -135 -98zM526 1069l35 166q176 10 191 80q8 31 -14.5 44t-75.5 13q-61 0 -119 -20l41 192q117 31 272 31q129 0 198.5 -49t69.5 -129q0 -12 -4 -41q-20 -90 -68 -137.5t-145 -75.5l-16 -74h-365z" />
<glyph unicode="&#x1ebc;" horiz-adv-x="1140" d="M-43 0l279 1319h1054l-76 -356h-559l-24 -119h481l-78 -369h-481l-27 -119h559l-73 -356h-1055zM375 1425l61 289q39 29 101.5 50.5t124.5 21.5q51 0 96 -11.5t104 -33.5q63 -23 103.5 -34t87.5 -11q68 0 126 23.5t93 60.5l-62 -289q-27 -29 -87 -50.5t-122 -21.5 q-49 0 -95 11.5t-118 35.5q-57 20 -98 31.5t-82 11.5q-131 0 -233 -84z" />
<glyph unicode="&#x1ebd;" horiz-adv-x="1161" d="M4 377q0 49 12 104q53 248 207 379t453 131q137 0 241.5 -48t161 -134t56.5 -197q0 -39 -11 -94l-34 -166h-648q25 -41 85.5 -61.5t183.5 -20.5q86 0 175 14.5t148 34.5l-57 -266q-168 -74 -463 -73q-141 0 -258 46t-184.5 136t-67.5 215zM309 1085l62 289 q39 29 101.5 50.5t123.5 21.5q51 0 96 -11.5t105 -33.5q63 -23 103 -34t87 -11q68 0 126 23.5t93 60.5l-61 -289q-27 -29 -87.5 -50.5t-121.5 -21.5q-49 0 -95 11.5t-118 35.5q-57 20 -98 31.5t-82 11.5q-131 0 -234 -84zM496 600h223l4 18q2 6 2 19q0 61 -94 61 q-111 0 -135 -98z" />
<glyph unicode="&#x1ebe;" horiz-adv-x="1140" d="M-43 0l279 1319h1054l-76 -356h-559l-24 -119h481l-78 -369h-481l-27 -119h559l-73 -356h-1055zM293 1409l397 344h359l247 -344h-370l-82 156l-142 -156h-409zM1147 1679l227 353h361l-246 -353h-342z" />
<glyph unicode="&#x1ebf;" horiz-adv-x="1161" d="M4 377q0 49 12 104q53 248 207 379t453 131q137 0 241.5 -48t161 -134t56.5 -197q0 -39 -11 -94l-34 -166h-648q25 -41 85.5 -61.5t183.5 -20.5q86 0 175 14.5t148 34.5l-57 -266q-168 -74 -463 -73q-141 0 -258 46t-184.5 136t-67.5 215zM223 1069l398 344h358l248 -344 h-371l-82 156l-141 -156h-410zM496 600h223l4 18q2 6 2 19q0 61 -94 61q-111 0 -135 -98zM1077 1339l228 353h360l-246 -353h-342z" />
<glyph unicode="&#x1ec0;" horiz-adv-x="1140" d="M-43 0l279 1319h1054l-76 -356h-559l-24 -119h481l-78 -369h-481l-27 -119h559l-73 -356h-1055zM115 2032h360l78 -353h-344zM287 1409l397 344h358l248 -344h-379l-75 156l-148 -156h-401z" />
<glyph unicode="&#x1ec1;" horiz-adv-x="1161" d="M4 377q0 49 12 104q53 248 207 379t453 131q137 0 241.5 -48t161 -134t56.5 -197q0 -39 -11 -94l-34 -166h-648q25 -41 85.5 -61.5t183.5 -20.5q86 0 175 14.5t148 34.5l-57 -266q-168 -74 -463 -73q-141 0 -258 46t-184.5 136t-67.5 215zM47 1692h361l77 -353h-344z M219 1069l397 344h359l248 -344h-379l-76 156l-147 -156h-402zM496 600h223l4 18q2 6 2 19q0 61 -94 61q-111 0 -135 -98z" />
<glyph unicode="&#x1ec2;" horiz-adv-x="1140" d="M-43 0l279 1319h1054l-76 -356h-559l-24 -119h481l-78 -369h-481l-27 -119h559l-73 -356h-1055zM276 1409l398 344h358l248 -344h-371l-82 156l-141 -156h-410zM1143 1632l35 164q80 2 109.5 16.5t29.5 36.5q0 14 -15.5 19.5t-48.5 5.5q-43 0 -100 -21l41 189 q94 25 240 24q111 0 170 -43t59 -112q0 -12 -4 -33q-16 -74 -62.5 -121t-119.5 -61l-15 -64h-319z" />
<glyph unicode="&#x1ec3;" horiz-adv-x="1161" d="M4 377q0 49 12 104q53 248 207 379t453 131q137 0 241.5 -48t161 -134t56.5 -197q0 -39 -11 -94l-34 -166h-648q25 -41 85.5 -61.5t183.5 -20.5q86 0 175 14.5t148 34.5l-57 -266q-168 -74 -463 -73q-141 0 -258 46t-184.5 136t-67.5 215zM205 1069l397 344h359l247 -344 h-370l-82 156l-142 -156h-409zM496 600h223l4 18q2 6 2 19q0 61 -94 61q-111 0 -135 -98zM1071 1292l35 164q80 2 109.5 16.5t29.5 36.5q0 14 -15.5 19.5t-47.5 5.5q-43 0 -101 -21l41 189q94 25 240 24q111 0 170 -43t59 -112q0 -12 -4 -33q-16 -74 -62 -121t-120 -61 l-14 -64h-320z" />
<glyph unicode="&#x1ec4;" horiz-adv-x="1140" d="M-43 0l279 1319h1054l-76 -356h-559l-24 -119h481l-78 -369h-481l-27 -119h559l-73 -356h-1055zM276 1409l398 344h358l248 -344h-371l-82 156l-141 -156h-410zM483 1790l58 276q39 29 97 48.5t116 19.5q49 0 93 -11.5t101 -33.5q57 -20 97 -30.5t83 -10.5q63 0 120 22.5 t89 57.5l-59 -277q-27 -27 -83 -47t-116 -20q-47 0 -93 11t-107 34q-61 20 -98.5 30.5t-75.5 10.5q-127 0 -222 -80z" />
<glyph unicode="&#x1ec5;" horiz-adv-x="1161" d="M4 377q0 49 12 104q53 248 207 379t453 131q137 0 241.5 -48t161 -134t56.5 -197q0 -39 -11 -94l-34 -166h-648q25 -41 85.5 -61.5t183.5 -20.5q86 0 175 14.5t148 34.5l-57 -266q-168 -74 -463 -73q-141 0 -258 46t-184.5 136t-67.5 215zM205 1069l397 344h359l247 -344 h-370l-82 156l-142 -156h-409zM412 1450l57 276q39 29 97.5 48.5t115.5 19.5q49 0 93 -11t102 -34q57 -20 97 -30.5t83 -10.5q63 0 119.5 22.5t89.5 57.5l-60 -277q-27 -27 -83 -47t-115 -20q-47 0 -93.5 11t-107.5 34q-61 20 -98 30.5t-76 10.5q-127 0 -221 -80zM496 600 h223l4 18q2 6 2 19q0 61 -94 61q-111 0 -135 -98z" />
<glyph unicode="&#x1ec6;" horiz-adv-x="1140" d="M-43 0l279 1319h1054l-76 -356h-559l-24 -119h481l-78 -369h-481l-27 -119h559l-73 -356h-1055zM229 -436l62 289h319l-61 -289h-320zM276 1409l451 442h289l264 -442h-330l-110 219l-195 -219h-369z" />
<glyph unicode="&#x1ec7;" horiz-adv-x="1161" d="M4 377q0 49 12 104q53 248 207 379t453 131q137 0 241.5 -48t161 -134t56.5 -197q0 -39 -11 -94l-34 -166h-648q25 -41 85.5 -61.5t183.5 -20.5q86 0 175 14.5t148 34.5l-57 -266q-168 -74 -463 -73q-141 0 -258 46t-184.5 136t-67.5 215zM184 1069l451 442h289l264 -442 h-330l-110 219l-195 -219h-369zM209 -436l61 289h320l-62 -289h-319zM496 600h223l4 18q2 6 2 19q0 61 -94 61q-111 0 -135 -98z" />
<glyph unicode="&#x1ec8;" horiz-adv-x="638" d="M-43 0l279 1319h495l-278 -1319h-496zM317 1409l35 166q176 10 191 80q8 31 -14.5 44t-75.5 13q-61 0 -119 -20l41 192q117 31 272 31q129 0 198.5 -49t69.5 -129q0 -12 -4 -41q-20 -90 -68 -137.5t-145 -75.5l-16 -74h-365z" />
<glyph unicode="&#x1ec9;" horiz-adv-x="774" d="M86 614l117 357h590l-205 -971h-496l129 614h-135zM348 1069l35 166q176 10 190 80q8 31 -14 44t-76 13q-61 0 -118 -20l41 192q117 31 272 31q129 0 198.5 -49t69.5 -129q0 -12 -4 -41q-20 -90 -68.5 -137.5t-144.5 -75.5l-16 -74h-365z" />
<glyph unicode="&#x1eca;" horiz-adv-x="638" d="M-47 -436l61 289h320l-62 -289h-319zM-43 0l279 1319h495l-278 -1319h-496z" />
<glyph unicode="&#x1ecb;" horiz-adv-x="774" d="M86 614l117 357h590l-205 -971h-496l129 614h-135zM90 -436l62 289h319l-61 -289h-320zM281 1051l71 342h531l-72 -342h-530z" />
<glyph unicode="&#x1ecc;" horiz-adv-x="1474" d="M31 451q0 92 24 208q78 365 286 522.5t566 157.5q283 0 434.5 -110.5t151.5 -354.5q0 -94 -25 -215q-78 -365 -283.5 -522t-568.5 -157q-278 0 -431.5 112.5t-153.5 358.5zM371 -436l61 289h320l-62 -289h-319zM545 530q0 -72 36.5 -101.5t125.5 -29.5q108 0 166.5 58.5 t89.5 201.5q18 92 18 129q0 72 -38 102t-126 30q-109 0 -167 -58.5t-89 -202.5q-16 -82 -16 -129z" />
<glyph unicode="&#x1ecd;" horiz-adv-x="1284" d="M4 356q0 63 14 129q55 254 229.5 380t487.5 126q252 0 386 -95t134 -282q0 -63 -14 -129q-55 -256 -228 -380.5t-493 -124.5q-248 0 -382 95t-134 281zM276 -436l62 289h319l-61 -289h-320zM516 414q0 -43 19.5 -61.5t60.5 -18.5q55 0 88 33.5t51 117.5q8 39 8 70 q0 45 -20.5 63.5t-60.5 18.5q-53 0 -86 -34t-52 -118q-8 -39 -8 -71z" />
<glyph unicode="&#x1ece;" horiz-adv-x="1474" d="M31 451q0 92 24 208q78 365 286 522.5t566 157.5q283 0 434.5 -110.5t151.5 -354.5q0 -94 -25 -215q-78 -365 -283.5 -522t-568.5 -157q-278 0 -431.5 112.5t-153.5 358.5zM545 530q0 -72 36.5 -101.5t125.5 -29.5q108 0 166.5 58.5t89.5 201.5q18 92 18 129 q0 72 -38 102t-126 30q-109 0 -167 -58.5t-89 -202.5q-16 -82 -16 -129zM731 1409l35 166q176 10 190 80q8 31 -14 44t-76 13q-61 0 -118 -20l40 192q117 31 273 31q129 0 198.5 -49t69.5 -129q0 -12 -4 -41q-20 -90 -68.5 -137.5t-144.5 -75.5l-16 -74h-365z" />
<glyph unicode="&#x1ecf;" horiz-adv-x="1284" d="M4 356q0 63 14 129q55 254 229.5 380t487.5 126q252 0 386 -95t134 -282q0 -63 -14 -129q-55 -256 -228 -380.5t-493 -124.5q-248 0 -382 95t-134 281zM516 414q0 -43 19.5 -61.5t60.5 -18.5q55 0 88 33.5t51 117.5q8 39 8 70q0 45 -20.5 63.5t-60.5 18.5q-53 0 -86 -34 t-52 -118q-8 -39 -8 -71zM578 1069l34 166q176 10 191 80q8 31 -14.5 44t-75.5 13q-61 0 -119 -20l41 192q117 31 272 31q129 0 199 -49t70 -129q0 -12 -5 -41q-20 -90 -68 -137.5t-145 -75.5l-16 -74h-364z" />
<glyph unicode="&#x1ed0;" horiz-adv-x="1474" d="M31 451q0 92 24 208q78 365 286 522.5t566 157.5q283 0 434.5 -110.5t151.5 -354.5q0 -94 -25 -215q-78 -365 -283.5 -522t-568.5 -157q-278 0 -431.5 112.5t-153.5 358.5zM416 1409l397 344h358l248 -344h-370l-82 156l-142 -156h-409zM545 530q0 -72 36.5 -101.5 t125.5 -29.5q108 0 166.5 58.5t89.5 201.5q18 92 18 129q0 72 -38 102t-126 30q-109 0 -167 -58.5t-89 -202.5q-16 -82 -16 -129zM1270 1679l227 353h361l-246 -353h-342z" />
<glyph unicode="&#x1ed1;" horiz-adv-x="1284" d="M4 356q0 63 14 129q55 254 229.5 380t487.5 126q252 0 386 -95t134 -282q0 -63 -14 -129q-55 -256 -228 -380.5t-493 -124.5q-248 0 -382 95t-134 281zM238 1069l397 344h358l248 -344h-371l-82 156l-141 -156h-409zM516 414q0 -43 19.5 -61.5t60.5 -18.5q55 0 88 33.5 t51 117.5q8 39 8 70q0 45 -20.5 63.5t-60.5 18.5q-53 0 -86 -34t-52 -118q-8 -39 -8 -71zM1092 1339l227 353h360l-245 -353h-342z" />
<glyph unicode="&#x1ed2;" horiz-adv-x="1474" d="M31 451q0 92 24 208q78 365 286 522.5t566 157.5q283 0 434.5 -110.5t151.5 -354.5q0 -94 -25 -215q-78 -365 -283.5 -522t-568.5 -157q-278 0 -431.5 112.5t-153.5 358.5zM246 2032h360l78 -353h-344zM418 1409l397 344h359l247 -344h-379l-75 156l-148 -156h-401z M545 530q0 -72 36.5 -101.5t125.5 -29.5q108 0 166.5 58.5t89.5 201.5q18 92 18 129q0 72 -38 102t-126 30q-109 0 -167 -58.5t-89 -202.5q-16 -82 -16 -129z" />
<glyph unicode="&#x1ed3;" horiz-adv-x="1284" d="M4 356q0 63 14 129q55 254 229.5 380t487.5 126q252 0 386 -95t134 -282q0 -63 -14 -129q-55 -256 -228 -380.5t-493 -124.5q-248 0 -382 95t-134 281zM86 1692h360l78 -353h-344zM258 1069l397 344h359l248 -344h-379l-76 156l-148 -156h-401zM516 414q0 -43 19.5 -61.5 t60.5 -18.5q55 0 88 33.5t51 117.5q8 39 8 70q0 45 -20.5 63.5t-60.5 18.5q-53 0 -86 -34t-52 -118q-8 -39 -8 -71z" />
<glyph unicode="&#x1ed4;" horiz-adv-x="1474" d="M31 451q0 92 24 208q78 365 286 522.5t566 157.5q283 0 434.5 -110.5t151.5 -354.5q0 -94 -25 -215q-78 -365 -283.5 -522t-568.5 -157q-278 0 -431.5 112.5t-153.5 358.5zM403 1409l398 344h358l248 -344h-371l-82 156l-141 -156h-410zM545 530q0 -72 36.5 -101.5 t125.5 -29.5q108 0 166.5 58.5t89.5 201.5q18 92 18 129q0 72 -38 102t-126 30q-109 0 -167 -58.5t-89 -202.5q-16 -82 -16 -129zM1270 1632l35 164q80 2 109.5 16.5t29.5 36.5q0 14 -15.5 19.5t-48.5 5.5q-43 0 -100 -21l41 189q94 25 240 24q111 0 170 -43t59 -112 q0 -12 -4 -33q-16 -74 -62.5 -121t-119.5 -61l-15 -64h-319z" />
<glyph unicode="&#x1ed5;" horiz-adv-x="1284" d="M4 356q0 63 14 129q55 254 229.5 380t487.5 126q252 0 386 -95t134 -282q0 -63 -14 -129q-55 -256 -228 -380.5t-493 -124.5q-248 0 -382 95t-134 281zM250 1069l397 344h359l247 -344h-370l-82 156l-142 -156h-409zM516 414q0 -43 19.5 -61.5t60.5 -18.5q55 0 88 33.5 t51 117.5q8 39 8 70q0 45 -20.5 63.5t-60.5 18.5q-53 0 -86 -34t-52 -118q-8 -39 -8 -71zM1116 1292l35 164q80 2 109.5 16.5t29.5 36.5q0 14 -15 19.5t-48 5.5q-43 0 -101 -21l41 189q94 25 240 24q111 0 170 -43t59 -112q0 -12 -4 -33q-16 -74 -62 -121t-120 -61l-14 -64 h-320z" />
<glyph unicode="&#x1ed6;" horiz-adv-x="1474" d="M31 451q0 92 24 208q78 365 286 522.5t566 157.5q283 0 434.5 -110.5t151.5 -354.5q0 -94 -25 -215q-78 -365 -283.5 -522t-568.5 -157q-278 0 -431.5 112.5t-153.5 358.5zM545 530q0 -72 36.5 -101.5t125.5 -29.5q108 0 166.5 58.5t89.5 201.5q18 92 18 129 q0 72 -38 102t-126 30q-109 0 -167 -58.5t-89 -202.5q-16 -82 -16 -129zM588 1690q0 49 12 104h260q-8 -41 -8 -53q0 -92 106 -92q74 0 112 38.5t54 106.5h289q-41 -193 -169 -289t-320 -96q-152 0 -244 71.5t-92 209.5zM631 1851l53 256q39 29 97.5 48.5t115.5 19.5 q49 0 93 -11.5t102 -33.5q57 -20 97 -30.5t83 -10.5q66 0 121 22.5t86 57.5l-54 -256q-25 -27 -82 -47.5t-116 -20.5q-47 0 -93.5 11.5t-107.5 33.5q-61 20 -98 30.5t-76 10.5q-127 0 -221 -80z" />
<glyph unicode="&#x1ed7;" horiz-adv-x="1284" d="M4 356q0 63 14 129q55 254 229.5 380t487.5 126q252 0 386 -95t134 -282q0 -63 -14 -129q-55 -256 -228 -380.5t-493 -124.5q-248 0 -382 95t-134 281zM418 1350q0 49 12 104h260q-8 -41 -8 -53q0 -92 106 -92q74 0 112 38.5t54 106.5h289q-41 -193 -169 -289t-320 -96 q-152 0 -244 71.5t-92 209.5zM461 1511l53 256q39 29 97.5 48.5t115.5 19.5q49 0 93 -11.5t102 -33.5q57 -20 97 -30.5t83 -10.5q66 0 121 22.5t86 57.5l-54 -256q-25 -27 -82 -47.5t-116 -20.5q-47 0 -93 11.5t-108 33.5q-61 20 -98 30.5t-76 10.5q-127 0 -221 -80z M516 414q0 -43 19.5 -61.5t60.5 -18.5q55 0 88 33.5t51 117.5q8 39 8 70q0 45 -20.5 63.5t-60.5 18.5q-53 0 -86 -34t-52 -118q-8 -39 -8 -71z" />
<glyph unicode="&#x1ed8;" horiz-adv-x="1474" d="M31 451q0 92 24 208q78 365 286 522.5t566 157.5q283 0 434.5 -110.5t151.5 -354.5q0 -94 -25 -215q-78 -365 -283.5 -522t-568.5 -157q-278 0 -431.5 112.5t-153.5 358.5zM373 -436l61 289h320l-62 -289h-319zM420 1409l450 442h289l264 -442h-329l-111 219l-195 -219 h-368zM545 530q0 -72 36.5 -101.5t125.5 -29.5q108 0 166.5 58.5t89.5 201.5q18 92 18 129q0 72 -38 102t-126 30q-109 0 -167 -58.5t-89 -202.5q-16 -82 -16 -129z" />
<glyph unicode="&#x1ed9;" horiz-adv-x="1284" d="M4 356q0 63 14 129q55 254 229.5 380t487.5 126q252 0 386 -95t134 -282q0 -63 -14 -129q-55 -256 -228 -380.5t-493 -124.5q-248 0 -382 95t-134 281zM252 1069l450 442h289l264 -442h-329l-111 219l-194 -219h-369zM276 -436l62 289h319l-61 -289h-320zM516 414 q0 -43 19.5 -61.5t60.5 -18.5q55 0 88 33.5t51 117.5q8 39 8 70q0 45 -20.5 63.5t-60.5 18.5q-53 0 -86 -34t-52 -118q-8 -39 -8 -71z" />
<glyph unicode="&#x1eda;" horiz-adv-x="1681" d="M31 451q0 92 24 208q78 365 286 522.5t566 157.5q283 0 430 -108q84 4 128 44t65 134h346q-47 -213 -135 -322.5t-250 -148.5q2 -18 2 -59q0 -96 -25 -220q-78 -365 -283.5 -522t-568.5 -157q-278 0 -431.5 112.5t-153.5 358.5zM545 530q0 -72 36.5 -101.5t125.5 -29.5 q108 0 166.5 58.5t89.5 201.5q18 92 18 129q0 72 -38 102t-126 30q-109 0 -167 -58.5t-89 -202.5q-16 -82 -16 -129zM754 1409l295 463h381l-314 -463h-362z" />
<glyph unicode="&#x1edb;" horiz-adv-x="1570" d="M4 356q0 63 14 129q55 254 229.5 380t487.5 126q246 0 381 -92q88 0 133 18.5t67.5 59.5t35.5 121h346q-49 -231 -150.5 -349t-292.5 -151q-4 -61 -14 -113q-55 -256 -228 -380.5t-493 -124.5q-248 0 -382 95t-134 281zM516 414q0 -43 19.5 -61.5t60.5 -18.5 q55 0 88 33.5t51 117.5q8 39 8 70q0 45 -20.5 63.5t-60.5 18.5q-53 0 -86 -34t-52 -118q-8 -39 -8 -71zM569 1069l295 463h381l-313 -463h-363z" />
<glyph unicode="&#x1edc;" horiz-adv-x="1681" d="M31 451q0 92 24 208q78 365 286 522.5t566 157.5q283 0 430 -108q84 4 128 44t65 134h346q-47 -213 -135 -322.5t-250 -148.5q2 -18 2 -59q0 -96 -25 -220q-78 -365 -283.5 -522t-568.5 -157q-278 0 -431.5 112.5t-153.5 358.5zM545 530q0 -72 36.5 -101.5t125.5 -29.5 q108 0 166.5 58.5t89.5 201.5q18 92 18 129q0 72 -38 102t-126 30q-109 0 -167 -58.5t-89 -202.5q-16 -82 -16 -129zM664 1872h380l99 -463h-363z" />
<glyph unicode="&#x1edd;" horiz-adv-x="1570" d="M4 356q0 63 14 129q55 254 229.5 380t487.5 126q246 0 381 -92q88 0 133 18.5t67.5 59.5t35.5 121h346q-49 -231 -150.5 -349t-292.5 -151q-4 -61 -14 -113q-55 -256 -228 -380.5t-493 -124.5q-248 0 -382 95t-134 281zM473 1532h381l98 -463h-362zM516 414 q0 -43 19.5 -61.5t60.5 -18.5q55 0 88 33.5t51 117.5q8 39 8 70q0 45 -20.5 63.5t-60.5 18.5q-53 0 -86 -34t-52 -118q-8 -39 -8 -71z" />
<glyph unicode="&#x1ede;" horiz-adv-x="1681" d="M31 451q0 92 24 208q78 365 286 522.5t566 157.5q283 0 430 -108q84 4 128 44t65 134h346q-47 -213 -135 -322.5t-250 -148.5q2 -18 2 -59q0 -96 -25 -220q-78 -365 -283.5 -522t-568.5 -157q-278 0 -431.5 112.5t-153.5 358.5zM545 530q0 -72 36.5 -101.5t125.5 -29.5 q108 0 166.5 58.5t89.5 201.5q18 92 18 129q0 72 -38 102t-126 30q-109 0 -167 -58.5t-89 -202.5q-16 -82 -16 -129zM733 1409l35 166q176 10 190 80q8 31 -14 44t-76 13q-61 0 -118 -20l41 192q117 31 272 31q129 0 198.5 -49t69.5 -129q0 -12 -4 -41q-20 -90 -68.5 -137.5 t-144.5 -75.5l-16 -74h-365z" />
<glyph unicode="&#x1edf;" horiz-adv-x="1570" d="M4 356q0 63 14 129q55 254 229.5 380t487.5 126q246 0 381 -92q88 0 133 18.5t67.5 59.5t35.5 121h346q-49 -231 -150.5 -349t-292.5 -151q-4 -61 -14 -113q-55 -256 -228 -380.5t-493 -124.5q-248 0 -382 95t-134 281zM516 414q0 -43 19.5 -61.5t60.5 -18.5 q55 0 88 33.5t51 117.5q8 39 8 70q0 45 -20.5 63.5t-60.5 18.5q-53 0 -86 -34t-52 -118q-8 -39 -8 -71zM565 1069l35 166q176 10 191 80q8 31 -14.5 44t-76.5 13q-61 0 -118 -20l41 192q117 31 272 31q129 0 198.5 -49t69.5 -129q0 -12 -4 -41q-20 -90 -68.5 -137.5 t-144.5 -75.5l-16 -74h-365z" />
<glyph unicode="&#x1ee0;" horiz-adv-x="1681" d="M31 451q0 92 24 208q78 365 286 522.5t566 157.5q283 0 430 -108q84 4 128 44t65 134h346q-47 -213 -135 -322.5t-250 -148.5q2 -18 2 -59q0 -96 -25 -220q-78 -365 -283.5 -522t-568.5 -157q-278 0 -431.5 112.5t-153.5 358.5zM518 1415l62 289q39 29 101 50.5t124 21.5 q51 0 96 -11.5t105 -33.5q63 -23 103 -34t87 -11q68 0 126 23.5t93 59.5l-61 -288q-27 -29 -87.5 -50.5t-121.5 -21.5q-49 0 -95 11.5t-118 35.5q-57 20 -98 31.5t-82 11.5q-131 0 -234 -84zM545 530q0 -72 36.5 -101.5t125.5 -29.5q108 0 166.5 58.5t89.5 201.5 q18 92 18 129q0 72 -38 102t-126 30q-109 0 -167 -58.5t-89 -202.5q-16 -82 -16 -129z" />
<glyph unicode="&#x1ee1;" horiz-adv-x="1570" d="M4 356q0 63 14 129q55 254 229.5 380t487.5 126q246 0 381 -92q88 0 133 18.5t67.5 59.5t35.5 121h346q-49 -231 -150.5 -349t-292.5 -151q-4 -61 -14 -113q-55 -256 -228 -380.5t-493 -124.5q-248 0 -382 95t-134 281zM358 1075l62 289q39 29 101.5 50.5t123.5 21.5 q51 0 96 -11.5t105 -33.5q63 -23 103 -34t87 -11q68 0 126.5 23.5t92.5 60.5l-61 -289q-27 -29 -87 -50.5t-122 -21.5q-49 0 -95 11.5t-118 35.5q-57 20 -98 31.5t-82 11.5q-131 0 -234 -84zM516 414q0 -43 19.5 -61.5t60.5 -18.5q55 0 88 33.5t51 117.5q8 39 8 70 q0 45 -20.5 63.5t-60.5 18.5q-53 0 -86 -34t-52 -118q-8 -39 -8 -71z" />
<glyph unicode="&#x1ee2;" horiz-adv-x="1681" d="M31 451q0 92 24 208q78 365 286 522.5t566 157.5q283 0 430 -108q84 4 128 44t65 134h346q-47 -213 -135 -322.5t-250 -148.5q2 -18 2 -59q0 -96 -25 -220q-78 -365 -283.5 -522t-568.5 -157q-278 0 -431.5 112.5t-153.5 358.5zM375 -436l61 289h320l-62 -289h-319z M545 530q0 -72 36.5 -101.5t125.5 -29.5q108 0 166.5 58.5t89.5 201.5q18 92 18 129q0 72 -38 102t-126 30q-109 0 -167 -58.5t-89 -202.5q-16 -82 -16 -129z" />
<glyph unicode="&#x1ee3;" horiz-adv-x="1570" d="M4 356q0 63 14 129q55 254 229.5 380t487.5 126q246 0 381 -92q88 0 133 18.5t67.5 59.5t35.5 121h346q-49 -231 -150.5 -349t-292.5 -151q-4 -61 -14 -113q-55 -256 -228 -380.5t-493 -124.5q-248 0 -382 95t-134 281zM276 -436l62 289h319l-61 -289h-320zM516 414 q0 -43 19.5 -61.5t60.5 -18.5q55 0 88 33.5t51 117.5q8 39 8 70q0 45 -20.5 63.5t-60.5 18.5q-53 0 -86 -34t-52 -118q-8 -39 -8 -71z" />
<glyph unicode="&#x1ee4;" horiz-adv-x="1441" d="M45 410q0 57 12 118l168 791h496l-156 -735q-12 -51 -12 -88q0 -55 31.5 -76t105.5 -21q92 0 137 43t66 142l156 735h495l-170 -799q-55 -266 -249.5 -403t-524.5 -137q-256 0 -405.5 115.5t-149.5 314.5zM354 -436l62 289h319l-61 -289h-320z" />
<glyph unicode="&#x1ee5;" horiz-adv-x="1282" d="M8 252q0 49 12 104l132 615h495l-119 -561q-2 -8 -2 -23q0 -43 56 -43q23 0 52.5 12.5t45.5 28.5l125 586h495l-204 -971h-465v55q-63 -35 -151.5 -55t-182.5 -20q-133 0 -211 70.5t-78 201.5zM266 -436l62 289h319l-61 -289h-320z" />
<glyph unicode="&#x1ee6;" horiz-adv-x="1441" d="M45 410q0 57 12 118l168 791h496l-156 -735q-12 -51 -12 -88q0 -55 31.5 -76t105.5 -21q92 0 137 43t66 142l156 735h495l-170 -799q-55 -266 -249.5 -403t-524.5 -137q-256 0 -405.5 115.5t-149.5 314.5zM723 1407l35 166q176 10 190 80q8 31 -14.5 44t-75.5 13 q-61 0 -119 -20l41 192q117 31 273 31q129 0 198.5 -49t69.5 -129q0 -12 -4 -41q-20 -90 -68.5 -137.5t-144.5 -75.5l-17 -74h-364z" />
<glyph unicode="&#x1ee7;" horiz-adv-x="1282" d="M8 252q0 49 12 104l132 615h495l-119 -561q-2 -8 -2 -23q0 -43 56 -43q23 0 52.5 12.5t45.5 28.5l125 586h495l-204 -971h-465v55q-63 -35 -151.5 -55t-182.5 -20q-133 0 -211 70.5t-78 201.5zM571 1069l35 166q176 10 191 80q8 31 -14.5 44t-75.5 13q-61 0 -119 -20 l41 192q117 31 272 31q129 0 198.5 -49t69.5 -129q0 -12 -4 -41q-20 -90 -68 -137.5t-145 -75.5l-16 -74h-365z" />
<glyph unicode="&#x1ee8;" horiz-adv-x="1863" d="M45 410q0 57 12 118l168 791h496l-156 -735q-12 -51 -12 -88q0 -55 31.5 -76t105.5 -21q92 0 137 43t66 142l156 735h495l-18 -88q92 4 130 42t56 136h346q-39 -184 -109.5 -289.5t-187 -152.5t-303.5 -52l-84 -395q-55 -266 -249.5 -403t-524.5 -137 q-256 0 -405.5 115.5t-149.5 314.5zM729 1409l295 463h381l-313 -463h-363z" />
<glyph unicode="&#x1ee9;" horiz-adv-x="1652" d="M8 252q0 49 12 104l132 615h495l-119 -561q-2 -8 -2 -23q0 -43 56 -43q23 0 52.5 12.5t45.5 28.5l125 586h495l-14 -70q80 8 116 50t52 147h346q-37 -180 -106.5 -290t-184 -163t-290.5 -61l-123 -584h-465v55q-63 -35 -151.5 -55t-182.5 -20q-133 0 -211 70.5t-78 201.5 zM557 1069l295 463h381l-313 -463h-363z" />
<glyph unicode="&#x1eea;" horiz-adv-x="1863" d="M45 410q0 57 12 118l168 791h496l-156 -735q-12 -51 -12 -88q0 -55 31.5 -76t105.5 -21q92 0 137 43t66 142l156 735h495l-18 -88q92 4 130 42t56 136h346q-39 -184 -109.5 -289.5t-187 -152.5t-303.5 -52l-84 -395q-55 -266 -249.5 -403t-524.5 -137 q-256 0 -405.5 115.5t-149.5 314.5zM625 1872h381l98 -463h-363z" />
<glyph unicode="&#x1eeb;" horiz-adv-x="1652" d="M8 252q0 49 12 104l132 615h495l-119 -561q-2 -8 -2 -23q0 -43 56 -43q23 0 52.5 12.5t45.5 28.5l125 586h495l-14 -70q80 8 116 50t52 147h346q-37 -180 -106.5 -290t-184 -163t-290.5 -61l-123 -584h-465v55q-63 -35 -151.5 -55t-182.5 -20q-133 0 -211 70.5t-78 201.5 zM459 1532h381l98 -463h-363z" />
<glyph unicode="&#x1eec;" horiz-adv-x="1863" d="M45 410q0 57 12 118l168 791h496l-156 -735q-12 -51 -12 -88q0 -55 31.5 -76t105.5 -21q92 0 137 43t66 142l156 735h495l-18 -88q92 4 130 42t56 136h346q-39 -184 -109.5 -289.5t-187 -152.5t-303.5 -52l-84 -395q-55 -266 -249.5 -403t-524.5 -137 q-256 0 -405.5 115.5t-149.5 314.5zM727 1409l35 166q176 10 190 80q8 31 -14.5 44t-75.5 13q-61 0 -119 -20l41 192q117 31 273 31q129 0 198.5 -49t69.5 -129q0 -12 -4 -41q-20 -90 -68.5 -137.5t-144.5 -75.5l-16 -74h-365z" />
<glyph unicode="&#x1eed;" horiz-adv-x="1652" d="M8 252q0 49 12 104l132 615h495l-119 -561q-2 -8 -2 -23q0 -43 56 -43q23 0 52.5 12.5t45.5 28.5l125 586h495l-14 -70q80 8 116 50t52 147h346q-37 -180 -106.5 -290t-184 -163t-290.5 -61l-123 -584h-465v55q-63 -35 -151.5 -55t-182.5 -20q-133 0 -211 70.5t-78 201.5 zM571 1069l35 166q176 10 191 80q8 31 -14.5 44t-75.5 13q-61 0 -119 -20l41 192q117 31 272 31q129 0 198.5 -49t69.5 -129q0 -12 -4 -41q-20 -90 -68 -137.5t-145 -75.5l-16 -74h-365z" />
<glyph unicode="&#x1eee;" horiz-adv-x="1863" d="M45 410q0 57 12 118l168 791h496l-156 -735q-12 -51 -12 -88q0 -55 31.5 -76t105.5 -21q92 0 137 43t66 142l156 735h495l-18 -88q92 4 130 42t56 136h346q-39 -184 -109.5 -289.5t-187 -152.5t-303.5 -52l-84 -395q-55 -266 -249.5 -403t-524.5 -137 q-256 0 -405.5 115.5t-149.5 314.5zM508 1415l61 289q39 29 101.5 50.5t124.5 21.5q51 0 96 -11.5t104 -33.5q63 -23 103.5 -34t87.5 -11q68 0 126 23.5t93 59.5l-62 -288q-27 -29 -87 -50.5t-121 -21.5q-50 0 -96 11.5t-117 35.5q-57 20 -98.5 31.5t-82.5 11.5 q-131 0 -233 -84z" />
<glyph unicode="&#x1eef;" horiz-adv-x="1652" d="M8 252q0 49 12 104l132 615h495l-119 -561q-2 -8 -2 -23q0 -43 56 -43q23 0 52.5 12.5t45.5 28.5l125 586h495l-14 -70q80 8 116 50t52 147h346q-37 -180 -106.5 -290t-184 -163t-290.5 -61l-123 -584h-465v55q-63 -35 -151.5 -55t-182.5 -20q-133 0 -211 70.5t-78 201.5 zM340 1075l61 289q39 29 101.5 50.5t124.5 21.5q51 0 96 -11.5t104 -33.5q63 -23 103.5 -34t87.5 -11q68 0 126 23.5t93 60.5l-61 -289q-27 -29 -87.5 -50.5t-121.5 -21.5q-49 0 -95.5 11.5t-117.5 35.5q-57 20 -98.5 31.5t-82.5 11.5q-131 0 -233 -84z" />
<glyph unicode="&#x1ef0;" horiz-adv-x="1863" d="M45 410q0 57 12 118l168 791h496l-156 -735q-12 -51 -12 -88q0 -55 31.5 -76t105.5 -21q92 0 137 43t66 142l156 735h495l-18 -88q92 4 130 42t56 136h346q-39 -184 -109.5 -289.5t-187 -152.5t-303.5 -52l-84 -395q-55 -266 -249.5 -403t-524.5 -137 q-256 0 -405.5 115.5t-149.5 314.5zM358 -436l62 289h319l-61 -289h-320z" />
<glyph unicode="&#x1ef1;" horiz-adv-x="1652" d="M8 252q0 49 12 104l132 615h495l-119 -561q-2 -8 -2 -23q0 -43 56 -43q23 0 52.5 12.5t45.5 28.5l125 586h495l-14 -70q80 8 116 50t52 147h346q-37 -180 -106.5 -290t-184 -163t-290.5 -61l-123 -584h-465v55q-63 -35 -151.5 -55t-182.5 -20q-133 0 -211 70.5t-78 201.5 zM272 -436l62 289h319l-61 -289h-320z" />
<glyph unicode="&#x1ef2;" horiz-adv-x="1511" d="M195 1319h501l121 -420l297 420h531l-656 -840l-100 -479h-496l101 479zM649 1872h381l98 -463h-362z" />
<glyph unicode="&#x1ef3;" horiz-adv-x="1282" d="M-10 -340l69 322q39 -10 102.5 -18.5t112.5 -8.5q164 0 256.5 28.5t100.5 71.5l8 33q-66 -35 -153 -55.5t-181 -20.5q-133 0 -210 74t-77 203q0 57 11 100l123 582h495l-112 -529q-2 -6 -3 -18q0 -47 58 -47q23 0 52.5 12t45.5 29l117 553h495l-172 -811 q-53 -256 -247.5 -388t-597.5 -132q-56 0 -156 6t-137 14zM446 1532h381l99 -463h-363z" />
<glyph unicode="&#x1ef4;" horiz-adv-x="1511" d="M195 1319h501l121 -420l297 420h531l-656 -840l-100 -479h-496l101 479zM389 -436l62 289h319l-61 -289h-320z" />
<glyph unicode="&#x1ef5;" horiz-adv-x="1282" d="M-10 -340l69 322q39 -10 102.5 -18.5t112.5 -8.5q164 0 256.5 28.5t100.5 71.5l8 33q-66 -35 -153 -55.5t-181 -20.5q-133 0 -210 74t-77 203q0 57 11 100l123 582h495l-112 -529q-2 -6 -3 -18q0 -47 58 -47q23 0 52.5 12t45.5 29l117 553h495l-172 -811 q-53 -256 -247.5 -388t-597.5 -132q-56 0 -156 6t-137 14zM948 -436l62 289h319l-61 -289h-320z" />
<glyph unicode="&#x1ef6;" horiz-adv-x="1511" d="M195 1319h501l121 -420l297 420h531l-656 -840l-100 -479h-496l101 479zM762 1407l35 166q176 10 190 80q8 31 -14.5 44t-75.5 13q-61 0 -119 -20l41 192q117 31 273 31q129 0 198.5 -49t69.5 -129q0 -12 -4 -41q-20 -90 -68.5 -137.5t-144.5 -75.5l-17 -74h-364z" />
<glyph unicode="&#x1ef7;" horiz-adv-x="1282" d="M-10 -340l69 322q39 -10 102.5 -18.5t112.5 -8.5q164 0 256.5 28.5t100.5 71.5l8 33q-66 -35 -153 -55.5t-181 -20.5q-133 0 -210 74t-77 203q0 57 11 100l123 582h495l-112 -529q-2 -6 -3 -18q0 -47 58 -47q23 0 52.5 12t45.5 29l117 553h495l-172 -811 q-53 -256 -247.5 -388t-597.5 -132q-56 0 -156 6t-137 14zM575 1069l35 166q176 10 191 80q8 31 -14.5 44t-75.5 13q-61 0 -119 -20l41 192q117 31 272 31q129 0 199 -49t70 -129q0 -12 -5 -41q-20 -90 -68 -137.5t-145 -75.5l-16 -74h-365z" />
<glyph unicode="&#x1ef8;" horiz-adv-x="1511" d="M195 1319h501l121 -420l297 420h531l-656 -840l-100 -479h-496l101 479zM535 1425l61 289q39 29 101.5 50.5t123.5 21.5q51 0 96.5 -11.5t104.5 -33.5q63 -23 103 -34t87 -11q68 0 126.5 23.5t93.5 60.5l-62 -289q-27 -29 -87 -50.5t-122 -21.5q-49 0 -95 11.5t-118 35.5 q-57 20 -98 31.5t-82 11.5q-131 0 -233 -84z" />
<glyph unicode="&#x1ef9;" horiz-adv-x="1282" d="M-10 -340l69 322q39 -10 102.5 -18.5t112.5 -8.5q164 0 256.5 28.5t100.5 71.5l8 33q-66 -35 -153 -55.5t-181 -20.5q-133 0 -210 74t-77 203q0 57 11 100l123 582h495l-112 -529q-2 -6 -3 -18q0 -47 58 -47q23 0 52.5 12t45.5 29l117 553h495l-172 -811 q-53 -256 -247.5 -388t-597.5 -132q-56 0 -156 6t-137 14zM342 1085l61 289q39 29 101.5 50.5t124.5 21.5q51 0 96 -11.5t104 -33.5q63 -23 103.5 -34t87.5 -11q68 0 126 23.5t93 60.5l-61 -289q-27 -29 -87.5 -50.5t-121.5 -21.5q-49 0 -95.5 11.5t-117.5 35.5 q-57 20 -98.5 31.5t-82.5 11.5q-131 0 -233 -84z" />
<glyph unicode="&#x2000;" horiz-adv-x="1202" />
<glyph unicode="&#x2001;" horiz-adv-x="2404" />
<glyph unicode="&#x2002;" horiz-adv-x="1202" />
<glyph unicode="&#x2003;" horiz-adv-x="2404" />
<glyph unicode="&#x2004;" horiz-adv-x="801" />
<glyph unicode="&#x2005;" horiz-adv-x="601" />
<glyph unicode="&#x2006;" horiz-adv-x="400" />
<glyph unicode="&#x2007;" />
<glyph unicode="&#x2008;" horiz-adv-x="300" />
<glyph unicode="&#x2009;" horiz-adv-x="480" />
<glyph unicode="&#x200a;" horiz-adv-x="133" />
<glyph unicode="&#x2010;" horiz-adv-x="976" d="M4 420l80 377h915l-79 -377h-916z" />
<glyph unicode="&#x2011;" horiz-adv-x="888" d="M4 420l80 377h827l-80 -377h-827z" />
<glyph unicode="&#x2012;" horiz-adv-x="1146" d="M4 420l80 377h1085l-79 -377h-1086z" />
<glyph unicode="&#x2013;" horiz-adv-x="1097" d="M4 420l80 377h1036l-80 -377h-1036z" />
<glyph unicode="&#x2014;" horiz-adv-x="1576" d="M4 420l80 377h1515l-79 -377h-1516z" />
<glyph unicode="&#x2015;" horiz-adv-x="1654" d="M4 420l80 377h1593l-80 -377h-1593z" />
<glyph unicode="&#x2018;" horiz-adv-x="608" d="M90 821l287 518h371l-250 -518h-408z" />
<glyph unicode="&#x2019;" horiz-adv-x="608" d="M90 821l250 518h408l-287 -518h-371z" />
<glyph unicode="&#x201a;" horiz-adv-x="608" d="M-178 -451l248 519h407l-287 -519h-368z" />
<glyph unicode="&#x201c;" horiz-adv-x="970" d="M90 821l287 518h330l-250 -518h-367zM494 821l286 518h330l-250 -518h-366z" />
<glyph unicode="&#x201d;" horiz-adv-x="970" d="M90 821l250 518h367l-287 -518h-330zM494 821l249 518h367l-287 -518h-329z" />
<glyph unicode="&#x201e;" horiz-adv-x="970" d="M-123 -193l246 519h366l-284 -519h-328zM279 -193l247 519h367l-285 -519h-329z" />
<glyph unicode="&#x2020;" horiz-adv-x="1153" d="M68 719l77 368l312 -8l55 355h506l-92 -355l311 8l-78 -368l-309 8l-141 -727h-494l166 727z" />
<glyph unicode="&#x2021;" horiz-adv-x="1153" d="M-27 270l76 357l309 -2l2 94l37 90l-311 -2l76 356l311 -2l39 273h506l-76 -273l311 2l-75 -356l-312 2v-90l-39 -94l314 2l-76 -357l-311 2l-45 -272h-494l70 272z" />
<glyph unicode="&#x2022;" horiz-adv-x="649" d="M33 522q0 20 8 66q16 80 69.5 147.5t129 107.5t155.5 40q106 0 173 -65.5t67 -168.5q0 -31 -6 -61q-29 -123 -132.5 -208t-226.5 -85q-104 0 -170.5 64.5t-66.5 162.5z" />
<glyph unicode="&#x2026;" horiz-adv-x="1339" d="M-84 0l72 346h381l-72 -346h-381zM365 0l71 346h381l-72 -346h-380zM813 0l72 346h381l-72 -346h-381z" />
<glyph unicode="&#x202f;" horiz-adv-x="480" />
<glyph unicode="&#x2030;" horiz-adv-x="2353" d="M119 918q0 41 8 79q35 164 134 253t267 89q125 0 195 -65.5t70 -181.5q0 -39 -11 -95q-31 -143 -131 -228t-264 -85q-131 0 -199.5 62.5t-68.5 171.5zM137 0l963 1319h467l-963 -1319h-467zM377 981q0 -55 63 -55q79 0 95 82q4 14 4 36q0 53 -64 54q-41 0 -63.5 -21.5 t-32.5 -68.5q-2 -10 -2 -27zM907 213q0 41 8 80q35 164 134.5 253t267.5 89q125 0 194.5 -65.5t69.5 -182.5q0 -39 -10 -94q-31 -143 -131.5 -228t-263.5 -85q-132 0 -200.5 62t-68.5 171zM1165 276q0 -55 64 -55q78 0 94 82q4 14 4 37q0 53 -63 53q-41 0 -63.5 -21.5 t-33.5 -68.5q-2 -10 -2 -27zM1606 213q0 41 8 80q35 164 134 253t267 89q125 0 194.5 -65.5t69.5 -182.5q0 -39 -10 -94q-31 -143 -131 -228t-264 -85q-131 0 -199.5 62t-68.5 171zM1864 276q0 -55 63 -55q78 0 94 82q4 14 4 37q0 53 -63 53q-41 0 -63.5 -21.5t-32.5 -68.5 q-2 -10 -2 -27z" />
<glyph unicode="&#x2032;" horiz-adv-x="458" d="M86 809l109 510h397l-143 -510h-363z" />
<glyph unicode="&#x2033;" horiz-adv-x="919" d="M86 809l109 510h397l-143 -510h-363zM547 809l108 510h398l-142 -510h-364z" />
<glyph unicode="&#x2039;" horiz-adv-x="815" d="M20 496l35 168l660 419l127 -282l-369 -236l268 -235l-241 -254z" />
<glyph unicode="&#x203a;" horiz-adv-x="815" d="M-12 358l370 236l-270 235l242 254l479 -419l-35 -168l-659 -420z" />
<glyph unicode="&#x2044;" horiz-adv-x="485" d="M-453 0l940 1356h508l-940 -1356h-508z" />
<glyph unicode="&#x205f;" horiz-adv-x="601" />
<glyph unicode="&#x2070;" horiz-adv-x="770" d="M125 954q0 35 10 86q63 299 420 299q299 0 299 -213q0 -35 -10 -86q-31 -147 -133.5 -223t-284.5 -76q-301 0 -301 213zM426 995q0 -49 45 -49q31 0 48.5 22.5t27.5 71.5q6 29 6 47q0 47 -43 48q-31 0 -48.5 -22.5t-29.5 -72.5q-6 -25 -6 -45z" />
<glyph unicode="&#x2074;" horiz-adv-x="610" d="M49 827l43 199l318 313h321l-63 -297h59l-47 -215h-59l-15 -69h-332l15 69h-240zM354 1024h80l21 98z" />
<glyph unicode="&#x2075;" horiz-adv-x="630" d="M80 776l39 180q25 -14 71 -21t80 -7q72 0 80 39v8q0 14 -10 20t-37 6h-174l18 84l64 234h520l-43 -172h-211l-10 -33h31q98 0 145 -29.5t47 -95.5q0 -113 -90 -180.5t-285 -67.5q-67 0 -133.5 9.5t-101.5 25.5z" />
<glyph unicode="&#x2076;" horiz-adv-x="659" d="M119 928q0 27 6 57l20 96q25 115 124.5 186.5t262.5 71.5q57 0 113.5 -7t87.5 -19l-35 -160q-55 29 -161 29q-57 0 -95.5 -16.5t-42.5 -37.5l-2 -2q18 12 53 19.5t68 7.5q205 0 205 -141q0 -131 -94 -201t-258 -70q-117 0 -184.5 49.5t-67.5 137.5zM358 930 q0 -20 11.5 -29.5t36.5 -9.5q63 0 71 53q2 6 2 19q0 18 -11 27t-38 9q-29 0 -61 -16l-9 -31q-2 -8 -2 -22z" />
<glyph unicode="&#x2077;" horiz-adv-x="608" d="M125 1083l49 236h588l-33 -162l-262 -399h-338l213 325h-217z" />
<glyph unicode="&#x2078;" horiz-adv-x="698" d="M109 893q0 43 26.5 89t63.5 69q-27 29 -27 75q0 18 2 29q39 184 344 184q268 0 268 -143q0 -27 -4 -41q-4 -27 -22.5 -56.5t-42.5 -49.5q37 -37 37 -88q0 -12 -4 -33q-20 -90 -117.5 -138.5t-243.5 -48.5q-131 0 -205.5 39t-74.5 113zM371 938q-4 -25 7 -36t44 -11 q66 0 72 41l2 10q0 25 -35 31l-47 10q-35 -10 -43 -45zM426 1139q0 -20 23 -27l38 -8q35 14 41 47v8q0 31 -43 31q-47 0 -57 -39z" />
<glyph unicode="&#x2079;" horiz-adv-x="659" d="M137 768l35 160q55 -29 162 -29q57 0 95 16.5t42 36.5l2 2q-18 -12 -53 -19t-68 -7q-205 0 -205 141q0 131 97.5 200.5t261.5 69.5q115 0 180.5 -48t65.5 -136q0 -29 -7 -59l-20 -97q-25 -115 -124 -186.5t-263 -71.5q-57 0 -113.5 7.5t-87.5 19.5zM389 1120 q0 -39 51 -39q29 1 62 17l8 30q2 8 2 23q0 20 -11.5 29.5t-35.5 9.5q-61 0 -74 -53q-2 -6 -2 -17z" />
<glyph unicode="&#x207d;" horiz-adv-x="487" d="M123 913q0 57 16 140q45 209 176 331h320q-156 -125 -199 -331q-14 -72 -14 -119q0 -123 72 -213h-320q-51 79 -51 192z" />
<glyph unicode="&#x207e;" horiz-adv-x="487" d="M68 721q157 123 200 332q12 61 13 118q0 127 -72 213h319q53 -84 54 -194q0 -59 -17 -137q-45 -209 -178 -332h-319z" />
<glyph unicode="&#x207f;" horiz-adv-x="706" d="M94 791l113 536h256l-2 -29q37 18 90 29.5t104 11.5q74 0 113 -37.5t39 -105.5q0 -25 -6 -59l-72 -346h-272l65 311v8q0 27 -30 27q-29 0 -60 -21l-67 -325h-271z" />
<glyph unicode="&#x2080;" horiz-adv-x="770" d="M-88 -47q0 33 10 84q31 147 133.5 223t284.5 76q301 0 301 -213q0 -35 -10 -86q-31 -147 -133.5 -223t-284.5 -76q-301 0 -301 215zM213 -8q0 -49 45 -49q31 0 48.5 22.5t27.5 71.5q6 29 6 47q0 47 -43 47q-31 0 -48.5 -22.5t-29.5 -71.5q-6 -25 -6 -45z" />
<glyph unicode="&#x2081;" horiz-adv-x="475" d="M-88 -14l55 262l473 88l-123 -582h-358l53 252z" />
<glyph unicode="&#x2082;" horiz-adv-x="643" d="M-135 -246l24 125q37 33 67 53.5t81 51.5q61 35 77.5 50t20.5 36q4 20 -11 27t-48 7q-27 0 -68 -11t-74 -27l48 223q55 18 137 32.5t160 14.5q121 0 185 -39t64 -109q0 -10 -4 -34q-10 -49 -31.5 -80t-60.5 -58l-63 -45h123l-48 -217h-579z" />
<glyph unicode="&#x2083;" horiz-adv-x="653" d="M-131 -227l35 174q35 -18 79 -27.5t83 -9.5q76 0 81 31v6q0 10 -10 14t-37 4h-104l41 146h90q31 0 41 5t10 21q0 12 -15.5 17.5t-49.5 5.5q-41 0 -85 -9.5t-79 -25.5l39 174q41 14 123 25.5t143 11.5q141 0 211 -41t70 -109q0 -8 -5 -28q-14 -74 -71 -121q37 -27 37 -74 q0 -10 -4 -39q-43 -186 -365 -186q-49 0 -138 10t-120 25z" />
<glyph unicode="&#x2084;" horiz-adv-x="610" d="M-162 -176l43 199l314 313h321l-61 -297h59l-47 -215h-59l-15 -70h-332l15 70h-238zM141 20h80l21 99z" />
<glyph unicode="&#x2085;" horiz-adv-x="630" d="M-131 -227l37 180q25 -14 69.5 -21.5t81.5 -7.5q72 0 80 39v8q0 14 -10 20.5t-37 6.5h-174l18 84l64 233h520l-45 -172h-211l-8 -32h31q96 0 143 -30t47 -93q0 -113 -89 -181.5t-284 -68.5q-69 0 -135.5 9t-97.5 26z" />
<glyph unicode="&#x2086;" horiz-adv-x="659" d="M-94 -74q0 27 6 56l20 96q25 117 124.5 187.5t260.5 70.5q57 0 114.5 -7t88.5 -20l-35 -159q-55 29 -161 28q-57 0 -96.5 -16.5t-43.5 -36.5v-2q18 12 53 19.5t68 7.5q102 0 152.5 -35t50.5 -109q0 -131 -93 -199.5t-257 -68.5q-117 0 -184.5 49t-67.5 139zM145 -74 q0 -20 11.5 -29.5t36.5 -9.5q63 1 71 54q2 6 2 18q0 18 -11 27.5t-38 9.5q-31 0 -63 -16l-7 -31q-2 -8 -2 -23z" />
<glyph unicode="&#x2087;" horiz-adv-x="608" d="M-88 80l49 235h588l-35 -161l-260 -400h-338l213 326h-217z" />
<glyph unicode="&#x2088;" horiz-adv-x="698" d="M-104 -109q0 41 25.5 87.5t62.5 68.5q-27 33 -27 76q0 8 4 29q39 184 342 184q270 0 270 -143q0 -27 -4 -41q-6 -29 -23.5 -59t-41.5 -48q37 -37 37 -88q0 -12 -4 -33q-20 -90 -117.5 -138t-243.5 -48q-131 0 -205.5 40t-74.5 113zM158 -66q-4 -25 7 -36t44 -11 q66 0 72 41l2 11q0 25 -35 30l-49 11q-35 -10 -41 -46zM213 135q0 -20 23 -26l38 -9q31 12 41 47v9q0 31 -43 30q-51 0 -57 -39z" />
<glyph unicode="&#x2089;" horiz-adv-x="659" d="M-76 -236l35 160q55 -29 162 -28q57 0 95 16t42 37v2q-18 -12 -52 -19.5t-67 -7.5q-205 0 -205 144q0 27 7 57q23 102 114.5 156.5t235.5 54.5q115 0 181.5 -48t66.5 -138q0 -27 -7 -58l-20 -96q-25 -115 -124 -186.5t-263 -71.5q-57 0 -113.5 7t-87.5 19zM176 117 q0 -39 51 -39q29 0 62 16l6 31l4 25q0 37 -47 36q-61 0 -74 -53q-2 -6 -2 -16z" />
<glyph unicode="&#x208d;" horiz-adv-x="487" d="M-94 -104q0 59 16 137q45 209 176 332h320q-156 -125 -199 -332q-14 -72 -14 -119q0 -123 71 -213h-319q-51 80 -51 195z" />
<glyph unicode="&#x208e;" horiz-adv-x="487" d="M-147 -299q155 125 198 332q12 61 12 119q0 127 -71 213h319q53 -84 54 -195q0 -59 -17 -137q-45 -211 -178 -332h-317z" />
<glyph unicode="&#x20a1;" horiz-adv-x="1122" d="M-61 -63l151 329q-55 94 -55 221q0 82 20 172q49 233 161 366.5t296 188.5l74 160h252l-56 -119l82 2h21l55 117h252l-72 -151q33 -10 60 -21l45 -16l-92 -432q-90 45 -165 65.5t-159 20.5q-104 0 -165.5 -41t-82.5 -140q-8 -33 -8 -65q0 -63 43 -89t139 -26 q84 0 168 20.5t193 65.5l-92 -432q-111 -37 -198 -54.5t-192 -17.5h-12l-57 -124h-252l69 151q-61 16 -88 29l-84 -180h-251z" />
<glyph unicode="&#x20a4;" horiz-adv-x="985" d="M-84 0l70 328h47q35 0 55.5 22.5t28.5 57.5h-115l41 192h115l20 98h-115l41 193h115l8 37q39 190 161 300.5t341 110.5q172 0 289 -55l-66 -307q-55 20 -118 20q-96 0 -113 -75l-6 -31h211l-52 -193h-200l-21 -98h211l-51 -192h-205q-25 -57 -49 -80h350l-69 -328h-924z " />
<glyph unicode="&#x20a6;" horiz-adv-x="1468" d="M-31 260l62 285h114l29 135h-115l62 285h112l76 354h416l158 -516l108 516h496l-76 -354h117l-62 -285h-114l-29 -135h115l-62 -285h-112l-56 -260h-417l-156 516l-109 -516h-495l55 260h-117z" />
<glyph unicode="&#x20a7;" horiz-adv-x="2990" d="M-43 0l279 1319h671q193 0 289 -101.5t96 -269.5q0 -39 -2 -59h35l57 272l516 101l-77 -373h198l-86 -357h-188l-27 -124q-2 -8 -2 -25q0 -61 80 -61q66 0 127 20l-65 -307q-141 -55 -314 -55q-164 0 -252 77.5t-88 216.5q0 51 13 107l32 151h-82q-160 -238 -485 -237 h-168l-61 -295h-496zM596 682h41q111 0 137 123q6 29 6 51q0 76 -82 76h-49zM1886 49l66 313q61 -37 162.5 -59t173.5 -22q61 0 85.5 3t28.5 19q2 12 -20.5 22.5t-71.5 22.5q-86 25 -110 35q-104 41 -151.5 90t-47.5 127q0 39 8 74q35 160 174 238.5t418 78.5q98 0 215 -14 t174 -35l-65 -311q-59 27 -132 43t-131 16q-70 0 -107.5 -4t-41.5 -22q-2 -10 19.5 -19.5t72.5 -21.5q55 -12 96 -25q119 -37 168 -85t49 -126q0 -33 -10 -84q-33 -152 -184.5 -237.5t-403.5 -85.5q-135 0 -254.5 19t-179.5 50z" />
</font>
</defs>
</svg>
